<?xml version="1.0" encoding="utf-8"?>
<!-- Generator: Adobe Illustrator 22.0.0, SVG Export Plug-In . SVG Version: 6.00 Build 0)  -->
<svg version="1.1" id="Layer_1" xmlns="http://www.w3.org/2000/svg" xmlns:xlink="http://www.w3.org/1999/xlink" x="0px" y="0px"
	 viewBox="0 0 1920 747.1" style="enable-background:new 0 0 1920 747.1;" xml:space="preserve">
<style type="text/css">
	.st0{fill:#003B3C;}
	.st1{fill:#003738;}
</style>
<rect id="background" class="st0" width="1920" height="747.1"/>
<g id="skyline">
	<path class="st1" d="M420,404.4h307.1c5.8,0,10.5-4.7,10.5-10.5c0-5.8-4.7-10.5-10.5-10.5H420V404.4z"/>
	<path class="st1" d="M1319.1,277.2H1500v-21h-180.9c-5.8,0-10.5,4.7-10.5,10.5C1308.5,272.5,1313.3,277.2,1319.1,277.2z"/>
	<path class="st1" d="M420,311.6h180.9c5.8,0,10.5-4.7,10.5-10.5c0-5.8-4.7-10.5-10.5-10.5H420V311.6z"/>
	<path class="st1" d="M1222.3,338.9H1500v-21h-277.7c-5.8,0-10.5,4.7-10.5,10.5C1211.8,334.2,1216.5,338.9,1222.3,338.9z"/>
	<path class="st1" d="M701.5,449.3c0-5.8,4.7-10.5,10.5-10.5h128.5c5.8,0,10.5,4.7,10.5,10.5l0,0c0,5.8-4.7,10.5-10.5,10.5H712
		C706.2,459.8,701.5,455.1,701.5,449.3L701.5,449.3z"/>
	<path class="st1" d="M1022.8,211.2c0-5.8,4.7-10.5,10.5-10.5h128.5c5.8,0,10.5,4.7,10.5,10.5l0,0c0,5.8-4.7,10.5-10.5,10.5h-128.5
		C1027.5,221.7,1022.8,217,1022.8,211.2L1022.8,211.2z"/>
	<path class="st1" d="M494.4,617.3c0-5.8,4.7-10.5,10.5-10.5h128.5c5.8,0,10.5,4.7,10.5,10.5l0,0c0,5.8-4.7,10.5-10.5,10.5H504.9
		C499.1,627.8,494.4,623.1,494.4,617.3L494.4,617.3z"/>
	<path class="st1" d="M550.9,203.7c0-5.8,4.7-10.5,10.5-10.5h128.5c5.8,0,10.5,4.7,10.5,10.5l0,0c0,5.8-4.7,10.5-10.5,10.5H561.4
		C555.6,214.2,550.9,209.5,550.9,203.7L550.9,203.7z"/>
	<path class="st1" d="M885.3,375.9c0-5.8,4.7-10.5,10.5-10.5h128.5c5.8,0,10.5,4.7,10.5,10.5l0,0c0,5.8-4.7,10.5-10.5,10.5H895.8
		C890,386.5,885.3,381.8,885.3,375.9L885.3,375.9z"/>
	<path class="st1" d="M1133.1,466.6c0-5.8,4.7-10.5,10.5-10.5h128.5c5.8,0,10.5,4.7,10.5,10.5l0,0c0,5.8-4.7,10.5-10.5,10.5h-128.5
		C1137.8,477.1,1133.1,472.4,1133.1,466.6L1133.1,466.6z"/>
	<path class="st1" d="M749.5,555.8c0-5.8,4.7-10.5,10.5-10.5h217.8c5.8,0,10.5,4.7,10.5,10.5l0,0c0,5.8-4.7,10.5-10.5,10.5H760
		C754.2,566.3,749.5,561.6,749.5,555.8L749.5,555.8z"/>
	<path class="st1" d="M90,629.6h180.9c5.8,0,10.5-4.7,10.5-10.5c0-5.8-4.7-10.5-10.5-10.5H90V629.6z"/>
</g>
</svg>
