<svg id="Layer_1" data-name="Layer 1" xmlns="http://www.w3.org/2000/svg" viewBox="0 0 1920 747.1">
  <defs>
    <style>
      .cls-1 {
        fill: #003b3c;
      }

      .cls-2 {
        fill: #003738;
      }
    </style>
  </defs>
  <title>background</title>
  <rect id="background" class="cls-1" width="1920" height="747.1"/>
  <g id="skyline">
    <path class="cls-2" d="M420,404.44H727.09a10.51,10.51,0,0,0,0-21H420Z"/>
    <path class="cls-2" d="M1319.05,277.18h181v-21h-181a10.51,10.51,0,0,0,0,21Z"/>
    <path class="cls-2" d="M420,311.59H601a10.51,10.51,0,0,0,0-21H420Z"/>
    <path class="cls-2" d="M1222.26,338.92H1500v-21H1222.26a10.52,10.52,0,0,0,0,21Z"/>
    <path class="cls-2" d="M701.5,449.29A10.52,10.52,0,0,1,712,438.78H840.48A10.52,10.52,0,0,1,851,449.29h0a10.51,10.51,0,0,1-10.51,10.51H712a10.51,10.51,0,0,1-10.51-10.51Z"/>
    <path class="cls-2" d="M1022.83,211.15a10.52,10.52,0,0,1,10.51-10.51H1161.8a10.51,10.51,0,0,1,10.51,10.51h0a10.5,10.5,0,0,1-10.51,10.51H1033.34a10.51,10.51,0,0,1-10.51-10.51Z"/>
    <path class="cls-2" d="M494.39,617.29a10.51,10.51,0,0,1,10.51-10.51H633.36a10.51,10.51,0,0,1,10.51,10.51h0a10.5,10.5,0,0,1-10.51,10.51H504.9a10.5,10.5,0,0,1-10.51-10.51Z"/>
    <path class="cls-2" d="M550.93,203.67a10.51,10.51,0,0,1,10.51-10.51H689.9a10.51,10.51,0,0,1,10.51,10.51h0a10.51,10.51,0,0,1-10.51,10.52H561.44a10.51,10.51,0,0,1-10.51-10.52Z"/>
    <path class="cls-2" d="M885.26,376a10.51,10.51,0,0,1,10.51-10.51h128.46A10.51,10.51,0,0,1,1034.74,376h0a10.51,10.51,0,0,1-10.51,10.51H895.77A10.51,10.51,0,0,1,885.26,376Z"/>
    <path class="cls-2" d="M1133.11,466.61a10.51,10.51,0,0,1,10.51-10.51h128.46a10.51,10.51,0,0,1,10.51,10.51h0a10.5,10.5,0,0,1-10.51,10.51H1143.62a10.5,10.5,0,0,1-10.51-10.51Z"/>
    <path class="cls-2" d="M749.51,555.83A10.51,10.51,0,0,1,760,545.32H977.78a10.5,10.5,0,0,1,10.51,10.51h0a10.51,10.51,0,0,1-10.51,10.51H760a10.52,10.52,0,0,1-10.51-10.51Z"/>
    <path class="cls-2" d="M90,629.59H271a10.51,10.51,0,0,0,0-21H90Z"/>
  </g>
</svg>
