<?xml version="1.0" encoding="utf-8"?>
<!-- Generator: Adobe Illustrator 22.0.0, SVG Export Plug-In . SVG Version: 6.00 Build 0)  -->
<svg version="1.1" id="Layer_1" xmlns="http://www.w3.org/2000/svg" xmlns:xlink="http://www.w3.org/1999/xlink" x="0px" y="0px"
	 viewBox="0 0 626 187.2" style="enable-background:new 0 0 626 187.2;" xml:space="preserve">
<style type="text/css">
	.st0{opacity:0.85;fill:#0D536B;}
	.st1{fill:#063A52;}
	.st2{fill:#D00C01;}
	.st3{fill:#FFFFFF;}
	.st4{fill:#A5A5A5;}
	.st5{fill:#BABCBE;}
	.st6{fill:#E4E5E6;}
	.st7{font-family:'HanaleiFill-Regular';}
	.st8{font-size:45.048px;}
</style>
<ellipse class="st0" cx="335.9" cy="167.5" rx="290" ry="19.8"/>
<polygon class="st1" points="500.1,69.1 448.2,69.1 491.2,27.3 543.1,27.3 "/>
<path class="st2" d="M497.4,7.4c-12,0-21.8,9.5-21.8,21.1h68.1c12,0,21.8-9.5,21.8-21.1v0H497.4z"/>
<path class="st3" d="M546.9,0h-40.4c-4.2,0-7.6,3.3-7.6,7.4h55.6C554.5,3.3,551.1,0,546.9,0z"/>
<path class="st1" d="M600.7,168.8H160.6c0,0-96.3-4.3-160.6-87.6h550.1L600.7,168.8z"/>
<path class="st3" d="M412,0h-87.6c-7.9,0-15.6,2-22.4,5.8L201,62L0,81.3h550.1l-74.4-19.2l-24.5-40.2C443,8.4,428.1,0,412,0z"/>
<g>
	<path class="st1" d="M279.3,18.4l-52.9,29.4h97.2c2.7,0,4.9-2.1,4.9-4.8V23.2c0-2.7-2.2-4.8-4.9-4.8H279.3z"/>
	<path class="st4" d="M279.3,18.4l-7.9,4.4h47.7c2.7,0,4.9,2.1,4.9,4.8v19.8c0,0.1,0,0.3,0,0.4c2.5-0.2,4.5-2.2,4.5-4.8V23.2
		c0-2.7-2.2-4.8-4.9-4.8H279.3z"/>
</g>
<g>
	<path class="st1" d="M430.6,18.4h-79.2c-2.7,0-4.9,2.1-4.9,4.8V43c0,2.7,2.2,4.8,4.9,4.8h79.2c2.7,0,4.9-2.1,4.9-4.8V23.2
		C435.5,20.6,433.3,18.4,430.6,18.4z"/>
	<path class="st4" d="M430.6,18.4h-79.2c-2.6,0-4.7,1.9-4.9,4.4c0.1,0,0.3,0,0.4,0h79.2c2.7,0,4.9,2.1,4.9,4.8v19.8
		c0,0.1,0,0.3,0,0.4c2.5-0.2,4.5-2.2,4.5-4.8V23.2C435.5,20.6,433.3,18.4,430.6,18.4z"/>
</g>
<path class="st5" d="M160.6,168.8h440.1l-19.3-33.3c-93.9,0-329.3,0-398.7,0C95.3,135.5,0,81.3,0,81.3
	C64.3,164.6,160.6,168.8,160.6,168.8z"/>
<g>
	<path class="st3" d="M512.6,95.9c-7.6,0-13.7,6-13.7,13.3s6.1,13.3,13.7,13.3c7.6,0,13.7-6,13.7-13.3S520.2,95.9,512.6,95.9z
		 M512.6,116.7c-4.3,0-7.8-3.4-7.8-7.6s3.5-7.6,7.8-7.6c4.3,0,7.8,3.4,7.8,7.6S516.9,116.7,512.6,116.7z"/>
	<g>
		<path class="st2" d="M507.9,96.7l1.6,5.6c1-0.4,2.1-0.7,3.2-0.7c1.1,0,2.2,0.2,3.2,0.7l1.6-5.6c-1.5-0.5-3.1-0.8-4.8-0.8
			C511,95.9,509.4,96.2,507.9,96.7z"/>
		<path class="st2" d="M517.4,121.6l-1.6-5.6c-1,0.4-2.1,0.7-3.2,0.7c-1.1,0-2.2-0.2-3.2-0.7l-1.6,5.6c1.5,0.5,3.1,0.8,4.8,0.8
			C514.3,122.5,515.9,122.2,517.4,121.6z"/>
		<path class="st2" d="M520.4,109.2c0,1.1-0.2,2.1-0.7,3.1l5.7,1.5c0.6-1.4,0.9-3,0.9-4.6s-0.3-3.2-0.9-4.6l-5.7,1.5
			C520.2,107,520.4,108.1,520.4,109.2z"/>
		<path class="st2" d="M504.9,109.2c0-1.1,0.2-2.1,0.7-3.1l-5.7-1.5c-0.6,1.4-0.9,3-0.9,4.6s0.3,3.2,0.9,4.6l5.7-1.5
			C505.1,111.3,504.9,110.3,504.9,109.2z"/>
	</g>
</g>
<polygon class="st2" points="0,81.3 550.1,81.3 475.6,62.1 199.6,62.1 "/>
<path class="st6" d="M9.4,80.4c0.3,0.3,0.5,0.6,0.8,0.9h539.9l-47.5-12.2H127.2L9.4,80.4z"/>
<text transform="matrix(1 0 0 1 201.2959 136.9033)" class="st3 st7 st8">Coming Soon</text>
</svg>
