<?xml version="1.0" encoding="utf-8"?>
<!-- Generator: Adobe Illustrator 22.0.0, SVG Export Plug-In . SVG Version: 6.00 Build 0)  -->
<svg version="1.1" id="Layer_1" xmlns="http://www.w3.org/2000/svg" xmlns:xlink="http://www.w3.org/1999/xlink" x="0px" y="0px"
	 viewBox="0 0 85.9 157" style="enable-background:new 0 0 85.9 157;" xml:space="preserve">
<style type="text/css">
	.st0{fill:#8C1D19;}
	.st1{fill:#AB231F;}
	.st2{fill:#D32B27;}
	.st3{fill:#CF2A26;}
	.st4{fill:#FFFFFF;}
</style>
<g id="floater">
	
		<rect x="28.6" y="47" transform="matrix(0.9982 -5.980967e-02 5.980967e-02 0.9982 -2.9837 2.3975)" class="st0" width="19.9" height="8"/>
	
		<rect x="22.6" y="51.5" transform="matrix(0.9982 -5.985521e-02 5.985521e-02 0.9982 -4.3429 2.5217)" class="st1" width="34.6" height="44.5"/>
	<path class="st2" d="M1.3,134.1l0.5,8c0.5,8.7,8,15.3,16.7,14.8l52.6-3.2c8.7-0.5,15.3-8,14.8-16.7l-0.5-8l-3.7,0.2L5,133.9
		L1.3,134.1z"/>
	
		<rect x="4.5" y="118.3" transform="matrix(0.9982 -5.971941e-02 5.971941e-02 0.9982 -7.3864 2.7905)" class="st1" width="76.9" height="13.3"/>
	<path class="st2" d="M84.6,115.8l-0.5-8.6c-0.5-8.7-8-15.3-16.7-14.8l-52.6,3.2C6.1,96-0.5,103.5,0,112.2l0.5,8.6l3.7-0.2L81,116
		L84.6,115.8z"/>
	<polygon class="st3" points="10.8,90.7 23.6,89.9 21.3,52.6 11,53.2 	"/>
	<polygon class="st3" points="70.8,87.1 58.1,87.8 55.9,50.5 66.1,49.9 	"/>
	<polygon class="st3" points="51.2,88.2 43.7,88.7 41.5,51.4 47.5,51 	"/>
	<path class="st3" d="M22.1,49.1c-4,0.2-5.7-1.6-3.9-4.2l15.1-20.7c1.8-2.5,5.1-2.7,7.2-0.4L58,42.6c2.1,2.3,0.6,4.4-3.4,4.6
		L22.1,49.1z"/>
	<g>
		<path class="st4" d="M53.1,48.5l-29.3,1.8c-3.2,0.2-6-1-7.5-3.3c-1.5-2.3-1.6-5.3-0.1-8.2l13.1-26.2C30.8,9.7,33.2,8,36,7.8
			c2.7-0.2,5.3,1.3,7.1,4l16.1,24.5c1.8,2.7,2.1,5.7,0.9,8.1C58.9,46.8,56.3,48.4,53.1,48.5z M36.1,9.5c-2.1,0.1-4,1.5-5.2,3.9
			L17.8,39.6c-1.2,2.3-1.2,4.7,0,6.5c1.2,1.8,3.4,2.7,6,2.6L53,46.9c2.6-0.2,4.7-1.3,5.6-3.3c1-1.9,0.7-4.3-0.8-6.5L41.7,12.7
			C40.2,10.5,38.2,9.3,36.1,9.5z"/>
	</g>
	<path class="st4" d="M40.1,9.3c0.1,2.2-1.6,4.1-3.8,4.3l0,0c-2.2,0.1-4.1-1.6-4.3-3.8l-0.3-5.5C31.6,2,33.3,0.1,35.5,0l0,0
		c2.2-0.1,4.1,1.6,4.3,3.8L40.1,9.3z"/>
	<g>
		<polygon class="st4" points="41.6,49 35.1,7.9 36.8,7.7 43.3,49.1 		"/>
	</g>
</g>
</svg>
