<svg xmlns="http://www.w3.org/2000/svg" viewBox="0 0 478.48 727.82" id="jelly">
  <title>jelly</title>
  <g id="Layer_2" data-name="Layer 2">
    <g id="Layer_1-2" data-name="Layer 1">
      <g>
        <path d="M420.4,703.74c-1.41-38.25-22.73-72.24-36.65-106.93a690,690,0,0,1-34.12-111.62C342.05,450,339.76,412.46,324,379.6c-8-16.61-20.16-30.49-29.91-46s-15.27-32.66-17.42-50.89c-4.67-39.57,3.54-79.44-1.72-119-.55-4.15-6.91-2.83-6.36,1.3,4.73,35.57-1.41,71.33.69,107,.95,16.17,3.68,32.24,9.93,47.26,6.9,16.58,18.43,30.35,28.39,45.1,21.3,31.53,25.31,68.49,32.21,105A700.05,700.05,0,0,0,369.9,578.7c7.43,20.42,16.07,40.27,25,60.06,9.29,20.55,18.16,41.69,19,64.54.15,4.14,6.64,4.62,6.48.44Z" style="fill: #c35975"/>
        <path d="M256.58,176.15c-1.47,33.54-17.75,64.71-16.55,98.56,1.27,35.61,17.6,68.11,34.35,98.76,8.78,16.06,17.81,32,25.16,48.81,7.54,17.22,12.75,35.26,17.84,53.32,10,35.5,23,69.62,36.21,104,15,39.13,29,79.37,30.72,121.64.17,4.14,6.65,4.61,6.48.44-3.05-74.12-41.32-139.61-61.91-209.41-5.29-17.93-9.89-36.07-16-53.73-5.77-16.53-13.3-32.24-21.55-47.65-17.43-32.58-37.78-65-43.45-102.15-5.94-38.94,13.54-73.89,15.22-112.16.18-4.18-6.3-4.62-6.48-.44Z" style="fill: #c35975"/>
        <path d="M322,723.26c-11-18.08-13.15-38.36-12.63-59.13.47-19.11,1.81-38,1.06-57.15-1.53-39.28-8.36-77.94-24.65-113.91-15.79-34.85-37.79-66.41-54.15-101-17.15-36.22-25.7-75.67-23.33-115.79,2.49-42.22,18.74-82.76,16.55-125.38-.21-4.13-6.7-4.61-6.48-.44,2,38.63-11.33,75.47-15.54,113.48a238.49,238.49,0,0,0,15.54,114c14.15,35.6,36,67.35,53.46,101.27,19.43,37.69,29.41,77.56,31.77,119.85,1.25,22.43-.38,44.55-.76,67-.35,21.07,2.23,41.86,13.37,60.17,2.16,3.54,8,.64,5.79-2.94Z" style="fill: #c35975"/>
        <path d="M271.11,145.87c10.32,35.62,4.83,73.4,13.8,109.22,4.08,16.3,11.71,30.62,21.82,43.94,10.26,13.54,22.23,26,30.06,41.26,9,17.58,8.76,36.77,9.4,56,.61,18.36,3.69,34.83,12.17,51.25,9.13,17.67,19.06,33.92,25.11,53,5.89,18.6,10,37.7,16.45,56.13,14.49,41.54,37.39,79.36,60.11,116.79,2.15,3.55,8,.64,5.79-2.94-20.45-33.7-41-67.65-55.53-104.44-7.38-18.76-12.12-38.2-17.67-57.53a226.56,226.56,0,0,0-20.47-49.54c-4.62-8.19-9.43-16.34-13-25.07-3.91-9.68-5.58-19.82-6.21-30.2-1.1-18.11.35-36.74-5.32-54.26C337.5,318.14,308,298.3,295.8,268c-15.76-39.13-6.69-83.22-18.33-123.39-1.16-4-7.53-2.72-6.36,1.3Z" style="fill: #c35975"/>
        <path d="M297.45,135.28c5,18.83,4.1,38.25,5.3,57.52,1.11,17.87,4.79,34.46,14.12,49.89,9.46,15.64,21.71,29.37,29,46.3,7,16.28,10.66,33.76,17,50.28a108.19,108.19,0,0,0,11.9,23c5.32,7.66,11.77,14.51,16.74,22.42,11,17.46,9.92,37.95,10.19,57.75.48,35.43,11.25,68.42,25.27,100.64,16.7,38.38,36.87,75.72,45,117.15.81,4.1,7.17,2.81,6.36-1.3-14.15-71.68-66-132.37-69.92-206.48-1-18.4,1.24-37.46-4.2-55.35-5.29-17.41-18.9-28.9-27.82-44.21-9.57-16.43-13.58-35.22-19.62-53.06-5.45-16.09-13.41-30-23.19-43.79-6.38-9-12.94-18.06-17.29-28.27-4.14-9.73-6-20.21-6.86-30.69-1.82-21.09-.22-42.4-5.7-63.06-1.07-4-7.44-2.75-6.36,1.3Z" style="fill: #c35975"/>
        <path d="M360,713.15c-11.22-18.6-9.51-39.36-9.69-60.2-.18-20.67-.67-41.55-4.29-61.95-6.94-39.14-26.39-74.32-44.44-109.21-9.15-17.68-18.08-35.54-25-54.23-7.71-20.72-12.55-42.35-18.35-63.64s-14.1-41.56-20-62.71c-5.34-19.24-6.35-38.38-4.46-58.18,3.72-38.89,15.54-78.84,1.17-116.95-1.47-3.9-7.26-.94-5.79,2.94,13.17,34.92,2.7,72.64-1.3,108.25-2,18.11-2.44,36.33,1.32,54.25,4.43,21,13.08,40.9,19.2,61.45,6.17,20.74,10.75,41.92,17.26,62.56,5.95,18.85,13.89,36.88,22.7,54.55,18,36.2,39.53,71.48,49,111.2,5.66,23.66,6.34,48.19,6.48,72.42.12,21.63-1.25,43.14,10.37,62.4,2.14,3.55,8,.65,5.79-2.94Z" style="fill: #c35975"/>
        <path d="M258.11,704.51c8.63-17,10.89-36.05,13.83-54.63,3.27-20.63,6.19-41.35,7.53-62.21,2.58-40.16-1.28-81.12-20-117.34-16.8-32.47-42.18-59.58-58.93-92.07-8.77-17-14.54-35.38-14.72-54.65-.19-19.65,4.37-38.91,9.31-57.8,10.41-39.87,23.51-85.9-.32-123.71-2.21-3.5-8-.6-5.79,2.94,21.73,34.47,11.08,76.61,1.41,113.18-9.15,34.62-16.46,69.32-3.95,104.12,12.11,33.68,36.37,61,55.43,90.76,10.28,16,18.95,32.93,24.17,51.33,5.61,19.77,7.71,40.35,7.68,60.86,0,22.91-2.58,45.74-5.88,68.38-3.23,22.2-4.86,47-15.17,67.25-1.88,3.69,3.52,7.31,5.42,3.58Z" style="fill: #c35975"/>
        <path d="M334.93,11.21c61.24,17.06,128.93,68.18,140.46,133.92,3,17.25-.54,36.4-12.74,49C447,210.2,418.3,211,401.8,195.72c-4.57,18.53-22.69,32-41.67,33.88s-38.08-6.38-52-19.4c.3,12.72-9.49,23.74-20.7,29.77-24.58,13.23-58.07,6.74-75.92-14.72,3.12,7.66-.12,16.79-6,22.61s-13.88,8.93-21.82,11.24c-15,4.38-31,6.5-46.32,3.29s-29.84-12.29-37.17-26.1c.35,10-5.2,19.59-13.1,25.71s-17.88,9-27.82,10c-13.68,1.33-28-1-39.56-8.51C-14.85,241,3.8,178.05,17.28,148.38c9.82-21.63,23.85-41.14,39.62-58.89q2.67-3,5.42-6c18.37-19.7,39.25-37.19,62.87-50.1C190.8-2.44,263.22-8.77,334.93,11.21Z" style="fill: #f29b9e"/>
        <path d="M79.76,146.93C54.59,114.36,15.6,169.58,44,185.73c4,2.26,8.69,2.82,13.25,2.64A32.51,32.51,0,0,0,73,184C85.06,176.54,88.41,158.13,79.76,146.93Z" style="fill: #f8cdd2"/>
        <path d="M39.12,200.34c-10.18-13.18-26,9.16-14.48,15.7A10,10,0,0,0,30,217.11a13.15,13.15,0,0,0,6.39-1.78A10.68,10.68,0,0,0,39.12,200.34Z" style="fill: #f8cdd2"/>
        <path d="M301.13,150.25c.9-11.37,16.44-13.78,19.94-2.51,1.23,4,7.61,2.7,6.36-1.3-2.4-7.71-9.48-13.56-17.87-12.69s-14.28,8-14.91,16.05c-.33,4.17,6.15,4.61,6.48.44Z" style="fill: #1d1d1b"/>
        <path d="M184.91,173.93c.9-11.37,16.44-13.78,19.94-2.51,1.23,4,7.61,2.7,6.36-1.3-2.4-7.71-9.48-13.56-17.87-12.69s-14.28,8-14.91,16.05c-.33,4.17,6.15,4.61,6.48.44Z" style="fill: #1d1d1b"/>
        <path d="M240.22,200.56a24,24,0,0,0,42.4-7.83c1.17-4-5-6.11-6.15-2.09-4.31,14.73-22.25,17.78-31.41,5.59-2.51-3.34-7.34,1-4.84,4.33Z" style="fill: #1d1d1b"/>
      </g>
    </g>
  </g>
</svg>
