<?xml version="1.0" encoding="utf-8"?>
<!-- Generator: Adobe Illustrator 22.0.0, SVG Export Plug-In . SVG Version: 6.00 Build 0)  -->
<svg version="1.1" id="Layer_1" xmlns="http://www.w3.org/2000/svg" xmlns:xlink="http://www.w3.org/1999/xlink" x="0px" y="0px"
	 viewBox="0 0 1460.5 732.5" style="enable-background:new 0 0 1460.5 732.5;" xml:space="preserve">
<style type="text/css">
	.st0{fill:#018DFF;}
	.st1{fill:#FFDE75;}
	.st2{fill:#002D2E;}
	.st3{fill:#E2E3E4;}
	.st4{fill:#CACBCD;}
	.st5{fill:#FFFFFF;}
	.st6{fill:#EBEBEC;}
	.st7{fill:#BA2521;}
	.st8{fill:#A01F1D;}
	.st9{fill:#D32B27;}
	.st10{fill:#B72420;}
	.st11{fill:#B3231F;}
	.st12{fill:#E6E7E8;}
	.st13{fill:#BA2625;}
	.st14{fill:#530000;}
	.st15{fill:#7B1315;}
	.st16{fill:#720E0F;}
	.st17{fill:#9A1C16;}
	.st18{fill:#82120A;}
	.st19{fill:#BE2827;}
	.st20{fill:#7E7C7F;}
	.st21{fill:#414244;}
	.st22{fill:#414042;}
	.st23{fill:#821227;}
	.st24{fill:#BE2622;}
	.st25{fill:#464736;}
	.st26{fill:#3C3D2E;}
	.st27{fill:#50513D;}
	.st28{opacity:0.3;fill:#ECFFA0;}
	.st29{opacity:0.99;fill:#FFFFFF;}
	.st30{font-family:'CoveredByYourGrace';}
	.st31{font-size:54.9245px;}
	.st32{fill:#F0F5F7;}
	.st33{font-size:28.8993px;}
</style>
<path class="st0" d="M949.9,655.5h-30.8c-7.1,0-12.8-6-12.8-13.1c0-7.1-5.7-12.8-12.8-12.8h-37.3h-2.6c-5.9-1.2-10.3-6.4-10.3-12.6
	c0-7.1,5.7-12.8,12.8-12.8h113.5c7.1,0,12.8-5.7,12.8-12.8c0-7.1-5.7-12.8-12.8-12.8H144.7c-7.1,0-12.8,5.7-12.8,12.8
	c0,7.1-5.7,12.8-12.8,12.8h-10.6c-7.1,0-12.8,5.7-12.8,12.8s5.7,12.8,12.8,12.8h37.3c7.1,0,12.8,5.7,12.8,12.8c0,0,0-0.1,0-0.1
	c0.1,7,5.8,12.7,12.8,12.7h30.8c7.1,0,12.8,6,12.8,13.1c0,7.1,5.7,12.8,12.8,12.8h36.6c7.1,0,12.8,5.7,12.8,12.8
	c0,7.1,5.7,12.8,12.8,12.8h29.2h124.9c7.1,0,12.8,5.7,12.8,12.8c0,7.1,5.7,12.8,12.8,12.8h124.9c7.1,0,12.8-5.7,12.8-12.8
	c0-7.1,5.7-12.8,12.8-12.8h122.2c7.1,0,12.8-5.7,12.8-12.8c0-7.1,5.7-12.8,12.8-12.8h124.9h56.5c7.1,0,12.8-5.7,12.8-12.8
	C962.7,661.2,957,655.5,949.9,655.5z"/>
<path class="st1" d="M792.2,591.2h-50.6l21.5,8.8l-8.8,13.5l-23,7.8l-126.8-4.2l-42.5,13.1l-70.3-10.1l-100,7.8L336,613.5l-35,11.7
	l-63.7-8.1l-29.2-4.7l-9.2-9.2l3.4-11.9h-24.8c-7.2,0-13,5.8-13,13c0,7.2,5.8,13,13,13h32.7c7.2,0,13,5.8,13,13c0,7.2,5.8,13,13,13
	H414c7.2,0,13,5.8,13,13c0,7.2,5.8,13,13,13h207.8c7.2,0,13-5.8,13-13c0-7.2,5.8-13,13-13h59.8c7.2,0,13-5.8,13-13
	c0-7.2,5.8-13,13-13h32.7c7.2,0,13-5.8,13-13C805.2,597,799.4,591.2,792.2,591.2z"/>
<polygon class="st2" points="709.2,569.4 652.1,542.3 628.8,509.4 584,449.4 558.6,406.9 492.1,438.6 488.9,376.7 444.6,419.5 
	389.7,412.4 332.2,461.9 315.7,492.9 258.9,499.6 245.9,532.6 226.5,570.4 212.1,584 217,606.2 238,598.9 270.2,598.9 295.8,598.9 
	372.4,598.9 391.6,598.9 461.3,598.9 484.7,598.9 557.9,598.9 617.1,598.9 638.2,598.9 684.6,598.9 724,598.9 "/>
<g>
	<polygon class="st3" points="512.3,90.9 482.1,90.9 447.7,90.9 447.7,93.2 512.3,93.4 	"/>
	<polygon class="st4" points="516.5,93.4 516.5,90.9 512.3,90.9 512.3,93.4 	"/>
	<polygon class="st5" points="447.7,93.2 447.7,147.8 447.2,155.1 512.6,155.1 512.3,93.4 	"/>
	<polygon class="st6" points="516.5,147.8 516.5,93.4 512.3,93.4 512.6,155.1 517,155.1 	"/>
	<g>
		<polygon class="st7" points="539.5,457.3 536.3,413.8 532.8,367 528.7,312.4 525.2,265.6 516.2,265.6 522.9,457.6 		"/>
		<polygon class="st8" points="522.9,457.6 523.1,461.5 539.8,461.5 539.5,457.3 		"/>
		<polygon class="st9" points="516.2,265.6 439,265.6 437.6,283.5 434.8,322 430.8,374.6 426.7,430.2 424.6,459 522.9,457.6 		"/>
		<polygon class="st10" points="424.6,459 424.4,461.5 450.9,461.5 482.1,461.5 494.9,461.5 523.1,461.5 522.9,457.6 		"/>
	</g>
	<polygon class="st8" points="517.7,164.2 517,155.5 517,155.1 512.3,155.1 512.6,164.1 	"/>
	<polygon class="st7" points="517.7,164.2 512.6,164.1 513.9,199.5 520.3,199.5 519.5,188.9 	"/>
	<polygon class="st9" points="446.6,162.9 443.9,199.5 513.9,199.5 512.6,164.1 	"/>
	<polygon class="st11" points="512.3,155.1 494.6,155.1 447.2,155.1 446.6,162.9 512.6,164.1 	"/>
	<polygon class="st12" points="516.2,265.6 525.2,265.6 521.9,221.3 520.3,199.5 513.9,199.5 	"/>
	<polygon class="st5" points="513.9,199.5 443.9,199.5 442.7,215 440.6,243.9 439,265.6 516.2,265.6 	"/>
	<path class="st13" d="M484,388.7c-0.3,0-0.6,0-0.9,0c13,0.5,23.5,11.2,23.5,24.4v48.4h1.9v-48.4C508.4,399.6,497.5,388.7,484,388.7
		z"/>
	<path class="st5" d="M483,388.7c-0.3,0-0.6,0-0.9,0c-13.5,0-24.4,11-24.4,24.4v48.4h1.9h46.9v-48.4
		C506.5,400,496.1,389.2,483,388.7z"/>
	<path class="st14" d="M499.9,461.5v-48.4c0-9.8-8-17.8-17.8-17.8c-9.8,0-17.8,8-17.8,17.8v48.4H499.9z"/>
	<path class="st15" d="M447.4,155.8h-16.9c0,0,1.2,6.1,7,7.3c0,0,8,1.6,9.9,5.8l1-13.2H447.4z"/>
	<path class="st16" d="M516.7,155.8h16.9c0,0-1.2,6.1-7,7.3c0,0-8,1.6-9.9,5.8l-1-13.2H516.7z"/>
	<rect x="479.1" y="53.9" class="st17" width="5.9" height="10.9"/>
	<path class="st5" d="M546.4,471.5c0,1.8-1.4,3.2-3.2,3.2H421c-1.8,0-3.2-1.4-3.2-3.2v-6.8c0-1.8,1.4-3.2,3.2-3.2h122.3
		c1.8,0,3.2,1.4,3.2,3.2V471.5z"/>
	<path class="st18" d="M456.8,157.5v12.7c0,1.2,1,2.2,2.2,2.2c1.2,0,2.2-1,2.2-2.2v-12.7H456.8z"/>
	<path class="st18" d="M479.9,157.5v12.7c0,1.2,1,2.2,2.2,2.2c1.2,0,2.2-1,2.2-2.2v-12.7H479.9z"/>
	<path class="st18" d="M503,157.5v12.7c0,1.2,1,2.2,2.2,2.2s2.2-1,2.2-2.2v-12.7H503z"/>
	<path class="st13" d="M484,281.2c-0.3,0-0.6,0-0.9,0c7.3,0.5,13.1,6.6,13.1,14c0,7.4-5.8,13.5-13.1,14c0.3,0,0.6,0,0.9,0
		c7.8,0,14-6.3,14-14C498,287.5,491.7,281.2,484,281.2z"/>
	<path class="st5" d="M483,281.2c-0.3,0-0.6,0-0.9,0c-7.8,0-14,6.3-14,14c0,7.8,6.3,14,14,14c0.3,0,0.6,0,0.9,0
		c7.3-0.5,13.1-6.6,13.1-14C496.1,287.8,490.3,281.7,483,281.2z"/>
	<path class="st14" d="M490.1,295.2c0,4.4-3.6,8-8,8c-4.4,0-8-3.6-8-8c0-4.4,3.6-8,8-8C486.5,287.2,490.1,290.8,490.1,295.2z"/>
	<path class="st5" d="M536.5,155.1c0,1.3-1.1,2.4-2.4,2.4H430.1c-1.3,0-2.4-1.1-2.4-2.4l0,0c0-1.3,1.1-2.4,2.4-2.4h104.1
		C535.4,152.7,536.5,153.8,536.5,155.1L536.5,155.1z"/>
	<path class="st9" d="M477.2,63.1c-12.8,1.9-23.1,11.2-26.6,23.3h53C501.8,74.1,489.8,65.1,477.2,63.1z"/>
	<path class="st19" d="M482.1,62.8c-1.7,0-3.3,0.1-4.9,0.4c12.6,2,24.6,10.9,26.4,23.3h10C509.6,72.8,497,62.8,482.1,62.8z"/>
	<path class="st5" d="M519.5,88.7c0,1.5-1.2,2.6-2.6,2.6h-69.5c-1.5,0-2.6-1.2-2.6-2.6l0,0c0-1.5,1.2-2.6,2.6-2.6h69.5
		C518.3,86.1,519.5,87.3,519.5,88.7L519.5,88.7z"/>
	<path class="st20" d="M507.3,100.1c-0.3,0-0.7,0-1,0.1c3.3,0.5,5.8,3.3,5.8,6.8v21.3c0,3.4-2.5,6.3-5.8,6.7c0.3,0,0.7,0.1,1,0.1
		c3.8,0,6.8-3.1,6.8-6.8v-21.3C514.2,103.1,511.1,100.1,507.3,100.1z"/>
	<path class="st21" d="M512.2,128.2v-21.3c0-3.4-2.5-6.3-5.8-6.8c-3.3,0.5-5.8,3.3-5.8,6.8v21.3c0,3.4,2.5,6.3,5.8,6.7
		C509.6,134.5,512.2,131.7,512.2,128.2z"/>
	<path class="st22" d="M530,127.7h-95.8c-2.4,0-4.3,1.9-4.3,4.3v20.8h104.4V132C534.3,129.6,532.4,127.7,530,127.7z M533,132v1.4
		h-8.2v-4.4h5.2C531.7,128.9,533,130.3,533,132z M487.5,139h-10.8v-4.4h10.8V139z M488.7,134.6h10.8v4.4h-10.8V134.6z M475.5,139
		h-10.8v-4.4h10.8V139z M463.4,139h-10.8v-4.4h10.8V139z M463.4,140.3v4.4h-10.8v-4.4H463.4z M464.7,140.3h10.8v4.4h-10.8V140.3z
		 M476.7,140.3h10.8v4.4h-10.8V140.3z M488.7,140.3h10.8v4.4h-10.8V140.3z M500.8,140.3h10.8v4.4h-10.8V140.3z M500.8,139v-4.4h10.8
		v4.4H500.8z M512.8,134.6h10.8v4.4h-10.8V134.6z M512.8,133.4v-4.4h10.8v4.4H512.8z M511.6,133.4h-10.8v-4.4h10.8V133.4z
		 M499.5,133.4h-10.8v-4.4h10.8V133.4z M487.5,133.4h-10.8v-4.4h10.8V133.4z M475.5,133.4h-10.8v-4.4h10.8V133.4z M463.4,133.4
		h-10.8v-4.4h10.8V133.4z M451.4,133.4h-10.8v-4.4h10.8V133.4z M451.4,134.6v4.4h-10.8v-4.4H451.4z M439.4,139h-8.2v-4.4h8.2V139z
		 M439.4,140.3v4.4h-8.2v-4.4H439.4z M440.6,140.3h10.8v4.4h-10.8V140.3z M451.4,145.9v5.6h-10.8v-5.6H451.4z M452.6,145.9h10.8v5.6
		h-10.8V145.9z M464.7,145.9h10.8v5.6h-10.8V145.9z M476.7,145.9h10.8v5.6h-10.8V145.9z M488.7,145.9h10.8v5.6h-10.8V145.9z
		 M500.8,145.9h10.8v5.6h-10.8V145.9z M512.8,145.9h10.8v5.6h-10.8V145.9z M512.8,144.7v-4.4h10.8v4.4H512.8z M524.8,140.3h8.2v4.4
		h-8.2V140.3z M524.8,139v-4.4h8.2v4.4H524.8z M434.2,128.9h5.2v4.4h-8.2V132C431.1,130.3,432.5,128.9,434.2,128.9z M431.1,145.9
		h8.2v5.6h-8.2V145.9z M524.8,151.5v-5.6h8.2v5.6H524.8z"/>
	<path class="st23" d="M482.1,35.5"/>
	<path class="st9" d="M482.1,46.8V35.5l-1.2,10.7c-2.5,0.6-4.3,2.8-4.3,5.4c0,3.1,2.5,5.6,5.6,5.6c0.5,0,1-0.1,1.4-0.2
		C488.2,51.2,482.1,46.8,482.1,46.8z"/>
	<path class="st24" d="M487.7,51.6c0-2.7-1.9-4.9-4.3-5.4l-1.2-10.7v11.4c0,0,6.1,4.3,1.4,10.1C485.9,56.3,487.7,54.1,487.7,51.6z"
		/>
</g>
<g>
	<polygon class="st25" points="573.7,510.5 590.4,514.5 600.6,502.5 590.4,440.1 546.4,471.5 573.7,495.6 	"/>
	<polygon class="st25" points="657.6,521 640.3,461.5 612.1,529.5 	"/>
	<polygon class="st25" points="417.8,471.5 361.5,457.3 407.3,577.1 	"/>
	<polygon class="st25" points="599.5,534.1 601.2,551.3 584,567.4 648.9,567.4 642.1,541.6 612.1,529.5 	"/>
	<polygon class="st26" points="642.1,541.6 657.6,521 612.1,529.5 	"/>
	<polygon class="st25" points="726.3,577.1 674.7,577.1 660.3,572.5 640.8,572.5 620.8,581.1 602.9,581.1 586.9,592 600.6,604.3 
		598.4,613.9 741.7,620.2 	"/>
	<polygon class="st25" points="550.2,601.8 539.8,586.3 511.3,584 498.2,613.9 575.7,623.8 571.4,606.3 	"/>
	<path class="st27" d="M586.9,592l16.1-10.9h17.8l20-8.6h19.5l14.3,4.6h51.6l-77.3-9.7H584l17.2-16.2l-1.7-17.2l12.6-4.6l28.2-68
		l-49.9-21.4l10.2,62.4l-10.2,12l-16.7-3.9v-14.9l-27.3-24.1H417.8l-10.4,105.6l-45.8-119.7l-45.9,10.8l3.4,17.7h20.7l8.6,48.8
		l-21.8,13.8l-1.1,28.7l18.9,18.6l-1,14.1l85.7,14l69.2-9.9l13.1-29.9l28.5,2.3l10.4,15.5l21.2,4.6l4.3,17.5l22.7-9.9l2.3-9.6
		L586.9,592z M374.6,595.7l-18.4-18.6v-18.4l11.5-10.3l5.7,10.3l5.7,13.8L374.6,595.7z M464.3,598.3l-12.2-9.2l3.7-25.2l-11.2-18.4
		v-37.3l22.4-22.4l16.1,6.9l-18.7,41.9l9.4,29.8L464.3,598.3z M535.8,552.4l-29.3,6.3L483,527l12.7-21l27.2-13.8l0.1,28.1l16.4,12
		L535.8,552.4z"/>
	<polygon class="st25" points="483,492.8 467,485.9 444.6,508.2 444.6,545.5 455.8,563.9 452.1,589.1 464.3,598.3 473.7,564.5 
		464.3,534.6 	"/>
	<polygon class="st25" points="522.9,492.2 495.7,505.9 483,527 506.5,558.7 535.8,552.4 539.5,532.3 523.1,520.3 	"/>
	<polygon class="st25" points="367.7,548.4 356.3,558.7 356.3,577.1 374.6,595.7 379.2,572.5 373.5,558.7 	"/>
</g>
<g id="boat2">
	<path class="st2" d="M4.1,554.2l2.6,3.4h6.5l7.7,20.8H153c0,0,16.1-4.2,17.2-19.5l14.2-3.4v-1.3h-52.7l-8-6.7H44.3l-5.4,6.5H25.8
		l-2.6-5.2H0L4.1,554.2z"/>
	<path class="st2" d="M88.5,435.5c0,0,22.6,51,0,107.2h56.8C145.3,542.7,163.7,467.2,88.5,435.5z"/>
	<rect x="81.1" y="435.5" class="st2" width="2.3" height="107.2"/>
	<path class="st2" d="M76,449.4c0,0-2.3,46.6-54.5,93.3H76V449.4z"/>
</g>
<path id="light" class="st28" d="M1460.5,0L514.6,100.1c0,0-8-0.9-13,4c0,0-1.1,1.6-1.1,4.7v17.5c0,3.1,1.1,4.7,1.1,4.7
	c5,4.9,13,4,13,4l945.9,101.3V0z"/>
<path class="st27" d="M310.2,559.7l2-32.2l-5.3-57.3l-23.8,15.7v45.4l-0.4,30.4l-37.4-19.6l-8.1,35l11.7,16.1l-36.9,9.9v10.8h29.2
	v-7.6l30.7-5.7l8.8,3.7l10.5-8.5l8.4,10.5l-4.6,11.5l13.4,1.4l4.4-42L310.2,559.7z M255.2,585l-9.8-12.9l4.4-14.4L266,563l1.4,12.2
	L255.2,585z M305,575.2l-10.3,9.8l-9.4-6.1l6.1-45.2l-2.4-36.5l9.5-8.1l6.6,32.8l-3.8,36.5L305,575.2z"/>
<polygon class="st27" points="331.2,545.4 326.4,548.4 325.3,577.1 344.2,595.7 343.2,609.8 354.7,608.1 "/>
<polygon class="st25" points="348.2,534.6 339.6,485.9 319,485.9 315.6,468.1 306.9,470.2 331.2,545.4 "/>
<polygon class="st25" points="325.3,577.1 326.4,548.4 331.2,545.4 306.9,470.2 312.2,527.5 310.2,559.7 312.9,577.1 308.5,619.1 
	343.2,609.8 344.2,595.7 "/>
<polygon class="st25" points="283.2,531.3 245.4,542.1 282.7,561.7 "/>
<polygon class="st25" points="298.4,489.1 288.9,497.2 291.3,533.7 285.2,578.9 294.6,585 305,575.2 301.2,558.3 305,521.9 "/>
<polygon class="st25" points="249.8,557.6 245.4,572.1 255.2,585 267.3,575.2 266,563 "/>
<polygon class="st25" points="291.3,595.7 280.8,604.2 272,600.5 241.3,606.2 241.3,613.9 295.1,617.7 299.7,606.2 "/>
<text transform="matrix(1 0 0 1 321.7369 556.9667)" class="st29 st30 st31">TECHSPARDHA  </text>
<text transform="matrix(1 0 0 1 536.2154 588.2499)" class="st32 st30 st33">PRIME</text>
</svg>
