<svg xmlns="http://www.w3.org/2000/svg" viewBox="0 0 419.91 485.91" id="octopus">
  <title>octopus</title>
  <g id="Layer_2" data-name="Layer 2">
    <g id="Layer_1-2" data-name="Layer 1">
      <g>
        <g>
          <path d="M253.19,413.68c2.39,2.71,5,4.86,5.72,8.65a9.55,9.55,0,0,1-2.84,8.68l8.14,1.18c-2.65-4.81-3.29-8.93-3.71-14.31s-8.44-5.38-9.3-.2c-1.08,6.52,1.29,13.74,4.87,19.16,1.77,2.67,5.68,2.29,7.51.06,3.68-4.5,5.28-10.92,3.25-16.57-1.77-4.92-6.95-10.09-12.52-9.36a1.7,1.7,0,0,0-1.13,2.7Z" style="fill: #683e90"/>
          <path d="M223.3,474.6c4.61,1.15,10.52-1.32,14-4.28,1.91-1.64,4.5-4.21,4.52-6.9a6.35,6.35,0,0,0-5.09-6c-5-1.09-10.41,3-13.51,6.54-2.12,2.41-2.52,6.44.28,8.65,2.34,1.84,6.22,1.5,7.8-1.16a5.25,5.25,0,0,0-.92-7l-.19-.18c-4.06-3.89-10.54,2.63-6.91,6.93l.17.2q0-3,0-6.09l-.2.26,2.06-1.57-.35.14,4.92.71-.29-.18,1.92,3.43,0-.54-.36,2.57s2.46-2.1,3-2.49a7.27,7.27,0,0,0,1-.72.53.53,0,0,0,.2-.09q.86-.48-1.53-.74l-.59-4.56c-1.63,5.56-5.27,7.19-10.44,8.54-2.49.65-1.42,4,.56,4.54Z" style="fill: #683e90"/>
          <path d="M130.45,444.83c-1.38-.32-2.72-.77-4.1-1.12-2.58-.66-4.19,2.32-3.48,4.47,1.48,4.44,7.27,7,11.43,8s9.35,1.16,12.22-2.65c3.58-4.75-.31-9.88-4.85-11.82a16.81,16.81,0,0,0-14.09.46,5.4,5.4,0,0,0-2.87,6.87c1,2.42,4.33,4.33,6.83,3s5.65-1.93,7.91.3l-1.6-2.13,0-.72,1-2.33c-.54.93-.12.05.08.11-.26-.08-.85.13-1.17.11a20.74,20.74,0,0,1-4-.65c-2.61-.75-4.75-2.54-7.42-3l1.53,5.89c1.07-.8,2.07-1.69,3.17-2.46a1.32,1.32,0,0,0-.6-2.31Z" style="fill: #683e90"/>
          <path d="M97,427.43c-2.17-1.11-4.71-.1-7,.13a22.07,22.07,0,0,1-8-.48c-3.15-.84-6.42,3.28-4.82,6.2,4.19,7.7,13.09,11.36,21.27,8.12,2.2-.87,3.92-4,2.64-6.33-3.65-6.64-10.83-9.8-18-7.26-6,2.11-2.22,11.47,3.73,9.26,2.57-1,4.72.48,6,2.73l2-7.47c-3.83,1.59-7.68-.07-9.85-3.5l-3,7.3a43.81,43.81,0,0,0,9.44-1.45c2.46-.73,5.94-1.85,6.79-4.55A2.15,2.15,0,0,0,97,427.43Z" style="fill: #683e90"/>
          <path d="M275.91,282.51c-14.8,5-33.33,7.05-45.34,17.71-9.65,8.57-16.38,28.59,1,33.48,8,2.26,16.55.61,24.54-1.61,6.56-1.82,13.32-4.23,17.84-9.34,8.93-10.07,6.76-27.74,17.41-36,5.68-4.38,13.42-4.66,20.59-4.42s14.72.77,21.13-2.44c6.75-3.38,7.47-17.94,16.33-12.79,5,2.91,7.75,11.55,7.88,17,.25,10-6.67,19.71-16.14,22.6-5.58,1.71-11.94,1.32-16.76,4.62-7.71,5.29-7.38,16.56-8.46,25.94a58.11,58.11,0,0,1-83,46.1c2.39,12.74,17.41,18.79,23.56,30.21,5.06,9.4,3.21,21.34-2.18,30.45S240.54,460,232,466.18c-10.69,7.82-22.08,15.19-35,18.3-5.34,1.29-21.73,3.56-24.42-3.26s7.16-9.23,11-11.35c6.5-3.58,12.69-8.92,14.28-16.59,1.49-7.22-1.51-14.94-6.6-20.29s-8.88-9.41-11.57-16.23c1.06,8.75-13,20.42-19.25,24.64-8,5.35-14.2,5-23.16,4.84-11.84-.22-22.48-7-33.57-11.33-8-3.12-16.68-5-25.18-4-6.41.75-13.85,3.32-18.27,8.27C56.17,443.88,53.41,449,46,449c-1.8,0-5.42-.39-6.59-2.06-2.39-3.43.27-3.21,2.06-5.82,4.06-5.93,5.61-12.92,8.5-19.43,7-15.64,23.59-26.28,40.62-26,6.77.11,13.47,1.79,20.25,1.81a41.55,41.55,0,0,0,24.2-7.75c3.58-2.57,8.25-9.16,2.52-12.27-2.84-1.55-7.72.94-10.55,1.53-8.56,1.77-17.77,2-26.49,1.73-6.87-.2-13.95-1-20-4.27-13.52-7.31-18.61-24.81-31.14-33.75a29.33,29.33,0,0,0-25-4.42c-3.38,1-6.54,2.69-9.92,3.7S7.14,343.29,4,341.59c-12.83-7,9-9.95,12.23-11.79,4.74-2.7,8.78-6.47,13.06-9.85,14.91-11.75,34.11-19,53-16.28,8.81,1.26,17,4.76,25.26,7.88,7.32,2.75,17.94,8.65,17.63-3.48-.24-9.67-17.3-14.52-23.72-19.16-20-14.48-34-36.64-43-59.42-15-37.73-18.66-80.31-7.57-119.12S88.34,37,124,18.94C147.45,7.08,173.9,2.45,200.12.74c37.82-2.47,76.48,1,112.2,14.17s68.42,36.66,89.29,68.86c9.14,14.1,16,30,17.81,46.67,2.5,23.15-5,46.57-17.74,65.83S371.29,231,352.37,244A309.84,309.84,0,0,1,275.91,282.51Z" style="fill: #af85ba"/>
          <path d="M43.69,340.91c-1,5.74,1.91,11.84,5.52,16.2,3.16,3.81,9.18,8.83,14.12,5s.95-11.67-1.72-15.71a26.74,26.74,0,0,0-13.87-10.55c-3.25-1-7.34,1.08-6.69,5a31.5,31.5,0,0,0,13,21c4.27,3,9-1.05,7.63-5.81s-3.62-9.25-7.18-12.54c-1.76-1.63-4.71-1.17-6.26.39-1.82,1.82-1.65,4.19-.43,6.32,1.83,3.2,3.62,5.94,4.66,9.54l7.63-5.81a22.74,22.74,0,0,1-9.45-14.12l-5.49,5.37a17.53,17.53,0,0,1,7.76,4.51,19,19,0,0,1,2.83,3.63c.29.49,1.45,4.07,1.85,4.22l1.27-1.68-.67-.05c-.69-.53-1.75-.86-2.5-1.42a20.65,20.65,0,0,1-3.68-3.55c-2.5-3.09-3.78-6.71-5.5-10.24a1.5,1.5,0,0,0-2.86.33Z" style="fill: #683e90"/>
          <path d="M78.07,376.79c1.6,6.92,9.57,9.17,15.62,7.07a3.48,3.48,0,0,0,1.42-5.29,20,20,0,0,0-10.83-7.07c-4-.85-8.89.88-9.57,5.45-.7,4.76,3.66,8.65,7.64,10.31a15.84,15.84,0,0,0,12.5-.09,4.68,4.68,0,0,0,2.51-6,12.38,12.38,0,0,0-6-6.3c-2.67-1.3-6.41-1.82-8.74.33a4.24,4.24,0,0,0,.92,7.12c1.79.81,4.41.32,5.29,2.27l2.51-6a6.93,6.93,0,0,1-6.51-.15c-.37-.22-.66-.57-1-.77-1.2-.68.1-.83-.6.23a1.11,1.11,0,0,1-.57,1.36q-1,.77-.3.46c-.08-.05.88-.07.71-.07a5.15,5.15,0,0,1,1.73.53,51.32,51.32,0,0,1,6.27,3.7l-.76-5.93c-3.28,2-7.66.05-10.34-2.18-.74-.61-2.14,0-1.9,1.07Z" style="fill: #683e90"/>
          <path d="M309.59,351.85c-3.78,2.5-7,6.37-10.19,9.59-2.79,2.81-6,5.78-5,10.18.93,4.15,5,6,8.89,5.63s7.66-3,10.27-6a20.13,20.13,0,0,0,4.85-10.49c.61-4.55-1.71-9.49-6.91-9.2-7.84.44-12.78,10.25-13.3,17.22s10.23,8.48,10.55,1.62a12.41,12.41,0,0,1,1.45-5.79,11.4,11.4,0,0,1,1.38-1.89c1.06-1.18,1.34-.53.41-.8l-2.38-1,.49.43-1.61-2.14c.56,1.43-1.56,4.58-2.4,5.6a10.21,10.21,0,0,1-2.63,2.31,9,9,0,0,1-1.3.62q-1.41.14.72,1.54c.16,0,1.87-3.18,2.07-3.47.93-1.33,1.86-2.66,2.76-4a50.12,50.12,0,0,0,4.75-7.68,1.92,1.92,0,0,0-2.89-2.28Z" style="fill: #683e90"/>
          <path d="M320.39,312.92a13.19,13.19,0,0,0-4.95,2.76,22.1,22.1,0,0,0-3.55,4.89c-2,3.64-1.51,8.16,2.69,9.94a8,8,0,0,0,9.86-3.16c2.27-3.86,1.33-8.22.13-12.3-.91-3.09-4.8-3.47-7-2a13.39,13.39,0,0,0-5.7,13.11c.94,6.06,10.11,5.08,9.37-1a4.85,4.85,0,0,1,1.92-4.69l-7-2a9.74,9.74,0,0,1,.89,4.44s.1-.06.1-.09q.4-.31,0,0t0,.07q.38-.19-.27.11l.24,0c-.11.47-.55-.44-.1.11,0,.06,1.23,1.22.8.87.33.26-.17.35.12,0,.55-.69.79-2.23,1.19-3,.92-1.91,1.85-4,2.92-5.78a1.4,1.4,0,0,0-1.6-2.14Z" style="fill: #683e90"/>
          <path d="M93.76,163.45c-6,2.73-9.4,10.25-9.41,16.68A17.23,17.23,0,0,0,95,196.29c6.32,2.65,13.94,1.77,18.71-3.34,5.42-5.8,5.46-14.59,3.4-21.9-2.34-8.3-9.57-14.46-18.3-11.61-8.2,2.68-11.68,11.8-11.88,19.84-.22,8.89,6.64,16.34,15.79,14.7,9-1.6,13.81-11.53,11.37-20-2.72-9.49-15.33-14.41-21.86-5.65a10.31,10.31,0,0,0,.6,12.87c3.41,4,8.33,4.39,12.66,1.86,2.39-1.4,2.69-5.16,1.41-7.34-1.56-2.67-4.19-3.25-7-2.54,1.42-.36,2.4-.5,2.65,1.1.11.73-.81,1.6-.79,1.88s.71,1.24.79,1.71c.27,1.53-1.24,5.66-3.31,3.86-1-.85-.26-3.69-.11-4.81.26-1.9.69-4.13,2.05-5.58,3.09-3.27,5.26.9,6.15,3.69,1.12,3.49,1.69,8.32-.72,11.36-2.09,2.62-6.07,2.69-9,1.62a10.06,10.06,0,0,1-6.36-8.59c-.59-5.23,1.72-9.36,4.27-13.65.68-1.14-.26-2.94-1.71-2.28Z" style="fill: #caa5cd"/>
          <path d="M125.4,153.85c-.78-1.21-2.26-1.1-3.35-.4a3.06,3.06,0,0,0-.63,4.6c2.39,3,7.62,2.77,9.19-.91s-.78-8-4.83-8.08c-4.43-.1-7.47,5.68-4.45,9.23a4,4,0,0,0,5.91.42,4.06,4.06,0,0,0-.37-6,2.84,2.84,0,0,1,1,1.73q-.05,1,0,.55t-.16.48a1.82,1.82,0,0,1,.11-.27q.19-.39-.24.42c.35-.54-.66.56-.13.16a2.14,2.14,0,0,1-1.64.46l-.5-.15q-.69-.47-.36-.23t-.29-.32q.24.34,0-.08c-.36-.83.25.71,0-.11q-.11-.46,0,0l0-.45a2.55,2.55,0,0,1,0,.39l.11-.41c-.18.55.39-.45,0,0,.17-.18.74-.44.3-.31.63-.19,0,0-.16,0,.55,0-.29-.14.19,0-.06,0-.6-.27-.36-.15.55.28-1-.6-.55-.29l.68.91s.11.45.06.44.29-.3.34-.38c.58-.75-.3.15.1-.09a.82.82,0,0,0,.14-1.12Z" style="fill: #caa5cd"/>
          <path d="M53.27,318.65a1.4,1.4,0,0,0-.31.29q.33-.34-.23.22a1.88,1.88,0,0,0-.37,1.16,2.39,2.39,0,0,0,1,1.86,3.3,3.3,0,0,0,3.25.52,3.67,3.67,0,0,0,2-3.83A6.28,6.28,0,0,0,57,315.81a2.66,2.66,0,0,0-3-.85,4.46,4.46,0,0,0-2.39,2.3,4.07,4.07,0,0,0,.05,3.42,3.35,3.35,0,0,0,1.51,1.55,2.66,2.66,0,0,0,2.47-.15,2.82,2.82,0,0,0,.83-4.15c-.34-.4.27.64.08.16a1.08,1.08,0,0,1,.12.64q0,.38,0,.06l-.11.38q.16-.37-.13.2c-.11.13-.87.53-.48.43l-3-.85.17.26q.22.38-.11-.2a2.8,2.8,0,0,0,.25.58c.19.45-.13-.71,0,0s0-.07.1-.33.51-.81.19-.43q-.22.28.25-.24-.28.2.28-.15-.31.12.27-.05-.3,0,.24,0a2.14,2.14,0,0,0-1.47.38l.9-.36-.15,0,1.42.86,0,.18a1.27,1.27,0,0,0-2-.87Z" style="fill: #caa5cd"/>
          <path d="M65.55,314.09a5.08,5.08,0,0,0-1.25.74,1.78,1.78,0,0,0,.39,3,1.74,1.74,0,0,0,2.39-1.8,5.29,5.29,0,0,0-.34-1.43.93.93,0,0,0-1.19-.52Z" style="fill: #caa5cd"/>
          <path d="M215.94,459.71q-.13.06-.07.07h.62a2,2,0,0,0-.38-.11h-.22l.9.72a3.24,3.24,0,0,0-.7-1c-.14-.13-.27-.31.07.1-.22-.27.2.45.11.22a1.45,1.45,0,0,1,.06.5q0,.38,0,.12l-.12.46c-.12.34-.5.93.15-.25l-.25.45q.27-.32-.32.31c.09,0,.16-.12.25-.17l-.68.39a2.09,2.09,0,0,1,.37-.15l-.79.2a2,2,0,0,1,.39,0l-.81,0a1.65,1.65,0,0,1,.38.06l-.8-.23.18.08-.73-.43a1.46,1.46,0,0,1,.23.17l-.62-.63.07.07a3.39,3.39,0,1,0,4-5.19,4.53,4.53,0,0,0-4.26.48,4.39,4.39,0,0,0-1.81,2.84,3.55,3.55,0,0,0,1.36,3.41,3.49,3.49,0,0,0,3.13.46,1.77,1.77,0,0,0,1.13-1.46V461l-.45.78a1.44,1.44,0,0,0,.63-1.36l-.06.41a2.43,2.43,0,0,0,.13-.49.71.71,0,0,0-1.12-.67Z" style="fill: #caa5cd"/>
          <path d="M221.39,439.43c-1,.78-.53,2.2.32,2.88a2.13,2.13,0,0,0,3.28-.89,1.87,1.87,0,0,0-1.2-2.49,1.81,1.81,0,0,0-2.29,1.48,1.54,1.54,0,0,1,.54-.92,1,1,0,0,1,.51-.24l-.28.07c-.18.06-.17,0,.25,0-.17,0-.23,0,.21,0-.14,0-.25-.1.17.06-.19-.08.34.2.17.09a1.37,1.37,0,0,0-1.67,0Z" style="fill: #caa5cd"/>
        </g>
        <path d="M100.4,253.1a14.44,14.44,0,0,1,10.37-21.71c10.08-1.5,17.89,6.22,21.43,15.05,1.54,3.84,7.24,1.51,5.86-2.36-4.7-13.18-18.26-22.69-32.08-17.69-11.18,4-16.47,19.3-7,28.2,1,.9,2-.53,1.48-1.48Z"/>
        <path d="M235.78,261.62a22,22,0,0,0-17-22.46c-10.91-2.34-22.55,4.56-26,15.14-1.31,4.07,4.44,6.72,6.17,2.68,3.09-7.21,10.22-12.42,18.25-11.57,8.45.9,15.06,8.09,16.9,16.18.2.87,1.63,1.09,1.69,0Z"/>
        <path d="M132.69,275.68c10.26,24.81,43.78,25.31,59.19,5.92,2.1-2.65-2.1-6-4.17-3.27-6.77,8.81-17.83,14-29,12.56-10.16-1.3-19-7.55-25.17-15.69a.5.5,0,0,0-.86.49Z"/>
      </g>
    </g>
  </g>
</svg>
