<?xml version="1.0" encoding="utf-8"?>
<!-- Generator: Adobe Illustrator 22.0.0, SVG Export Plug-In . SVG Version: 6.00 Build 0)  -->
<svg version="1.1" id="Layer_1" xmlns="http://www.w3.org/2000/svg" xmlns:xlink="http://www.w3.org/1999/xlink" x="0px" y="0px"
	 viewBox="0 0 1920 332.9" style="enable-background:new 0 0 1920 332.9;" xml:space="preserve">
<style type="text/css">
	.st0{fill:#01BCFF;}
	.st1{fill:#33C8FF;}
</style>
<rect class="st0" width="1920" height="332.9"/>
<path class="st1" d="M588.7,117c0,7-5.7,12.7-12.7,12.7h-86.6c-7,0-12.7-5.7-12.7-12.7l0,0c0-7,5.7-12.7,12.7-12.7H576
	C583,104.3,588.7,110,588.7,117L588.7,117z"/>
<path class="st1" d="M618.8,207.3c0,7-5.7,12.7-12.7,12.7h-86.6c-7,0-12.7-5.7-12.7-12.7l0,0c0-7,5.7-12.7,12.7-12.7h86.6
	C613.1,194.6,618.8,200.3,618.8,207.3L618.8,207.3z"/>
<path class="st1" d="M911.1,207.3c0,7-5.7,12.7-12.7,12.7h-86.6c-7,0-12.7-5.7-12.7-12.7l0,0c0-7,5.7-12.7,12.7-12.7h86.6
	C905.5,194.6,911.1,200.3,911.1,207.3L911.1,207.3z"/>
<path class="st1" d="M1074.3,207.3c0,7-5.7,12.7-12.7,12.7h-47.2c-7,0-12.7-5.7-12.7-12.7l0,0c0-7,5.7-12.7,12.7-12.7h47.2
	C1068.7,194.6,1074.3,200.3,1074.3,207.3L1074.3,207.3z"/>
<path class="st1" d="M1446.4,142.3c0,7-5.7,12.7-12.7,12.7h-86.6c-7,0-12.7-5.7-12.7-12.7l0,0c0-7,5.7-12.7,12.7-12.7h86.6
	C1440.8,129.6,1446.4,135.3,1446.4,142.3L1446.4,142.3z"/>
<path class="st1" d="M1416.3,220c0,7-5.7,12.7-12.7,12.7h-86.6c-7,0-12.7-5.7-12.7-12.7l0,0c0-7,5.7-12.7,12.7-12.7h86.6
	C1410.7,207.3,1416.3,213,1416.3,220L1416.3,220z"/>
<path class="st1" d="M796.9,166.7c0,7-5.7,12.7-12.7,12.7H640.7c-7,0-12.7-5.7-12.7-12.7l0,0c0-7,5.7-12.7,12.7-12.7h143.6
	C791.2,154,796.9,159.7,796.9,166.7L796.9,166.7z"/>
<path class="st1" d="M1279.3,179.3c0,7-5.7,12.7-12.7,12.7H1123c-7,0-12.7-5.7-12.7-12.7l0,0c0-7,5.7-12.7,12.7-12.7h143.6
	C1273.6,166.7,1279.3,172.4,1279.3,179.3L1279.3,179.3z"/>
<path class="st1" d="M320,89.3c0,8.6-13.3,15.5-29.8,15.5H86.6c-16.4,0-29.8-7-29.8-15.5l0,0c0-8.6,13.3-15.5,29.8-15.5h203.6
	C306.7,73.7,320,80.7,320,89.3L320,89.3z"/>
<path class="st1" d="M300.7,240c0,7-5.7,12.7-12.7,12.7h-86.6c-7,0-12.7-5.7-12.7-12.7l0,0c0-7,5.7-12.7,12.7-12.7H288
	C295,227.3,300.7,233,300.7,240L300.7,240z"/>
</svg>
