<?xml version="1.0" encoding="utf-8"?>
<!-- Generator: Adobe Illustrator 22.0.0, SVG Export Plug-In . SVG Version: 6.00 Build 0)  -->
<svg version="1.1" id="Layer_1" xmlns="http://www.w3.org/2000/svg" xmlns:xlink="http://www.w3.org/1999/xlink" x="0px" y="0px"
	 viewBox="0 0 1921.7 596.4" style="enable-background:new 0 0 1921.7 596.4;" xml:space="preserve">
<style type="text/css">
	.st0{fill:#FBF7C0;}
</style>
<g id="star_1_">
	<path class="st0" d="M1122.8,98.1c0,1.4-1.1,2.5-2.5,2.5c-1.4,0-2.5-1.1-2.5-2.5c0-1.4,1.1-2.5,2.5-2.5
		C1121.7,95.6,1122.8,96.7,1122.8,98.1z"/>
	<path class="st0" d="M1114.3,6.1c0,1.4-1.1,2.5-2.5,2.5c-1.4,0-2.5-1.1-2.5-2.5c0-1.4,1.1-2.5,2.5-2.5
		C1113.1,3.6,1114.3,4.7,1114.3,6.1z"/>
	<path class="st0" d="M1199.1,79.7c0,0.7-0.6,1.3-1.3,1.3c-0.7,0-1.3-0.6-1.3-1.3c0-0.7,0.6-1.3,1.3-1.3
		C1198.6,78.4,1199.1,79,1199.1,79.7z"/>
	<path class="st0" d="M1054.8,73.5c0,0.7-0.6,1.3-1.3,1.3c-0.7,0-1.3-0.6-1.3-1.3c0-0.7,0.6-1.3,1.3-1.3
		C1054.3,72.3,1054.8,72.8,1054.8,73.5z"/>
	<path class="st0" d="M1317.8,362.7c0,0.7-0.6,1.3-1.3,1.3c-0.7,0-1.3-0.6-1.3-1.3c0-0.7,0.6-1.3,1.3-1.3
		C1317.2,361.4,1317.8,362,1317.8,362.7z"/>
	<path class="st0" d="M1009.9,439.4c0,0.7-0.6,1.3-1.3,1.3c-0.7,0-1.3-0.6-1.3-1.3c0-0.7,0.6-1.3,1.3-1.3
		C1009.4,438.2,1009.9,438.7,1009.9,439.4z"/>
	<path class="st0" d="M1088.8,527.9c0,0.7-0.6,1.3-1.3,1.3c-0.7,0-1.3-0.6-1.3-1.3c0-0.7,0.6-1.3,1.3-1.3
		C1088.3,526.6,1088.8,527.2,1088.8,527.9z"/>
	<path class="st0" d="M1178.7,581.7c0,0.7-0.6,1.3-1.3,1.3c-0.7,0-1.3-0.6-1.3-1.3c0-0.7,0.6-1.3,1.3-1.3
		C1178.2,580.4,1178.7,581,1178.7,581.7z"/>
	<path class="st0" d="M1652.2,395.8c0,0.7-0.6,1.3-1.3,1.3c-0.7,0-1.3-0.6-1.3-1.3c0-0.7,0.6-1.3,1.3-1.3
		C1651.7,394.5,1652.2,395.1,1652.2,395.8z"/>
	<path class="st0" d="M1573.9,470.5c0,0.7-0.6,1.3-1.3,1.3c-0.7,0-1.3-0.6-1.3-1.3c0-0.7,0.6-1.3,1.3-1.3
		C1573.3,469.2,1573.9,469.8,1573.9,470.5z"/>
	<path class="st0" d="M1399.6,8.5c0,0.7-0.6,1.3-1.3,1.3c-0.7,0-1.3-0.6-1.3-1.3c0-0.7,0.6-1.3,1.3-1.3
		C1399,7.3,1399.6,7.8,1399.6,8.5z"/>
	<path class="st0" d="M1596.7,78.4c0,0.7-0.6,1.3-1.3,1.3c-0.7,0-1.3-0.6-1.3-1.3c0-0.7,0.6-1.3,1.3-1.3
		C1596.1,77.2,1596.7,77.7,1596.7,78.4z"/>
	<path class="st0" d="M1746.6,491.8c0,0.7-0.6,1.3-1.3,1.3c-0.7,0-1.3-0.6-1.3-1.3c0-0.7,0.6-1.3,1.3-1.3
		C1746,490.5,1746.6,491.1,1746.6,491.8z"/>
	<path class="st0" d="M1726.4,595.2c0,0.7-0.6,1.3-1.3,1.3c-0.7,0-1.3-0.6-1.3-1.3c0-0.7,0.6-1.3,1.3-1.3
		C1725.8,593.9,1726.4,594.5,1726.4,595.2z"/>
	<path class="st0" d="M957.4,117.2c0,1.4-1.1,2.5-2.5,2.5c-1.4,0-2.5-1.1-2.5-2.5c0-1.4,1.1-2.5,2.5-2.5
		C956.3,114.8,957.4,115.9,957.4,117.2z"/>
	<path class="st0" d="M1883,79.7c0,1.4-1.1,2.5-2.5,2.5c-1.4,0-2.5-1.1-2.5-2.5c0-1.4,1.1-2.5,2.5-2.5
		C1881.9,77.2,1883,78.3,1883,79.7z"/>
	<path class="st0" d="M1536.3,327c0,1.4-1.1,2.5-2.5,2.5c-1.4,0-2.5-1.1-2.5-2.5c0-1.4,1.1-2.5,2.5-2.5
		C1535.2,324.5,1536.3,325.6,1536.3,327z"/>
	<path class="st0" d="M1693,119.7c0,1.4-1.1,2.5-2.5,2.5c-1.4,0-2.5-1.1-2.5-2.5c0-1.4,1.1-2.5,2.5-2.5
		C1691.9,117.2,1693,118.3,1693,119.7z"/>
	<path class="st0" d="M1518.6,130.2c0,1.4-1.1,2.5-2.5,2.5c-1.4,0-2.5-1.1-2.5-2.5c0-1.4,1.1-2.5,2.5-2.5
		C1517.5,127.7,1518.6,128.8,1518.6,130.2z"/>
	<path class="st0" d="M1585.7,252.1c0,1.4-1.1,2.5-2.5,2.5c-1.4,0-2.5-1.1-2.5-2.5c0-1.4,1.1-2.5,2.5-2.5
		C1584.6,249.6,1585.7,250.7,1585.7,252.1z"/>
	<path class="st0" d="M1750.2,207.8c0,1.4-1.1,2.5-2.5,2.5c-1.4,0-2.5-1.1-2.5-2.5c0-1.4,1.1-2.5,2.5-2.5
		C1749.1,205.4,1750.2,206.5,1750.2,207.8z"/>
	<path class="st0" d="M1848.1,257.9c0,1.4-1.1,2.5-2.5,2.5c-1.4,0-2.5-1.1-2.5-2.5c0-1.4,1.1-2.5,2.5-2.5
		C1847,255.4,1848.1,256.5,1848.1,257.9z"/>
	<path class="st0" d="M1792.7,70.8c0,1.4-1.1,2.5-2.5,2.5c-1.4,0-2.5-1.1-2.5-2.5c0-1.4,1.1-2.5,2.5-2.5
		C1791.6,68.3,1792.7,69.4,1792.7,70.8z"/>
	<path class="st0" d="M1708.9,2.5c0,1.4-1.1,2.5-2.5,2.5c-1.4,0-2.5-1.1-2.5-2.5c0-1.4,1.1-2.5,2.5-2.5
		C1707.8,0,1708.9,1.1,1708.9,2.5z"/>
	<path class="st0" d="M1264.1,73.5c0,1.4-1.1,2.5-2.5,2.5c-1.4,0-2.5-1.1-2.5-2.5c0-1.4,1.1-2.5,2.5-2.5
		C1263,71.1,1264.1,72.2,1264.1,73.5z"/>
	<path class="st0" d="M1261.7,25.8c0,1.4-1.1,2.5-2.5,2.5c-1.4,0-2.5-1.1-2.5-2.5c0-1.4,1.1-2.5,2.5-2.5
		C1260.5,23.4,1261.7,24.5,1261.7,25.8z"/>
	<path class="st0" d="M1013.9,237.4c0,1.4-1.1,2.5-2.5,2.5c-1.4,0-2.5-1.1-2.5-2.5c0-1.4,1.1-2.5,2.5-2.5
		C1012.8,235,1013.9,236.1,1013.9,237.4z"/>
	<path class="st0" d="M1764.2,382.2c0,1.4-1.1,2.5-2.5,2.5c-1.4,0-2.5-1.1-2.5-2.5c0-1.4,1.1-2.5,2.5-2.5
		C1763.1,379.7,1764.2,380.8,1764.2,382.2z"/>
	<path class="st0" d="M1540.8,425.4c0,1.4-1.1,2.5-2.5,2.5c-1.4,0-2.5-1.1-2.5-2.5c0-1.4,1.1-2.5,2.5-2.5
		C1539.7,422.9,1540.8,424,1540.8,425.4z"/>
	<path class="st0" d="M1649.7,523c0,1.4-1.1,2.5-2.5,2.5c-1.4,0-2.5-1.1-2.5-2.5c0-1.4,1.1-2.5,2.5-2.5
		C1648.6,520.5,1649.7,521.6,1649.7,523z"/>
	<path class="st0" d="M1883,441.9c0,1.4-1.1,2.5-2.5,2.5c-1.4,0-2.5-1.1-2.5-2.5c0-1.4,1.1-2.5,2.5-2.5
		C1881.9,439.4,1883,440.5,1883,441.9z"/>
	<path class="st0" d="M1837.8,495.5c0,1.4-1.1,2.5-2.5,2.5c-1.4,0-2.5-1.1-2.5-2.5c0-1.4,1.1-2.5,2.5-2.5
		C1836.7,493,1837.8,494.1,1837.8,495.5z"/>
	<path class="st0" d="M1921.7,573.1c0,1.4-1.1,2.5-2.5,2.5c-1.4,0-2.5-1.1-2.5-2.5c0-1.4,1.1-2.5,2.5-2.5
		C1920.6,570.6,1921.7,571.7,1921.7,573.1z"/>
	<path class="st0" d="M1268.5,468c0,1.4-1.1,2.5-2.5,2.5c-1.4,0-2.5-1.1-2.5-2.5c0-1.4,1.1-2.5,2.5-2.5
		C1267.4,465.5,1268.5,466.6,1268.5,468z"/>
	<path class="st0" d="M1106.8,189.5c0,1.4-1.1,2.5-2.5,2.5c-1.4,0-2.5-1.1-2.5-2.5c0-1.4,1.1-2.5,2.5-2.5
		C1105.7,187.1,1106.8,188.2,1106.8,189.5z"/>
	<path class="st0" d="M1141.3,294.3c0,1.4-1.1,2.5-2.5,2.5c-1.4,0-2.5-1.1-2.5-2.5c0-1.4,1.1-2.5,2.5-2.5
		C1140.2,291.8,1141.3,292.9,1141.3,294.3z"/>
	<path class="st0" d="M1348.8,165.6c0,1.4-1.1,2.5-2.5,2.5c-1.4,0-2.5-1.1-2.5-2.5c0-1.4,1.1-2.5,2.5-2.5
		C1347.6,163.2,1348.8,164.3,1348.8,165.6z"/>
	<path class="st0" d="M1271,260.3c0,1.4-1.1,2.5-2.5,2.5c-1.4,0-2.5-1.1-2.5-2.5c0-1.4,1.1-2.5,2.5-2.5
		C1269.9,257.9,1271,259,1271,260.3z"/>
	<path class="st0" d="M1109.3,444.4c0,1.4-1.1,2.5-2.5,2.5c-1.4,0-2.5-1.1-2.5-2.5c0-1.4,1.1-2.5,2.5-2.5
		C1108.2,441.9,1109.3,443,1109.3,444.4z"/>
	<path class="st0" d="M954.9,324.5c0,1.4-1.1,2.5-2.5,2.5c-1.4,0-2.5-1.1-2.5-2.5c0-1.4,1.1-2.5,2.5-2.5
		C953.8,322,954.9,323.1,954.9,324.5z"/>
	<path class="st0" d="M957.4,506.8c0,1.4-1.1,2.5-2.5,2.5c-1.4,0-2.5-1.1-2.5-2.5c0-1.4,1.1-2.5,2.5-2.5
		C956.3,504.4,957.4,505.5,957.4,506.8z"/>
	<path class="st0" d="M1526.9,30.8c0,1.4-1.1,2.5-2.5,2.5c-1.4,0-2.5-1.1-2.5-2.5c0-1.4,1.1-2.5,2.5-2.5
		C1525.8,28.3,1526.9,29.4,1526.9,30.8z"/>
</g>
<g id="star">
	<path class="st0" d="M172.8,98.1c0,1.4-1.1,2.5-2.5,2.5c-1.4,0-2.5-1.1-2.5-2.5c0-1.4,1.1-2.5,2.5-2.5
		C171.7,95.6,172.8,96.7,172.8,98.1z"/>
	<path class="st0" d="M164.3,6.1c0,1.4-1.1,2.5-2.5,2.5c-1.4,0-2.5-1.1-2.5-2.5c0-1.4,1.1-2.5,2.5-2.5
		C163.1,3.6,164.3,4.7,164.3,6.1z"/>
	<path class="st0" d="M249.1,79.7c0,0.7-0.6,1.3-1.3,1.3c-0.7,0-1.3-0.6-1.3-1.3c0-0.7,0.6-1.3,1.3-1.3
		C248.6,78.4,249.1,79,249.1,79.7z"/>
	<path class="st0" d="M104.8,73.5c0,0.7-0.6,1.3-1.3,1.3c-0.7,0-1.3-0.6-1.3-1.3c0-0.7,0.6-1.3,1.3-1.3
		C104.3,72.3,104.8,72.8,104.8,73.5z"/>
	<path class="st0" d="M367.8,362.7c0,0.7-0.6,1.3-1.3,1.3c-0.7,0-1.3-0.6-1.3-1.3c0-0.7,0.6-1.3,1.3-1.3
		C367.2,361.4,367.8,362,367.8,362.7z"/>
	<path class="st0" d="M59.9,439.4c0,0.7-0.6,1.3-1.3,1.3c-0.7,0-1.3-0.6-1.3-1.3c0-0.7,0.6-1.3,1.3-1.3
		C59.4,438.2,59.9,438.7,59.9,439.4z"/>
	<path class="st0" d="M138.8,527.9c0,0.7-0.6,1.3-1.3,1.3c-0.7,0-1.3-0.6-1.3-1.3c0-0.7,0.6-1.3,1.3-1.3
		C138.3,526.6,138.8,527.2,138.8,527.9z"/>
	<path class="st0" d="M228.7,581.7c0,0.7-0.6,1.3-1.3,1.3c-0.7,0-1.3-0.6-1.3-1.3c0-0.7,0.6-1.3,1.3-1.3
		C228.2,580.4,228.7,581,228.7,581.7z"/>
	<path class="st0" d="M702.2,395.8c0,0.7-0.6,1.3-1.3,1.3c-0.7,0-1.3-0.6-1.3-1.3c0-0.7,0.6-1.3,1.3-1.3
		C701.7,394.5,702.2,395.1,702.2,395.8z"/>
	<path class="st0" d="M623.9,470.5c0,0.7-0.6,1.3-1.3,1.3c-0.7,0-1.3-0.6-1.3-1.3c0-0.7,0.6-1.3,1.3-1.3
		C623.3,469.2,623.9,469.8,623.9,470.5z"/>
	<path class="st0" d="M449.6,8.5c0,0.7-0.6,1.3-1.3,1.3c-0.7,0-1.3-0.6-1.3-1.3c0-0.7,0.6-1.3,1.3-1.3C449,7.3,449.6,7.8,449.6,8.5z
		"/>
	<path class="st0" d="M646.7,78.4c0,0.7-0.6,1.3-1.3,1.3c-0.7,0-1.3-0.6-1.3-1.3c0-0.7,0.6-1.3,1.3-1.3
		C646.1,77.2,646.7,77.7,646.7,78.4z"/>
	<path class="st0" d="M796.6,491.8c0,0.7-0.6,1.3-1.3,1.3c-0.7,0-1.3-0.6-1.3-1.3c0-0.7,0.6-1.3,1.3-1.3
		C796,490.5,796.6,491.1,796.6,491.8z"/>
	<path class="st0" d="M776.4,595.2c0,0.7-0.6,1.3-1.3,1.3c-0.7,0-1.3-0.6-1.3-1.3c0-0.7,0.6-1.3,1.3-1.3
		C775.8,593.9,776.4,594.5,776.4,595.2z"/>
	<path class="st0" d="M7.4,117.2c0,1.4-1.1,2.5-2.5,2.5c-1.4,0-2.5-1.1-2.5-2.5c0-1.4,1.1-2.5,2.5-2.5
		C6.3,114.8,7.4,115.9,7.4,117.2z"/>
	<path class="st0" d="M933,79.7c0,1.4-1.1,2.5-2.5,2.5c-1.4,0-2.5-1.1-2.5-2.5c0-1.4,1.1-2.5,2.5-2.5C931.9,77.2,933,78.3,933,79.7z
		"/>
	<path class="st0" d="M586.3,327c0,1.4-1.1,2.5-2.5,2.5c-1.4,0-2.5-1.1-2.5-2.5c0-1.4,1.1-2.5,2.5-2.5
		C585.2,324.5,586.3,325.6,586.3,327z"/>
	<path class="st0" d="M743,119.7c0,1.4-1.1,2.5-2.5,2.5c-1.4,0-2.5-1.1-2.5-2.5c0-1.4,1.1-2.5,2.5-2.5
		C741.9,117.2,743,118.3,743,119.7z"/>
	<path class="st0" d="M568.6,130.2c0,1.4-1.1,2.5-2.5,2.5c-1.4,0-2.5-1.1-2.5-2.5c0-1.4,1.1-2.5,2.5-2.5
		C567.5,127.7,568.6,128.8,568.6,130.2z"/>
	<path class="st0" d="M635.7,252.1c0,1.4-1.1,2.5-2.5,2.5c-1.4,0-2.5-1.1-2.5-2.5c0-1.4,1.1-2.5,2.5-2.5
		C634.6,249.6,635.7,250.7,635.7,252.1z"/>
	<path class="st0" d="M800.2,207.8c0,1.4-1.1,2.5-2.5,2.5c-1.4,0-2.5-1.1-2.5-2.5c0-1.4,1.1-2.5,2.5-2.5
		C799.1,205.4,800.2,206.5,800.2,207.8z"/>
	<path class="st0" d="M898.1,257.9c0,1.4-1.1,2.5-2.5,2.5c-1.4,0-2.5-1.1-2.5-2.5c0-1.4,1.1-2.5,2.5-2.5
		C897,255.4,898.1,256.5,898.1,257.9z"/>
	<path class="st0" d="M842.7,70.8c0,1.4-1.1,2.5-2.5,2.5c-1.4,0-2.5-1.1-2.5-2.5c0-1.4,1.1-2.5,2.5-2.5
		C841.6,68.3,842.7,69.4,842.7,70.8z"/>
	<path class="st0" d="M758.9,2.5c0,1.4-1.1,2.5-2.5,2.5c-1.4,0-2.5-1.1-2.5-2.5c0-1.4,1.1-2.5,2.5-2.5C757.8,0,758.9,1.1,758.9,2.5z
		"/>
	<path class="st0" d="M314.1,73.5c0,1.4-1.1,2.5-2.5,2.5c-1.4,0-2.5-1.1-2.5-2.5c0-1.4,1.1-2.5,2.5-2.5
		C313,71.1,314.1,72.2,314.1,73.5z"/>
	<path class="st0" d="M311.7,25.8c0,1.4-1.1,2.5-2.5,2.5c-1.4,0-2.5-1.1-2.5-2.5c0-1.4,1.1-2.5,2.5-2.5
		C310.5,23.4,311.7,24.5,311.7,25.8z"/>
	<path class="st0" d="M63.9,237.4c0,1.4-1.1,2.5-2.5,2.5c-1.4,0-2.5-1.1-2.5-2.5c0-1.4,1.1-2.5,2.5-2.5
		C62.8,235,63.9,236.1,63.9,237.4z"/>
	<path class="st0" d="M814.2,382.2c0,1.4-1.1,2.5-2.5,2.5c-1.4,0-2.5-1.1-2.5-2.5c0-1.4,1.1-2.5,2.5-2.5
		C813.1,379.7,814.2,380.8,814.2,382.2z"/>
	<path class="st0" d="M590.8,425.4c0,1.4-1.1,2.5-2.5,2.5c-1.4,0-2.5-1.1-2.5-2.5c0-1.4,1.1-2.5,2.5-2.5
		C589.7,422.9,590.8,424,590.8,425.4z"/>
	<path class="st0" d="M699.7,523c0,1.4-1.1,2.5-2.5,2.5c-1.4,0-2.5-1.1-2.5-2.5c0-1.4,1.1-2.5,2.5-2.5
		C698.6,520.5,699.7,521.6,699.7,523z"/>
	<path class="st0" d="M933,441.9c0,1.4-1.1,2.5-2.5,2.5c-1.4,0-2.5-1.1-2.5-2.5c0-1.4,1.1-2.5,2.5-2.5
		C931.9,439.4,933,440.5,933,441.9z"/>
	<path class="st0" d="M887.8,495.5c0,1.4-1.1,2.5-2.5,2.5c-1.4,0-2.5-1.1-2.5-2.5c0-1.4,1.1-2.5,2.5-2.5
		C886.7,493,887.8,494.1,887.8,495.5z"/>
	<path class="st0" d="M971.7,573.1c0,1.4-1.1,2.5-2.5,2.5c-1.4,0-2.5-1.1-2.5-2.5c0-1.4,1.1-2.5,2.5-2.5
		C970.6,570.6,971.7,571.7,971.7,573.1z"/>
	<path class="st0" d="M318.5,468c0,1.4-1.1,2.5-2.5,2.5c-1.4,0-2.5-1.1-2.5-2.5c0-1.4,1.1-2.5,2.5-2.5
		C317.4,465.5,318.5,466.6,318.5,468z"/>
	<path class="st0" d="M156.8,189.5c0,1.4-1.1,2.5-2.5,2.5c-1.4,0-2.5-1.1-2.5-2.5c0-1.4,1.1-2.5,2.5-2.5
		C155.7,187.1,156.8,188.2,156.8,189.5z"/>
	<path class="st0" d="M191.3,294.3c0,1.4-1.1,2.5-2.5,2.5c-1.4,0-2.5-1.1-2.5-2.5c0-1.4,1.1-2.5,2.5-2.5
		C190.2,291.8,191.3,292.9,191.3,294.3z"/>
	<path class="st0" d="M398.8,165.6c0,1.4-1.1,2.5-2.5,2.5c-1.4,0-2.5-1.1-2.5-2.5c0-1.4,1.1-2.5,2.5-2.5
		C397.6,163.2,398.8,164.3,398.8,165.6z"/>
	<path class="st0" d="M321,260.3c0,1.4-1.1,2.5-2.5,2.5c-1.4,0-2.5-1.1-2.5-2.5c0-1.4,1.1-2.5,2.5-2.5
		C319.9,257.9,321,259,321,260.3z"/>
	<path class="st0" d="M159.3,444.4c0,1.4-1.1,2.5-2.5,2.5c-1.4,0-2.5-1.1-2.5-2.5c0-1.4,1.1-2.5,2.5-2.5
		C158.2,441.9,159.3,443,159.3,444.4z"/>
	<path class="st0" d="M4.9,324.5c0,1.4-1.1,2.5-2.5,2.5c-1.4,0-2.5-1.1-2.5-2.5c0-1.4,1.1-2.5,2.5-2.5C3.8,322,4.9,323.1,4.9,324.5z
		"/>
	<path class="st0" d="M7.4,506.8c0,1.4-1.1,2.5-2.5,2.5c-1.4,0-2.5-1.1-2.5-2.5c0-1.4,1.1-2.5,2.5-2.5
		C6.3,504.4,7.4,505.5,7.4,506.8z"/>
	<path class="st0" d="M576.9,30.8c0,1.4-1.1,2.5-2.5,2.5c-1.4,0-2.5-1.1-2.5-2.5c0-1.4,1.1-2.5,2.5-2.5
		C575.8,28.3,576.9,29.4,576.9,30.8z"/>
</g>
</svg>
