<svg xmlns="http://www.w3.org/2000/svg" viewBox="0 0 1128.11 624.94" id="whale">
  <title>whale6_1</title>
  <g id="Layer_2" data-name="Layer 2">
    <g id="Layer_1-2" data-name="Layer 1">
      <g>
        <g>
          <path d="M1108.36,59.31c-23.45-14.45-53.83-2.15-78,11.07Q985,95.18,941.93,123.87c-9.25-20.48-12.09-43.15-18.44-64.68S906,15.84,886.07,5.16,836.33.56,828.59,21.64c-3.53,9.6-2,20.3.83,30.11,16.09,54.91,70.38,89.52,99.63,138.8a195.85,195.85,0,0,1,21.56,54.36c1.17,4.88,2.16,10.13.36,14.82-1.59,4.12-5.12,7.18-8.7,9.81-47.69,35-117.12,19.6-166.41-13.19S688.63,176.24,640,142.44C569.71,93.52,481.82,76.15,396.09,70.51c-66.7-4.39-135.5-2.08-197.53,22.62-66.11,26.32-120.8,77.28-157,138.09-39,65.57-56.54,149.12-26.1,218.4,93.36,55.81,215.39,44.51,320.79,55.86-91.68,5.68-187.7,17.06-279.31,2.77,26.78,25.82,60.74,44.95,96.28,57C208.9,584.15,268.62,587.54,327.46,588A1741.84,1741.84,0,0,0,558,575c48.11-6,96.44-10.07,144.58-15.87,40-4.82,75.27-17.65,114.22-24.15,71.2-11.88,138-41.37,179.15-101.44q4.7-6.85,8.94-14.24c26.89-46.86,11.46-110.61-1.6-159.68-7.36-27.63-13.1-63,10.37-79.6,9.91-7,22.62-8.37,34.6-10.52,26.89-4.83,54.42-15.91,69.89-38.23S1131.57,73.61,1108.36,59.31Z" style="fill: #95a5d5"/>
          <path d="M279.35,406.12a10.64,10.64,0,0,0-6.55,6.79,14.44,14.44,0,0,0-.06,8.65c1.59,4.21,6.17,8,11.06,6.22,3.46-1.26,6.75-2.69,9.34-5.37a14.32,14.32,0,0,0,2.49-16.54,15.6,15.6,0,0,0-9.66-7.62,14.48,14.48,0,0,0-16.21,6.52c-4.43,7-.1,16.49,7.64,18.6,7.9,2.15,16.26-4,16.17-12.21v-.32l-.45,3.34a1.61,1.61,0,0,1,.14-.56l-1.26,3,.13-.23-1.94,2.49a1.66,1.66,0,0,1,.38-.38l-2.48,1.9a2.14,2.14,0,0,1,.49-.27l-2.89,1.21a2.42,2.42,0,0,1,.58-.15l-3.17.42a3.71,3.71,0,0,1,.65,0l-3.14-.42a5.38,5.38,0,0,1,1.31.35l-2.75-1.15a3.72,3.72,0,0,1,.59.33l-2.3-1.76a4.2,4.2,0,0,1,.71.69l-1.75-2.24a2.39,2.39,0,0,1,.31.57l-1.11-2.62a3.14,3.14,0,0,1,.17.78l-.39-2.87a4.45,4.45,0,0,1,0,.93l.38-2.82c-.06.42-.31.95-.34,1.35.12-1.67,1-2,.23-.69-.24.41-.62.79-.82,1.21l.85-1.11-.65.76,6.36-2.61a2.35,2.35,0,0,1-.69,0s2.21.5,1.22.12c-.11,0,3.12,2.12,2.08,1.09.39.39.76,1.17.3.25-.35-.71.54,1.11.18.39-.25-.5.13-.58-.09-.2q.07.62.05.16t0,.1c-.18.91.38-.83-.12.27a4.39,4.39,0,0,0-.34-4.82,4.35,4.35,0,0,0-4.6-1.55Z" style="fill: #1d1d1b"/>
          <path d="M463.13,578.42c14.7,16,33.35,28.31,51.73,34.34,20.07,6.58,41.17,9.4,62.13,12.18l-15.17-42c-4.05-11.21-8.21-22.6-15.41-32.12-23.95-31.64-69.66-59.22-109.78-55.2C429.09,525.29,442.06,555.55,463.13,578.42Z" style="fill: #5e6baf"/>
          <path d="M197.43,145.71c-19-8.76-33.47,14.35-23,30.09,11.68,17.54,39.82,14.09,47.29-5.51,7.24-19-10.74-39.87-30.83-34-9.93,2.92-18.15,11.74-18.51,22.25-.37,11,7.3,21.34,17.83,24.61C202.54,187,218,179.29,215.79,165c-2.43-15.56-18.52-17.82-31.44-15.12-8.52,1.78-9.67,12.19-4.76,17.86,7.75,8.94,26.27,5.89,28-6.85,1.25-8.95-9.31-18-16.95-9.78-1.64,1.77-3.35,3.4-4.91,5.24-6.54,7.74,1.5,18.91,11,14.1,2.15-1.09,4.12-2.37,6.21-3.56L189.1,153.13c.82-1.31,4.71-1.68,5.74-.51l-4.76,17.86c1.15-.26,4.47-.36,5.42-1a6.5,6.5,0,0,0,1.24-6.07q-.16-.56-1-.45c-1.38-2.06-3.6-2.71-2-5.56,3.33-6,10.55-1.52,11.51,3.49,1.44,7.54-7.67,12.17-14.1,9.93-10-3.48-8.58-19.51,3.13-17.65,4.21.67,7.82-5.37,3.19-7.5Z" style="fill: #c0cfeb"/>
          <path d="M251.34,151.93a5.46,5.46,0,0,0,4.06,5.59,7.68,7.68,0,0,0,5.44-.82,7.57,7.57,0,0,0,3.66-4.33,6.42,6.42,0,0,0-3.18-7.37,5.73,5.73,0,0,0-7.88,7.81,5.77,5.77,0,0,0,5,2.83h.11l-1.53-.2a1.87,1.87,0,0,1,.38.1L256,155l.2.13-1.14-.87.1.1-.87-1.12a1,1,0,0,1,.11.18l-.56-1.31a1.15,1.15,0,0,1,.05.2l-.2-1.45a1.48,1.48,0,0,1,0,.3l.19-1.43a2.26,2.26,0,0,1-.12.41l.54-1.27a3.45,3.45,0,0,1-.44.75l.81-1a3.89,3.89,0,0,1-.63.63l1-.77a2.81,2.81,0,0,1-.47.28l1.17-.49a1.7,1.7,0,0,1-.38.11l1.28-.17h-.22l1.27.17-.2-.05,1.13.47-.13-.07,1,.73a1.17,1.17,0,0,1-.17-.16l.73.93a1.57,1.57,0,0,1-.18-.32l.46,1.08a2,2,0,0,1-.07-.21,4.55,4.55,0,0,0-5-3.22,4.32,4.32,0,0,0-2.6,1.23,5.12,5.12,0,0,0-1.33,3.18Z" style="fill: #c0cfeb"/>
        </g>
        <text transform="translate(244.93 325.07) scale(1.01 1)" style="font-size: 120px;fill: #fff;stroke: #fff;stroke-miterlimit: 10;stroke-width: 3px;font-family: HanaleiFill-Regular, Hanalei Fill">Our Previous <tspan x="90.89" y="156">S</tspan><tspan x="144.04" y="156" style="letter-spacing: -0.006351186793661547em">p</tspan><tspan x="204.86" y="156">on</tspan><tspan x="350.17" y="156" style="font-size: 130px">sors</tspan></text>
      </g>
    </g>
  </g>
</svg>
