<svg xmlns="http://www.w3.org/2000/svg" viewBox="0 0 1922.72 1080">
  <defs>
    <style>
      .cls-1 {
        isolation: isolate;
      }

      .cls-2 {
        fill: #01bcff;
      }

      .cls-3 {
        fill: #018dff;
      }

      .cls-4 {
        fill: #33c8ff;
      }

      .cls-5 {
        font-size: 16.2px;
        font-family: MyriadPro-Regular, Myriad Pro;
      }

      .cls-6 {
        fill: #ffde75;
      }

      .cls-7 {
        fill: #003b3c;
      }

      .cls-8 {
        fill: #003738;
      }

      .cls-9 {
        fill: #002d2e;
      }

      .cls-10 {
        fill: #e2e3e4;
      }

      .cls-11 {
        fill: #cacbcd;
      }

      .cls-12, .cls-48, .cls-49 {
        fill: #fff;
      }

      .cls-13 {
        fill: #ebebec;
      }

      .cls-14 {
        fill: #ba2521;
      }

      .cls-15 {
        fill: #a01f1d;
      }

      .cls-16 {
        fill: #d32b27;
      }

      .cls-17 {
        fill: #b72420;
      }

      .cls-18 {
        fill: #b3231f;
      }

      .cls-19 {
        fill: #e6e7e8;
      }

      .cls-20 {
        fill: #ba2625;
      }

      .cls-21 {
        fill: #530000;
      }

      .cls-22 {
        fill: #7b1315;
      }

      .cls-23 {
        fill: #720e0f;
      }

      .cls-24 {
        fill: #9a1c16;
      }

      .cls-25 {
        fill: #82120a;
      }

      .cls-26 {
        fill: #be2827;
      }

      .cls-27 {
        fill: #7e7c7f;
      }

      .cls-28 {
        fill: #414244;
      }

      .cls-29 {
        fill: #414042;
      }

      .cls-30 {
        fill: #821227;
      }

      .cls-31 {
        fill: #be2622;
      }

      .cls-32 {
        fill: #464736;
      }

      .cls-33 {
        fill: #3c3d2e;
      }

      .cls-34 {
        fill: #50513d;
      }

      .cls-35 {
        fill: #8c1d19;
      }

      .cls-36 {
        fill: #ab231f;
      }

      .cls-37 {
        fill: #cf2a26;
      }

      .cls-38 {
        fill: #ecffa0;
        opacity: 0.3;
        mix-blend-mode: overlay;
      }

      .cls-39 {
        fill: #fbf7c0;
      }

      .cls-40 {
        opacity: 0.68;
      }

      .cls-41 {
        fill: #e0e0e0;
      }

      .cls-42 {
        fill: #0d536b;
        opacity: 0.85;
      }

      .cls-43 {
        fill: #063a52;
      }

      .cls-44 {
        fill: #d00c01;
      }

      .cls-45 {
        fill: #a5a5a5;
      }

      .cls-46 {
        fill: #babcbe;
      }

      .cls-46, .cls-47 {
        mix-blend-mode: multiply;
      }

      .cls-47 {
        fill: #e4e5e6;
      }

      .cls-48 {
        font-size: 45.05px;
        font-family: HanaleiFill-Regular, Hanalei Fill;
      }

      .cls-49 {
        font-size: 54.92px;
        opacity: 0.99;
      }

      .cls-49, .cls-50 {
        font-family: CoveredByYourGrace, Covered By Your Grace;
      }

      .cls-50 {
        font-size: 28.9px;
        fill: #f0f5f7;
      }
    </style>
  </defs>
  <title>Untitled-2</title>
  <g class="cls-1">
    <g id="Layer_1" data-name="Layer 1">
      <rect class="cls-2" x="2.72" y="747.1" width="1920" height="332.9"/>
      <path class="cls-3" d="M1412.11,824.11H1381.3A13.06,13.06,0,0,1,1368.47,811a12.84,12.84,0,0,0-12.84-12.84h-39.86a12.83,12.83,0,0,1,2.56-25.41h113.51a12.84,12.84,0,0,0,0-25.67H606.93a12.84,12.84,0,0,0-12.84,12.83,12.83,12.83,0,0,1-12.83,12.84H570.65a12.84,12.84,0,1,0,0,25.67H608a12.84,12.84,0,0,1,12.83,12.83.49.49,0,0,1,0-.12,12.83,12.83,0,0,0,12.83,12.7h30.8a13.06,13.06,0,0,1,12.83,13.09,12.84,12.84,0,0,0,12.84,12.84h36.62a12.83,12.83,0,0,1,12.83,12.83,12.84,12.84,0,0,0,12.84,12.84h154.1a12.84,12.84,0,0,1,12.84,12.83,12.83,12.83,0,0,0,12.83,12.84h124.93a12.84,12.84,0,0,0,12.84-12.84,12.83,12.83,0,0,1,12.83-12.83H1205a12.83,12.83,0,0,0,12.83-12.84,12.84,12.84,0,0,1,12.84-12.83h181.46a12.84,12.84,0,0,0,0-25.67Z"/>
      <path class="cls-4" d="M591.39,864.05a12.66,12.66,0,0,1-12.67,12.66H492.13a12.66,12.66,0,0,1-12.67-12.66h0a12.66,12.66,0,0,1,12.67-12.66h86.59a12.66,12.66,0,0,1,12.67,12.66Z"/>
      <path class="cls-4" d="M621.5,954.41a12.66,12.66,0,0,1-12.66,12.66H522.25a12.66,12.66,0,0,1-12.67-12.66h0a12.66,12.66,0,0,1,12.67-12.66h86.59a12.66,12.66,0,0,1,12.66,12.66Z"/>
      <path class="cls-4" d="M913.86,954.41a12.66,12.66,0,0,1-12.66,12.66H814.61a12.66,12.66,0,0,1-12.67-12.66h0a12.66,12.66,0,0,1,12.67-12.66H901.2a12.66,12.66,0,0,1,12.66,12.66Z"/>
      <path class="cls-4" d="M1077,954.41a12.66,12.66,0,0,1-12.66,12.66h-47.19a12.66,12.66,0,0,1-12.66-12.66h0a12.65,12.65,0,0,1,12.66-12.66h47.19A12.66,12.66,0,0,1,1077,954.41Z"/>
      <path class="cls-4" d="M1449.17,889.38A12.67,12.67,0,0,1,1436.5,902h-86.59a12.66,12.66,0,0,1-12.67-12.66h0a12.67,12.67,0,0,1,12.67-12.67h86.59a12.67,12.67,0,0,1,12.67,12.67Z"/>
      <path class="cls-4" d="M1419.05,967.07a12.67,12.67,0,0,1-12.67,12.67h-86.59a12.66,12.66,0,0,1-12.66-12.67h0a12.66,12.66,0,0,1,12.66-12.66h86.59a12.66,12.66,0,0,1,12.67,12.66Z"/>
      <path class="cls-4" d="M799.62,913.78A12.66,12.66,0,0,1,787,926.45H643.38a12.66,12.66,0,0,1-12.66-12.67h0a12.66,12.66,0,0,1,12.66-12.66H787a12.66,12.66,0,0,1,12.66,12.66Z"/>
      <path class="cls-4" d="M1282,926.45a12.66,12.66,0,0,1-12.66,12.66H1125.77a12.66,12.66,0,0,1-12.66-12.66h0a12.66,12.66,0,0,1,12.66-12.67h143.58A12.66,12.66,0,0,1,1282,926.45Z"/>
      <text class="cls-5" transform="translate(668.12 778.12)">`</text>
      <path class="cls-6" d="M1254.41,759.87h-50.57l21.46,8.76-8.78,13.47-23,7.78-126.84-4.18-42.52,13.09-70.28-10-100,7.76-55.7-14.4-35,11.7-63.68-8.1L670.22,781,661,771.75l3.4-11.88H639.64a13,13,0,0,0,0,26h32.7a13,13,0,0,1,13,13,13,13,0,0,0,13,13H876.21a13,13,0,0,1,13,13,13,13,0,0,0,13,13H1110a13,13,0,0,0,13-13,13,13,0,0,1,13-13h59.84a13,13,0,0,0,13-13,13,13,0,0,1,13-13h32.7a13,13,0,0,0,0-26Z"/>
      <rect id="background" class="cls-7" x="2.72" width="1920" height="747.1"/>
      <g>
        <path class="cls-8" d="M422.72,404.44H729.81a10.51,10.51,0,1,0,0-21H422.72Z"/>
        <path class="cls-8" d="M1321.78,277.18h180.94v-21H1321.78a10.51,10.51,0,0,0,0,21Z"/>
        <path class="cls-8" d="M422.72,311.59H603.67a10.51,10.51,0,0,0,0-21H422.72Z"/>
        <path class="cls-8" d="M1225,338.92h277.73v-21H1225a10.52,10.52,0,0,0,0,21Z"/>
        <path class="cls-8" d="M704.23,449.29a10.51,10.51,0,0,1,10.51-10.51H843.2a10.52,10.52,0,0,1,10.51,10.51h0A10.51,10.51,0,0,1,843.2,459.8H714.74a10.5,10.5,0,0,1-10.51-10.51Z"/>
        <path class="cls-8" d="M1025.55,211.15a10.52,10.52,0,0,1,10.51-10.51h128.47A10.52,10.52,0,0,1,1175,211.15h0a10.51,10.51,0,0,1-10.51,10.51H1036.06a10.51,10.51,0,0,1-10.51-10.51Z"/>
        <path class="cls-8" d="M497.11,617.29a10.52,10.52,0,0,1,10.51-10.51H636.09a10.52,10.52,0,0,1,10.51,10.51h0a10.51,10.51,0,0,1-10.51,10.51H507.62a10.51,10.51,0,0,1-10.51-10.51Z"/>
        <path class="cls-8" d="M553.65,203.67a10.52,10.52,0,0,1,10.51-10.51H692.63a10.52,10.52,0,0,1,10.51,10.51h0a10.52,10.52,0,0,1-10.51,10.52H564.16a10.52,10.52,0,0,1-10.51-10.52Z"/>
        <path class="cls-8" d="M888,376a10.51,10.51,0,0,1,10.51-10.51H1027A10.51,10.51,0,0,1,1037.46,376h0A10.51,10.51,0,0,1,1027,386.46H898.49A10.51,10.51,0,0,1,888,376Z"/>
        <path class="cls-8" d="M1135.83,466.61a10.51,10.51,0,0,1,10.51-10.51H1274.8a10.51,10.51,0,0,1,10.51,10.51h0a10.5,10.5,0,0,1-10.51,10.51H1146.34a10.5,10.5,0,0,1-10.51-10.51Z"/>
        <path class="cls-8" d="M752.24,555.83a10.5,10.5,0,0,1,10.51-10.51H980.5A10.5,10.5,0,0,1,991,555.83h0a10.51,10.51,0,0,1-10.51,10.51H762.75a10.51,10.51,0,0,1-10.51-10.51Z"/>
      </g>
      <g>
        <path class="cls-9" d="M815.37,388.18a16.21,16.21,0,0,0-6.64,1.43,21,21,0,0,0-41.22-.4h-.39a15.22,15.22,0,1,0,12.45,23.95,14.22,14.22,0,0,0,5.75,5.55A14,14,0,0,0,803,414.86a16.23,16.23,0,1,0,12.42-26.68Z"/>
        <path class="cls-9" d="M1236.61,299.22a23.69,23.69,0,0,0-9.71,2.09,30.64,30.64,0,0,0-60.27-.58c-.19,0-.37,0-.57,0a22.26,22.26,0,1,0,18.21,35,20.56,20.56,0,0,0,34.19,2.5,23.73,23.73,0,1,0,18.15-39Z"/>
        <path class="cls-9" d="M976.63,98.54a29.77,29.77,0,0,0-12.2,2.63,38.49,38.49,0,0,0-75.72-.73c-.23,0-.46,0-.71,0a28,28,0,1,0,22.87,44,25.89,25.89,0,0,0,10.57,10.17,25.67,25.67,0,0,0,32.38-7,29.81,29.81,0,1,0,22.81-49Z"/>
        <path class="cls-9" d="M752.08,235a22.26,22.26,0,0,0-9.1,1.95,28.72,28.72,0,0,0-56.49-.54c-.18,0-.35,0-.53,0a20.86,20.86,0,1,0,17,32.83,19.5,19.5,0,0,0,7.89,7.6,19.15,19.15,0,0,0,24.16-5.26,22.24,22.24,0,1,0,17-36.55Z"/>
      </g>
      <polygon class="cls-9" points="1171.44 738.1 1114.25 710.96 1090.99 678 1046.21 618.06 1020.77 575.55 954.32 607.25 951.08 545.32 906.81 588.15 851.85 581.08 794.39 630.51 777.91 661.52 721.07 668.25 708.13 701.26 688.74 739.07 674.27 752.62 679.22 774.9 700.15 767.58 732.42 767.58 758.01 767.58 834.65 767.58 853.79 767.58 923.48 767.58 946.91 767.58 1020.06 767.58 1079.3 767.58 1100.36 767.58 1146.78 767.58 1186.18 767.58 1171.44 738.1"/>
      <g>
        <polygon class="cls-10" points="974.46 259.56 944.29 259.56 909.92 259.56 909.92 261.86 974.48 262.04 974.46 259.56"/>
        <polygon class="cls-11" points="978.67 262.05 978.67 259.56 974.46 259.56 974.48 262.04 978.67 262.05"/>
        <polygon class="cls-12" points="909.92 261.86 909.92 316.49 909.38 323.74 974.78 323.74 974.48 262.04 909.92 261.86"/>
        <polygon class="cls-13" points="978.67 316.49 978.67 262.05 974.48 262.04 974.78 323.74 979.21 323.74 978.67 316.49"/>
        <g>
          <polygon class="cls-14" points="1001.7 625.99 998.46 582.43 994.98 535.62 990.92 481.06 987.43 434.25 978.39 434.25 985.12 626.22 1001.7 625.99"/>
          <polygon class="cls-15" points="985.12 626.22 985.26 630.14 1002.01 630.14 1001.7 625.99 985.12 626.22"/>
          <polygon class="cls-16" points="978.39 434.25 901.15 434.25 899.82 452.15 896.96 490.63 893.04 543.26 888.9 598.87 886.76 627.63 985.12 626.22 978.39 434.25"/>
          <polygon class="cls-17" points="886.76 627.63 886.58 630.14 913.13 630.14 944.29 630.14 957.14 630.14 985.26 630.14 985.12 626.22 886.76 627.63"/>
        </g>
        <polygon class="cls-15" points="979.89 332.88 979.25 324.19 979.21 323.74 974.51 323.74 974.83 332.78 979.89 332.88"/>
        <polygon class="cls-14" points="979.89 332.88 974.83 332.78 976.07 368.13 982.51 368.13 981.73 357.55 979.89 332.88"/>
        <polygon class="cls-16" points="908.8 331.53 906.07 368.13 976.07 368.13 974.83 332.78 908.8 331.53"/>
        <polygon class="cls-18" points="974.51 323.74 956.82 323.74 909.38 323.74 908.8 331.53 974.83 332.78 974.51 323.74"/>
        <polygon class="cls-19" points="978.39 434.25 987.43 434.25 984.14 389.94 982.51 368.13 976.07 368.13 978.39 434.25"/>
        <polygon class="cls-12" points="976.07 368.13 906.07 368.13 904.91 383.69 902.77 412.51 901.15 434.25 978.39 434.25 976.07 368.13"/>
        <path class="cls-20" d="M946.19,557.33c-.32,0-.64,0-1,0a24.44,24.44,0,0,1,23.47,24.39v48.4h1.89v-48.4A24.45,24.45,0,0,0,946.19,557.33Z"/>
        <path class="cls-12" d="M945.24,557.36c-.31,0-.63,0-1,0a24.45,24.45,0,0,0-24.42,24.42v48.4h48.84v-48.4A24.44,24.44,0,0,0,945.24,557.36Z"/>
        <path class="cls-21" d="M962.09,630.15v-48.4a17.8,17.8,0,0,0-35.59,0v48.4Z"/>
        <path class="cls-22" d="M909.63,324.45H892.72s1.18,6.07,7,7.33c0,0,8,1.58,9.89,5.84l1-13.17Z"/>
        <path class="cls-23" d="M978.94,324.45h16.92s-1.19,6.07-7,7.33c0,0-8,1.58-9.9,5.84l-1-13.17Z"/>
        <rect class="cls-24" x="941.34" y="222.58" width="5.91" height="10.88"/>
        <rect class="cls-12" x="879.95" y="630.15" width="128.68" height="13.25" rx="3.21" ry="3.21"/>
        <path class="cls-25" d="M919,326.11v12.67a2.19,2.19,0,1,0,4.38,0V326.11Z"/>
        <path class="cls-25" d="M942.11,326.11v12.67a2.19,2.19,0,1,0,4.37,0V326.11Z"/>
        <path class="cls-25" d="M965.17,326.11v12.67a2.19,2.19,0,1,0,4.38,0V326.11Z"/>
        <path class="cls-20" d="M946.19,449.84c-.32,0-.64,0-1,.05a14,14,0,0,1,0,28c.31,0,.63.05,1,.05a14,14,0,0,0,0-28.07Z"/>
        <path class="cls-12" d="M945.24,449.89c-.31,0-.63-.05-1-.05a14,14,0,0,0,0,28.07c.32,0,.64,0,1-.05a14,14,0,0,0,0-28Z"/>
        <path class="cls-21" d="M952.34,463.88a8,8,0,1,1-8.05-8.05A8,8,0,0,1,952.34,463.88Z"/>
        <path class="cls-12" d="M998.7,323.74a2.37,2.37,0,0,1-2.37,2.37H892.25a2.37,2.37,0,0,1-2.36-2.37h0a2.36,2.36,0,0,1,2.36-2.36H996.33a2.36,2.36,0,0,1,2.37,2.36Z"/>
        <path class="cls-16" d="M939.43,231.77a32.8,32.8,0,0,0-26.6,23.32h53C964,242.72,952,233.75,939.43,231.77Z"/>
        <path class="cls-26" d="M944.29,231.41a33.9,33.9,0,0,0-4.86.36c12.58,2,24.58,10.95,26.37,23.32h10A32.76,32.76,0,0,0,944.29,231.41Z"/>
        <path class="cls-12" d="M981.67,257.39A2.64,2.64,0,0,1,979,260H909.56a2.64,2.64,0,0,1-2.64-2.64h0a2.64,2.64,0,0,1,2.64-2.64H979a2.64,2.64,0,0,1,2.64,2.64Z"/>
        <path class="cls-27" d="M969.55,268.7a6.65,6.65,0,0,0-1,.09,6.82,6.82,0,0,1,5.82,6.75v21.34a6.83,6.83,0,0,1-5.82,6.75,6.66,6.66,0,0,0,1,.08,6.83,6.83,0,0,0,6.83-6.83V275.54A6.83,6.83,0,0,0,969.55,268.7Z"/>
        <path class="cls-28" d="M974.36,296.88V275.54a5.88,5.88,0,1,0-11.64,0v21.34a5.88,5.88,0,1,0,11.64,0Z"/>
        <path class="cls-29" d="M992.19,296.34H896.38a4.28,4.28,0,0,0-4.28,4.28v20.76H996.47V300.62A4.28,4.28,0,0,0,992.19,296.34Zm3,4.28V302H987v-4.44h5.15A3.06,3.06,0,0,1,995.24,300.62Zm-45.54,7.07H938.89v-4.45H949.7Zm1.23-4.45h10.8v4.45h-10.8Zm-13.27,4.45h-10.8v-4.45h10.8Zm-12,0H914.82v-4.45h10.81Zm0,1.23v4.45H914.82v-4.45Zm1.23,0h10.8v4.45h-10.8Zm12,0H949.7v4.45H938.89Zm12,0h10.8v4.45h-10.8Zm12,0h10.81v4.45H963Zm0-1.23v-4.45h10.81v4.45Zm12-4.45h10.81v4.45H975Zm0-1.23v-4.44h10.81V302Zm-1.23,0H963v-4.44h10.81Zm-12,0h-10.8v-4.44h10.8Zm-12,0H938.89v-4.44H949.7Zm-12,0h-10.8v-4.44h10.8Zm-12,0H914.82v-4.44h10.81Zm-12,0H902.78v-4.44h10.81Zm0,1.23v4.45H902.78v-4.45Zm-12,4.45h-8.22v-4.45h8.22Zm0,1.23v4.45h-8.22v-4.45Zm1.23,0h10.81v4.45H902.78Zm10.81,5.67v5.56H902.78v-5.56Zm1.23,0h10.81v5.56H914.82Zm12,0h10.8v5.56h-10.8Zm12,0H949.7v5.56H938.89Zm12,0h10.8v5.56h-10.8Zm12,0h10.81v5.56H963Zm12,0h10.81v5.56H975Zm0-1.22v-4.45h10.81v4.45Zm12-4.45h8.2v4.45H987Zm0-1.23v-4.45h8.2v4.45Zm-90.66-10.12h5.17V302h-8.22v-1.39A3.06,3.06,0,0,1,896.38,297.57Zm-3,17h8.22v5.56h-8.22ZM987,320.15v-5.56h8.2v5.56Z"/>
        <path class="cls-30" d="M944.29,204.13"/>
        <path class="cls-16" d="M944.29,215.48V204.13l-1.21,10.66a5.56,5.56,0,1,0,2.64,10.79C950.43,219.81,944.29,215.48,944.29,215.48Z"/>
        <path class="cls-31" d="M949.85,220.21a5.55,5.55,0,0,0-4.34-5.42l-1.22-10.66v11.35s6.14,4.33,1.43,10.1A5.55,5.55,0,0,0,949.85,220.21Z"/>
      </g>
      <g>
        <polygon class="cls-32" points="1035.89 679.19 1052.63 683.11 1062.85 671.16 1052.63 608.72 1008.63 640.18 1035.89 664.27 1035.89 679.19"/>
        <polygon class="cls-32" points="1119.75 689.61 1102.54 630.14 1074.32 698.12 1119.75 689.61"/>
        <polygon class="cls-32" points="879.96 640.18 823.75 625.99 869.52 745.73 879.96 640.18"/>
        <polygon class="cls-32" points="1061.7 702.71 1063.42 719.92 1046.21 736.07 1111.15 736.07 1104.26 710.26 1074.32 698.12 1061.7 702.71"/>
        <polygon class="cls-33" points="1104.26 710.26 1119.75 689.61 1074.32 698.12 1104.26 710.26"/>
        <polygon class="cls-32" points="1188.48 745.73 1136.85 745.73 1122.51 741.14 1103.01 741.14 1082.98 749.75 1065.14 749.75 1049.08 760.65 1062.85 772.92 1060.6 782.54 1203.92 788.85 1188.48 745.73"/>
        <polygon class="cls-32" points="1012.37 770.4 1002.01 754.91 973.47 752.62 960.39 782.54 1037.87 792.45 1033.59 774.99 1012.37 770.4"/>
        <path class="cls-34" d="M1049.08,760.65l16.06-10.9H1083l20-8.61h19.5l14.34,4.59h51.63l-77.33-9.66h-64.94l17.21-16.15-1.72-17.21,12.62-4.59,28.22-68-49.91-21.43,10.22,62.44-10.22,12-16.74-3.92V664.27l-27.26-24.09H880L869.52,745.73,823.75,626l-45.93,10.8,3.35,17.73h20.66l8.6,48.76-21.8,13.77-1.15,28.68,18.93,18.65-1,14.12,85.72,14,69.22-9.91,13.08-29.92,28.54,2.29,10.36,15.49,21.22,4.59,4.28,17.46,22.73-9.91,2.25-9.62Zm-212.26,3.73-18.36-18.65V727.38l11.48-10.33,5.73,10.33,5.74,13.76ZM926.5,767l-12.23-9.18L918,732.54l-11.18-18.36V676.89l22.37-22.37,16.06,6.88L926.5,703.28l9.42,29.83ZM998,721.06l-29.31,6.32-23.47-31.75,12.68-21,27.2-13.77.14,28.11,16.44,12Z"/>
        <polygon class="cls-32" points="945.24 661.4 929.18 654.52 906.81 676.89 906.81 714.18 917.99 732.54 914.27 757.78 926.5 766.96 935.92 733.11 926.5 703.28 945.24 661.4"/>
        <polygon class="cls-32" points="985.12 660.83 957.92 674.6 945.24 695.63 968.72 727.38 998.02 721.07 1001.7 700.99 985.26 688.94 985.12 660.83"/>
        <polygon class="cls-32" points="829.94 717.05 818.46 727.38 818.46 745.73 836.82 764.38 841.41 741.14 835.67 727.38 829.94 717.05"/>
      </g>
      <g>
        <path class="cls-9" d="M466.29,722.85l2.58,3.44h6.46l7.74,20.78H615.18s16.14-4.21,17.22-19.49l14.2-3.44v-1.29H593.88l-8-6.67h-79.4l-5.37,6.45H488l-2.58-5.16H462.2Z"/>
        <path class="cls-9" d="M550.74,604.18s22.59,51,0,107.15h56.8S625.94,635.81,550.74,604.18Z"/>
        <rect class="cls-9" x="543.32" y="604.18" width="2.26" height="107.15"/>
        <path class="cls-9" d="M538.15,618.06s-2.26,46.64-54.54,93.27h54.54Z"/>
      </g>
      <g id="floater">
        <rect class="cls-35" x="1358.92" y="644.98" width="19.93" height="8.03" transform="translate(-36.37 83.03) rotate(-3.43)"/>
        <rect class="cls-36" x="1352.95" y="649.46" width="34.6" height="44.49" transform="translate(-37.75 83.22) rotate(-3.43)"/>
        <path class="cls-16" d="M1331.67,732.09l.48,8a15.8,15.8,0,0,0,16.72,14.82l52.56-3.15a15.8,15.8,0,0,0,14.82-16.71l-.48-8-3.65.22-76.8,4.61Z"/>
        <rect class="cls-36" x="1334.86" y="716.27" width="76.93" height="13.31" transform="translate(-40.72 83.3) rotate(-3.42)"/>
        <path class="cls-16" d="M1415,713.76l-.52-8.62a15.79,15.79,0,0,0-16.71-14.82l-52.56,3.15a15.8,15.8,0,0,0-14.82,16.71l.52,8.62,3.65-.22,76.79-4.6Z"/>
        <polygon class="cls-37" points="1341.14 688.61 1353.89 687.85 1351.65 650.53 1341.37 651.15 1341.14 688.61"/>
        <polygon class="cls-37" points="1401.17 685.01 1388.43 685.78 1386.19 648.46 1396.47 647.85 1401.17 685.01"/>
        <polygon class="cls-37" points="1381.54 686.19 1374.04 686.64 1371.8 649.33 1377.85 648.96 1381.54 686.19"/>
        <path class="cls-37" d="M1352.44,647.09c-4,.23-5.73-1.64-3.88-4.18l15.09-20.69a4.53,4.53,0,0,1,7.24-.43l17.46,18.74c2.13,2.29.62,4.36-3.36,4.6Z"/>
        <path class="cls-12" d="M1383.42,646.5l-29.26,1.75a7.55,7.55,0,0,1-7.57-11.46l13.11-26.22a7.55,7.55,0,0,1,13.72-.82l16.15,24.46a7.56,7.56,0,0,1-6.15,12.29Zm-17-39.08a6.39,6.39,0,0,0-5.2,3.89l-13.11,26.22a5.9,5.9,0,0,0,6,9.06l29.26-1.76a5.9,5.9,0,0,0,4.86-9.7L1372,610.66A6.41,6.41,0,0,0,1366.39,607.42Z"/>
        <path class="cls-12" d="M1370.42,607.28a4,4,0,0,1-3.78,4.27h0a4,4,0,0,1-4.26-3.78l-.33-5.55a4,4,0,0,1,3.78-4.26h0a4,4,0,0,1,4.26,3.78Z"/>
        <polygon class="cls-12" points="1371.93 646.92 1365.47 605.88 1367.12 605.62 1373.63 647 1371.93 646.92"/>
      </g>
      <path id="light" class="cls-38" d="M1922.72,168.65,976.83,268.79s-8-.93-13,3.95a9.07,9.07,0,0,0-1.09,4.73V295a9.11,9.11,0,0,0,1.09,4.73c5,4.88,13,3.95,13,3.95L1922.72,405Z"/>
      <path class="cls-34" d="M772.43,728.33l2-32.18-5.27-57.32-23.76,15.69v45.41l-.45,30.42-37.35-19.61-8.1,35,11.7,16.11-36.9,9.91v10.79h29.25V774.9l30.71-5.74,8.78,3.72,10.46-8.5,8.44,10.52-4.61,11.48,13.38,1.35,4.39-42Zm-55.07,25.31-9.79-12.93L712,726.3l16.2,5.32,1.35,12.23Zm49.84-9.79-10.35,9.79-9.45-6.08,6.07-45.22-2.36-36.45,9.45-8.13,6.64,32.76L763.37,727Z"/>
      <polygon class="cls-34" points="793.42 714.02 788.63 717.05 787.48 745.73 806.41 764.38 805.45 778.5 816.92 776.7 793.42 714.02"/>
      <polygon class="cls-32" points="810.43 703.28 801.83 654.52 781.17 654.52 777.82 636.79 769.13 638.84 793.42 714.02 810.43 703.28"/>
      <polygon class="cls-32" points="787.48 745.73 788.63 717.05 793.42 714.02 769.13 638.84 774.4 696.15 772.43 728.33 775.07 745.73 770.68 787.73 805.45 778.5 806.41 764.38 787.48 745.73"/>
      <polygon class="cls-32" points="745.37 699.93 707.57 710.74 744.92 730.35 745.37 699.93"/>
      <polygon class="cls-32" points="760.56 657.76 751.11 665.89 753.47 702.34 747.4 747.56 756.85 753.64 767.2 743.85 763.37 726.98 767.2 690.52 760.56 657.76"/>
      <polygon class="cls-32" points="711.96 726.3 707.57 740.71 717.36 753.64 729.51 743.85 728.16 731.62 711.96 726.3"/>
      <polygon class="cls-32" points="753.47 764.38 743.01 772.88 734.23 769.16 703.52 774.9 703.52 782.54 757.3 786.38 761.91 774.9 753.47 764.38"/>
      <g id="star">
        <path class="cls-39" d="M1122.78,136.59a2.48,2.48,0,1,1-2.47-2.47A2.47,2.47,0,0,1,1122.78,136.59Z"/>
        <path class="cls-39" d="M1114.26,44.55a2.48,2.48,0,1,1-2.47-2.47A2.48,2.48,0,0,1,1114.26,44.55Z"/>
        <path class="cls-39" d="M1199.12,118.17a1.27,1.27,0,1,1-1.26-1.26A1.25,1.25,0,0,1,1199.12,118.17Z"/>
        <path class="cls-39" d="M1054.83,112a1.27,1.27,0,1,1-1.26-1.26A1.27,1.27,0,0,1,1054.83,112Z"/>
        <path class="cls-39" d="M1317.77,401.19a1.27,1.27,0,0,1-2.53,0,1.27,1.27,0,0,1,2.53,0Z"/>
        <path class="cls-39" d="M1009.94,477.91a1.27,1.27,0,1,1-1.27-1.26A1.27,1.27,0,0,1,1009.94,477.91Z"/>
        <path class="cls-39" d="M1088.83,566.34a1.27,1.27,0,0,1-2.53,0,1.27,1.27,0,0,1,2.53,0Z"/>
        <path class="cls-39" d="M1178.74,620.18a1.27,1.27,0,1,1-1.27-1.25A1.26,1.26,0,0,1,1178.74,620.18Z"/>
        <path class="cls-39" d="M1652.23,434.25A1.27,1.27,0,1,1,1651,433,1.26,1.26,0,0,1,1652.23,434.25Z"/>
        <path class="cls-39" d="M1573.9,509a1.27,1.27,0,1,1-1.27-1.26A1.26,1.26,0,0,1,1573.9,509Z"/>
        <path class="cls-39" d="M1399.55,47a1.27,1.27,0,1,1-1.26-1.26A1.27,1.27,0,0,1,1399.55,47Z"/>
        <path class="cls-39" d="M1596.71,116.91a1.27,1.27,0,1,1-1.27-1.26A1.26,1.26,0,0,1,1596.71,116.91Z"/>
        <path class="cls-39" d="M1746.55,530.24a1.27,1.27,0,0,1-2.53,0,1.27,1.27,0,0,1,2.53,0Z"/>
        <path class="cls-39" d="M1726.42,633.65a1.27,1.27,0,1,1-1.27-1.26A1.26,1.26,0,0,1,1726.42,633.65Z"/>
        <path class="cls-39" d="M957.43,155.7a2.48,2.48,0,1,1-2.48-2.46A2.48,2.48,0,0,1,957.43,155.7Z"/>
        <path class="cls-39" d="M1883,118.17a2.48,2.48,0,1,1-2.47-2.47A2.48,2.48,0,0,1,1883,118.17Z"/>
        <path class="cls-39" d="M1536.3,365.44a2.48,2.48,0,1,1-2.48-2.47A2.47,2.47,0,0,1,1536.3,365.44Z"/>
        <path class="cls-39" d="M1693,158.17a2.48,2.48,0,1,1-2.48-2.47A2.47,2.47,0,0,1,1693,158.17Z"/>
        <path class="cls-39" d="M1518.62,168.65a2.48,2.48,0,1,1-2.47-2.47A2.48,2.48,0,0,1,1518.62,168.65Z"/>
        <path class="cls-39" d="M1585.71,290.57a2.48,2.48,0,1,1-2.47-2.46A2.48,2.48,0,0,1,1585.71,290.57Z"/>
        <path class="cls-39" d="M1750.23,246.3a2.48,2.48,0,1,1-2.47-2.46A2.47,2.47,0,0,1,1750.23,246.3Z"/>
        <path class="cls-39" d="M1848.1,296.34a2.48,2.48,0,1,1-2.48-2.47A2.47,2.47,0,0,1,1848.1,296.34Z"/>
        <path class="cls-39" d="M1792.71,109.25a2.48,2.48,0,1,1-2.47-2.47A2.48,2.48,0,0,1,1792.71,109.25Z"/>
        <path class="cls-39" d="M1708.88,41a2.48,2.48,0,1,1-2.47-2.47A2.48,2.48,0,0,1,1708.88,41Z"/>
        <path class="cls-39" d="M1264.13,112a2.48,2.48,0,1,1-2.47-2.47A2.47,2.47,0,0,1,1264.13,112Z"/>
        <path class="cls-39" d="M1261.66,64.32a2.48,2.48,0,1,1-2.48-2.47A2.48,2.48,0,0,1,1261.66,64.32Z"/>
        <path class="cls-39" d="M1013.88,275.9a2.48,2.48,0,1,1-2.47-2.46A2.48,2.48,0,0,1,1013.88,275.9Z"/>
        <path class="cls-39" d="M1764.17,420.65a2.48,2.48,0,1,1-2.47-2.47A2.47,2.47,0,0,1,1764.17,420.65Z"/>
        <path class="cls-39" d="M1540.78,463.88a2.48,2.48,0,1,1-2.48-2.47A2.48,2.48,0,0,1,1540.78,463.88Z"/>
        <path class="cls-39" d="M1649.69,561.49a2.48,2.48,0,1,1-2.47-2.46A2.48,2.48,0,0,1,1649.69,561.49Z"/>
        <path class="cls-39" d="M1883,480.38a2.48,2.48,0,1,1-2.47-2.47A2.47,2.47,0,0,1,1883,480.38Z"/>
        <path class="cls-39" d="M1837.76,534a2.48,2.48,0,1,1-2.47-2.46A2.48,2.48,0,0,1,1837.76,534Z"/>
        <path class="cls-39" d="M1921.72,611.56a2.48,2.48,0,1,1-2.47-2.47A2.47,2.47,0,0,1,1921.72,611.56Z"/>
        <path class="cls-39" d="M1268.54,506.49a2.48,2.48,0,1,1-2.47-2.47A2.47,2.47,0,0,1,1268.54,506.49Z"/>
        <path class="cls-39" d="M1106.83,228a2.48,2.48,0,1,1-2.47-2.47A2.48,2.48,0,0,1,1106.83,228Z"/>
        <path class="cls-39" d="M1141.31,332.78a2.48,2.48,0,1,1-2.47-2.46A2.48,2.48,0,0,1,1141.31,332.78Z"/>
        <path class="cls-39" d="M1348.75,204.13a2.48,2.48,0,1,1-2.47-2.47A2.47,2.47,0,0,1,1348.75,204.13Z"/>
        <path class="cls-39" d="M1271,298.81a2.48,2.48,0,1,1-2.47-2.47A2.47,2.47,0,0,1,1271,298.81Z"/>
        <path class="cls-39" d="M1109.31,482.84a2.48,2.48,0,1,1-2.47-2.46A2.48,2.48,0,0,1,1109.31,482.84Z"/>
        <path class="cls-39" d="M955,363a2.48,2.48,0,1,1-2.47-2.47A2.47,2.47,0,0,1,955,363Z"/>
        <path class="cls-39" d="M957.42,545.32a2.47,2.47,0,1,1-2.47-2.47A2.47,2.47,0,0,1,957.42,545.32Z"/>
        <path class="cls-39" d="M1527,69.25a2.48,2.48,0,1,1-2.47-2.46A2.48,2.48,0,0,1,1527,69.25Z"/>
      </g>
      <g id="star-2" data-name="star">
        <path class="cls-39" d="M172.78,136.59a2.48,2.48,0,1,1-2.47-2.47A2.47,2.47,0,0,1,172.78,136.59Z"/>
        <path class="cls-39" d="M164.26,44.55a2.48,2.48,0,1,1-2.47-2.47A2.48,2.48,0,0,1,164.26,44.55Z"/>
        <path class="cls-39" d="M249.12,118.17a1.27,1.27,0,1,1-1.26-1.26A1.25,1.25,0,0,1,249.12,118.17Z"/>
        <path class="cls-39" d="M104.83,112a1.27,1.27,0,1,1-1.26-1.26A1.27,1.27,0,0,1,104.83,112Z"/>
        <path class="cls-39" d="M367.77,401.19a1.27,1.27,0,0,1-2.53,0,1.27,1.27,0,0,1,2.53,0Z"/>
        <path class="cls-39" d="M59.94,477.91a1.27,1.27,0,1,1-1.27-1.26A1.27,1.27,0,0,1,59.94,477.91Z"/>
        <path class="cls-39" d="M138.83,566.34a1.27,1.27,0,0,1-2.53,0,1.27,1.27,0,0,1,2.53,0Z"/>
        <path class="cls-39" d="M228.74,620.18a1.27,1.27,0,1,1-1.27-1.25A1.26,1.26,0,0,1,228.74,620.18Z"/>
        <path class="cls-39" d="M702.23,434.25A1.27,1.27,0,1,1,701,433,1.26,1.26,0,0,1,702.23,434.25Z"/>
        <path class="cls-39" d="M623.9,509a1.27,1.27,0,1,1-1.27-1.26A1.26,1.26,0,0,1,623.9,509Z"/>
        <path class="cls-39" d="M449.55,47a1.27,1.27,0,1,1-1.26-1.26A1.27,1.27,0,0,1,449.55,47Z"/>
        <path class="cls-39" d="M646.71,116.91a1.27,1.27,0,1,1-1.27-1.26A1.26,1.26,0,0,1,646.71,116.91Z"/>
        <path class="cls-39" d="M796.55,530.24a1.27,1.27,0,0,1-2.53,0,1.27,1.27,0,0,1,2.53,0Z"/>
        <path class="cls-39" d="M776.42,633.65a1.27,1.27,0,1,1-1.27-1.26A1.26,1.26,0,0,1,776.42,633.65Z"/>
        <path class="cls-39" d="M7.43,155.7A2.48,2.48,0,1,1,5,153.24,2.48,2.48,0,0,1,7.43,155.7Z"/>
        <path class="cls-39" d="M933,118.17a2.48,2.48,0,1,1-2.47-2.47A2.48,2.48,0,0,1,933,118.17Z"/>
        <path class="cls-39" d="M586.3,365.44a2.48,2.48,0,1,1-2.48-2.47A2.47,2.47,0,0,1,586.3,365.44Z"/>
        <path class="cls-39" d="M743,158.17a2.48,2.48,0,1,1-2.48-2.47A2.47,2.47,0,0,1,743,158.17Z"/>
        <path class="cls-39" d="M568.62,168.65a2.48,2.48,0,1,1-2.47-2.47A2.48,2.48,0,0,1,568.62,168.65Z"/>
        <path class="cls-39" d="M635.71,290.57a2.48,2.48,0,1,1-2.47-2.46A2.48,2.48,0,0,1,635.71,290.57Z"/>
        <path class="cls-39" d="M800.23,246.3a2.48,2.48,0,1,1-2.47-2.46A2.47,2.47,0,0,1,800.23,246.3Z"/>
        <path class="cls-39" d="M898.1,296.34a2.48,2.48,0,1,1-2.48-2.47A2.47,2.47,0,0,1,898.1,296.34Z"/>
        <path class="cls-39" d="M842.71,109.25a2.48,2.48,0,1,1-2.47-2.47A2.48,2.48,0,0,1,842.71,109.25Z"/>
        <path class="cls-39" d="M758.88,41a2.48,2.48,0,1,1-2.47-2.47A2.48,2.48,0,0,1,758.88,41Z"/>
        <path class="cls-39" d="M314.13,112a2.48,2.48,0,1,1-2.47-2.47A2.47,2.47,0,0,1,314.13,112Z"/>
        <path class="cls-39" d="M311.66,64.32a2.48,2.48,0,1,1-2.48-2.47A2.48,2.48,0,0,1,311.66,64.32Z"/>
        <path class="cls-39" d="M63.88,275.9a2.48,2.48,0,1,1-2.47-2.46A2.48,2.48,0,0,1,63.88,275.9Z"/>
        <path class="cls-39" d="M814.17,420.65a2.48,2.48,0,1,1-2.47-2.47A2.47,2.47,0,0,1,814.17,420.65Z"/>
        <path class="cls-39" d="M590.78,463.88a2.48,2.48,0,1,1-2.48-2.47A2.48,2.48,0,0,1,590.78,463.88Z"/>
        <path class="cls-39" d="M699.69,561.49a2.48,2.48,0,1,1-2.47-2.46A2.48,2.48,0,0,1,699.69,561.49Z"/>
        <path class="cls-39" d="M933,480.38a2.48,2.48,0,1,1-2.47-2.47A2.47,2.47,0,0,1,933,480.38Z"/>
        <path class="cls-39" d="M887.76,534a2.48,2.48,0,1,1-2.47-2.46A2.48,2.48,0,0,1,887.76,534Z"/>
        <path class="cls-39" d="M971.72,611.56a2.48,2.48,0,1,1-2.47-2.47A2.47,2.47,0,0,1,971.72,611.56Z"/>
        <path class="cls-39" d="M318.54,506.49a2.48,2.48,0,1,1-2.47-2.47A2.47,2.47,0,0,1,318.54,506.49Z"/>
        <path class="cls-39" d="M156.83,228a2.48,2.48,0,1,1-2.47-2.47A2.48,2.48,0,0,1,156.83,228Z"/>
        <path class="cls-39" d="M191.31,332.78a2.48,2.48,0,1,1-2.47-2.46A2.48,2.48,0,0,1,191.31,332.78Z"/>
        <path class="cls-39" d="M398.75,204.13a2.48,2.48,0,1,1-2.47-2.47A2.47,2.47,0,0,1,398.75,204.13Z"/>
        <path class="cls-39" d="M321,298.81a2.48,2.48,0,1,1-2.47-2.47A2.47,2.47,0,0,1,321,298.81Z"/>
        <path class="cls-39" d="M159.31,482.84a2.48,2.48,0,1,1-2.47-2.46A2.48,2.48,0,0,1,159.31,482.84Z"/>
        <path class="cls-39" d="M5,363a2.48,2.48,0,1,1-2.47-2.47A2.47,2.47,0,0,1,5,363Z"/>
        <path class="cls-39" d="M7.42,545.32A2.47,2.47,0,1,1,5,542.85,2.47,2.47,0,0,1,7.42,545.32Z"/>
        <path class="cls-39" d="M577,69.25a2.48,2.48,0,1,1-2.47-2.46A2.48,2.48,0,0,1,577,69.25Z"/>
      </g>
      <g id="clouds" class="cls-40">
        <path class="cls-41" d="M811,386.48a16.18,16.18,0,0,0-6.64,1.43,21,21,0,0,0-41.23-.4l-.38,0a15.22,15.22,0,1,0,12.44,24,14.19,14.19,0,0,0,5.76,5.55,14,14,0,0,0,17.63-3.84A16.23,16.23,0,1,0,811,386.48Z"/>
        <path class="cls-41" d="M1232.22,297.52a23.66,23.66,0,0,0-9.71,2.09,30.64,30.64,0,0,0-60.28-.58c-.18,0-.37,0-.56,0a22.26,22.26,0,1,0,18.2,35,20.56,20.56,0,0,0,34.19,2.5,23.73,23.73,0,1,0,18.16-39Z"/>
        <path class="cls-41" d="M972.23,96.84A29.77,29.77,0,0,0,960,99.47a38.49,38.49,0,0,0-75.71-.73c-.23,0-.47,0-.71,0a28,28,0,1,0,22.86,44A26,26,0,0,0,917,152.88a25.67,25.67,0,0,0,32.38-7,29.81,29.81,0,1,0,22.81-49Z"/>
        <path class="cls-41" d="M747.68,233.29a22.3,22.3,0,0,0-9.1,2,28.72,28.72,0,0,0-56.49-.54c-.17,0-.35,0-.53,0a20.86,20.86,0,1,0,17.06,32.83,19.42,19.42,0,0,0,7.88,7.6,19.15,19.15,0,0,0,24.16-5.26,22.24,22.24,0,1,0,17-36.55Z"/>
      </g>
      <g id="boat">
        <ellipse class="cls-42" cx="1091.49" cy="985.99" rx="290.05" ry="19.76"/>
        <polygon class="cls-43" points="1255.67 887.67 1203.78 887.67 1246.78 845.78 1298.67 845.78 1255.67 887.67"/>
        <path class="cls-44" d="M1253,825.88c-12,0-21.77,9.46-21.77,21.13h68.1c12,0,21.77-9.46,21.77-21.13H1253Z"/>
        <path class="cls-12" d="M1302.53,818.52h-40.41a7.47,7.47,0,0,0-7.58,7.36h55.58A7.48,7.48,0,0,0,1302.53,818.52Z"/>
        <path class="cls-43" d="M1356.26,987.37h-440s-96.33-4.27-160.62-87.56h550.06Z"/>
        <path class="cls-12" d="M1167.58,818.52H1080a46.19,46.19,0,0,0-22.44,5.8L956.62,880.48l-201,19.33h550.06l-74.44-19.19-24.52-40.16A45.42,45.42,0,0,0,1167.58,818.52Z"/>
        <g>
          <path class="cls-43" d="M1034.91,836.93,982,866.36h97.23a4.88,4.88,0,0,0,5-4.8V841.73a4.88,4.88,0,0,0-5-4.8Z"/>
          <path class="cls-45" d="M1034.91,836.93l-7.85,4.37h47.66a4.88,4.88,0,0,1,5,4.8v19.83c0,.13,0,.26,0,.39a4.84,4.84,0,0,0,4.54-4.76V841.73a4.88,4.88,0,0,0-5-4.8Z"/>
        </g>
        <g>
          <path class="cls-43" d="M1186.18,836.93h-79.24a4.88,4.88,0,0,0-5,4.8v19.83a4.88,4.88,0,0,0,5,4.8h79.24a4.88,4.88,0,0,0,5-4.8V841.73A4.88,4.88,0,0,0,1186.18,836.93Z"/>
          <path class="cls-45" d="M1186.18,836.93h-79.24a4.87,4.87,0,0,0-4.91,4.41,2.85,2.85,0,0,1,.41,0h79.24a4.88,4.88,0,0,1,5,4.8v19.83c0,.13,0,.26,0,.39a4.85,4.85,0,0,0,4.54-4.76V841.73A4.88,4.88,0,0,0,1186.18,836.93Z"/>
        </g>
        <path class="cls-46" d="M916.21,987.37h440.05L1337,954.06H938.33c-87.42,0-182.74-54.25-182.74-54.25C819.88,983.1,916.21,987.37,916.21,987.37Z"/>
        <g>
          <path class="cls-12" d="M1268.24,914.39a13.31,13.31,0,1,0,13.7,13.3A13.52,13.52,0,0,0,1268.24,914.39Zm0,20.87a7.57,7.57,0,1,1,7.79-7.57A7.69,7.69,0,0,1,1268.24,935.26Z"/>
          <g>
            <path class="cls-44" d="M1263.47,915.23l1.58,5.56a7.91,7.91,0,0,1,6.37,0l1.59-5.56a14,14,0,0,0-9.54,0Z"/>
            <path class="cls-44" d="M1273,940.16l-1.59-5.56a8,8,0,0,1-6.37,0l-1.58,5.56a14.12,14.12,0,0,0,9.54,0Z"/>
            <path class="cls-44" d="M1276,927.69a7.35,7.35,0,0,1-.68,3.1l5.73,1.53a12.89,12.89,0,0,0,0-9.26l-5.73,1.54A7.28,7.28,0,0,1,1276,927.69Z"/>
            <path class="cls-44" d="M1260.44,927.69a7.28,7.28,0,0,1,.68-3.09l-5.73-1.54a13,13,0,0,0,0,9.26l5.73-1.53A7.35,7.35,0,0,1,1260.44,927.69Z"/>
          </g>
        </g>
        <polygon class="cls-44" points="755.59 899.81 1305.65 899.81 1231.21 880.62 955.15 880.62 755.59 899.81"/>
        <path class="cls-47" d="M765,898.9l.8.91h539.85l-47.45-12.23H882.79Z"/>
        <text class="cls-48" transform="translate(956.88 955.43)">Coming Soon</text>
      </g>
      <text class="cls-49" transform="translate(783.94 725.62)"><tspan xml:space="preserve">TECHSPARDHA  </tspan></text>
      <text class="cls-50" transform="translate(998.41 756.9)">PRIME</text>
      <path class="cls-4" d="M1882.72,931.89c0,6.73-8.15,12.19-18.22,12.19H1657.94c-10.07,0-18.22-5.46-18.22-12.19h0c0-6.74,8.15-12.19,18.22-12.19H1864.5c10.07,0,18.22,5.45,18.22,12.19Z"/>
      <path class="cls-4" d="M322.72,836.35c0,8.59-13.33,15.54-29.77,15.54H89.36c-16.45,0-29.78-6.95-29.78-15.54h0c0-8.59,13.33-15.54,29.78-15.54H293c16.44,0,29.77,7,29.77,15.54Z"/>
      <path class="cls-4" d="M303.39,987.05a12.66,12.66,0,0,1-12.67,12.66H204.13a12.66,12.66,0,0,1-12.67-12.66h0a12.66,12.66,0,0,1,12.67-12.66h86.59a12.66,12.66,0,0,1,12.67,12.66Z"/>
      <path class="cls-8" d="M92.72,629.59h181a10.51,10.51,0,0,0,0-21h-181Z"/>
    </g>
  </g>
</svg>
