<svg id="Layer_1" data-name="Layer 1" xmlns="http://www.w3.org/2000/svg" viewBox="0 0 1410 436.4">
  <defs>
    <style>
      .sky-1 {
        fill: #003738;
      }
    </style>
  </defs>
  <title>skyDetails</title>
  <g id="skyline">
    <path class="sky-1" d="M330,211.2H637.1a10.5,10.5,0,0,0,0-21H330Z"/>
    <path class="sky-1" d="M1229.1,84H1410V63H1229.1a10.5,10.5,0,0,0,0,21Z"/>
    <path class="sky-1" d="M330,118.4H510.9a10.5,10.5,0,0,0,0-21H330Z"/>
    <path class="sky-1" d="M1132.3,145.7H1410v-21H1132.3a10.5,10.5,0,0,0,0,21Z"/>
    <path class="sky-1" d="M611.5,256.1A10.5,10.5,0,0,1,622,245.6H750.5A10.5,10.5,0,0,1,761,256.1h0a10.5,10.5,0,0,1-10.5,10.5H622a10.5,10.5,0,0,1-10.5-10.5Z"/>
    <path class="sky-1" d="M932.8,18A10.5,10.5,0,0,1,943.3,7.5h128.5A10.5,10.5,0,0,1,1082.3,18h0a10.5,10.5,0,0,1-10.5,10.5H943.3A10.5,10.5,0,0,1,932.8,18Z"/>
    <path class="sky-1" d="M404.4,424.1a10.5,10.5,0,0,1,10.5-10.5H543.4a10.5,10.5,0,0,1,10.5,10.5h0a10.5,10.5,0,0,1-10.5,10.5H414.9a10.5,10.5,0,0,1-10.5-10.5Z"/>
    <path class="sky-1" d="M460.9,10.5A10.5,10.5,0,0,1,471.4,0H599.9a10.5,10.5,0,0,1,10.5,10.5h0A10.5,10.5,0,0,1,599.9,21H471.4a10.5,10.5,0,0,1-10.5-10.5Z"/>
    <path class="sky-1" d="M795.3,182.7a10.5,10.5,0,0,1,10.5-10.5H934.3a10.5,10.5,0,0,1,10.5,10.5h0a10.5,10.5,0,0,1-10.5,10.5H805.8a10.37,10.37,0,0,1-10.5-10.5Z"/>
    <path class="sky-1" d="M1043.1,273.4a10.5,10.5,0,0,1,10.5-10.5h128.5a10.5,10.5,0,0,1,10.5,10.5h0a10.5,10.5,0,0,1-10.5,10.5H1053.6a10.5,10.5,0,0,1-10.5-10.5Z"/>
    <path class="sky-1" d="M659.5,362.6A10.5,10.5,0,0,1,670,352.1H887.8a10.5,10.5,0,0,1,10.5,10.5h0a10.5,10.5,0,0,1-10.5,10.5H670a10.5,10.5,0,0,1-10.5-10.5Z"/>
    <path class="sky-1" d="M0,436.4H180.9a10.5,10.5,0,0,0,0-21H0Z"/>
  </g>
</svg>
