<svg id="Layer_1" data-name="Layer 1" xmlns="http://www.w3.org/2000/svg" viewBox="0 0 625.9 187.3">
  <defs>
    <style>
      .boat-1 {
        fill: #0d536b;
        opacity: 0.85;
      }

      .boat-1, .boat-8 {
        isolation: isolate;
      }

      .boat-2 {
        fill: #063a52;
      }

      .boat-3 {
        fill: #d00c01;
      }

      .boat-4, .boat-8 {
        fill: #fff;
      }

      .boat-5 {
        fill: #a5a5a5;
      }

      .boat-6 {
        fill: #babcbe;
      }

      .boat-7 {
        fill: #e4e5e6;
      }

      .boat-8 {
        font-size: 45.05px;
        font-family: HanaleiFill-Regular, Hanalei Fill;
      }
    </style>
  </defs>
  <title>boat</title>
  <ellipse class="boat-1" cx="335.9" cy="167.5" rx="290" ry="19.8"/>
  <polygon class="boat-2" points="500.1 69.1 448.2 69.1 491.2 27.3 543.1 27.3 500.1 69.1"/>
  <path class="boat-3" d="M497.4,7.4c-12,0-21.8,9.5-21.8,21.1h68.1c12,0,21.8-9.5,21.8-21.1H497.4Z"/>
  <path class="boat-4" d="M546.9,0H506.5a7.49,7.49,0,0,0-7.6,7.4h55.6A7.49,7.49,0,0,0,546.9,0Z"/>
  <path class="boat-2" d="M600.7,168.8H160.6S64.3,164.5,0,81.2H550.1Z"/>
  <path class="boat-4" d="M412,0H324.4A45.87,45.87,0,0,0,302,5.8L201,62,0,81.3H550.1L475.7,62.1,451.2,21.9A45.91,45.91,0,0,0,412,0Z"/>
  <g>
    <path class="boat-2" d="M279.3,18.4,226.4,47.8h97.2a4.82,4.82,0,0,0,4.9-4.8V23.2a4.82,4.82,0,0,0-4.9-4.8Z"/>
    <path class="boat-5" d="M279.3,18.4l-7.9,4.4h47.7a4.82,4.82,0,0,1,4.9,4.8V47.8a4.81,4.81,0,0,0,4.5-4.8V23.2a4.82,4.82,0,0,0-4.9-4.8Z"/>
  </g>
  <g>
    <path class="boat-2" d="M430.6,18.4H351.4a4.82,4.82,0,0,0-4.9,4.8V43a4.82,4.82,0,0,0,4.9,4.8h79.2a4.82,4.82,0,0,0,4.9-4.8V23.2A4.89,4.89,0,0,0,430.6,18.4Z"/>
    <path class="boat-5" d="M430.6,18.4H351.4a4.82,4.82,0,0,0-4.9,4.4h79.6a4.82,4.82,0,0,1,4.9,4.8V47.8a4.81,4.81,0,0,0,4.5-4.8V23.2A4.89,4.89,0,0,0,430.6,18.4Z"/>
  </g>
  <path class="boat-6" d="M160.6,168.8H600.7l-19.3-33.3H182.7C95.3,135.5,0,81.3,0,81.3,64.3,164.6,160.6,168.8,160.6,168.8Z"/>
  <g>
    <path class="boat-4" d="M512.6,95.9a13.31,13.31,0,1,0,13.7,13.3A13.51,13.51,0,0,0,512.6,95.9Zm0,20.8a7.6,7.6,0,1,1,7.8-7.6A7.71,7.71,0,0,1,512.6,116.7Z"/>
    <g>
      <path class="boat-3" d="M507.9,96.7l1.6,5.6a8.76,8.76,0,0,1,3.2-.7,7.11,7.11,0,0,1,3.2.7l1.6-5.6a14.8,14.8,0,0,0-9.6,0Z"/>
      <path class="boat-3" d="M517.4,121.6l-1.6-5.6a8.76,8.76,0,0,1-3.2.7,7.11,7.11,0,0,1-3.2-.7l-1.6,5.6a15.1,15.1,0,0,0,4.8.8A11,11,0,0,0,517.4,121.6Z"/>
      <path class="boat-3" d="M520.4,109.2a6.7,6.7,0,0,1-.7,3.1l5.7,1.5a12.21,12.21,0,0,0,0-9.2l-5.7,1.5A6.43,6.43,0,0,1,520.4,109.2Z"/>
      <path class="boat-3" d="M504.9,109.2a6.7,6.7,0,0,1,.7-3.1l-5.7-1.5a12.21,12.21,0,0,0,0,9.2l5.7-1.5A6.7,6.7,0,0,1,504.9,109.2Z"/>
    </g>
  </g>
  <polygon class="boat-3" points="0 81.3 550.1 81.3 475.6 62.1 199.6 62.1 0 81.3"/>
  <path class="boat-7" d="M9.4,80.4c.3.3.5.6.8.9H550.1L502.6,69.1H127.2Z"/>
  <text class="boat-8" transform="translate(201.3 136.9)">Coming Soon</text>
</svg>
