<svg id="Layer_1" data-name="Layer 1" xmlns="http://www.w3.org/2000/svg" viewBox="0 0 595.24 351.4">
  <defs>
    <style>
      .clouds-1 {
        opacity: 0.68;
      }

      .clouds-2 {
        fill: #e0e0e0;
      }
    </style>
  </defs>
  <title>clouds</title>
  <g id="clouds" class="clouds-1">
    <path class="clouds-2" d="M150.27,318.93a16.18,16.18,0,0,0-6.64,1.43,21,21,0,0,0-41.23-.4l-.38,0a15.22,15.22,0,1,0,12.45,24,14.06,14.06,0,0,0,23.38,1.71,16.23,16.23,0,1,0,12.42-26.68Z"/>
    <path class="clouds-2" d="M571.51,230a23.69,23.69,0,0,0-9.71,2.09,30.64,30.64,0,0,0-60.27-.58c-.19,0-.37,0-.57,0a22.26,22.26,0,1,0,18.21,35,20.57,20.57,0,0,0,34.19,2.5,23.73,23.73,0,1,0,18.15-39Z"/>
    <path class="clouds-2" d="M311.53,29.29a29.77,29.77,0,0,0-12.2,2.63,38.49,38.49,0,0,0-75.72-.73c-.23,0-.46,0-.71,0a28,28,0,1,0,22.87,44,25.83,25.83,0,0,0,43,3.14,29.81,29.81,0,1,0,22.81-49Z"/>
    <path class="clouds-2" d="M87,165.74a22.23,22.23,0,0,0-9.1,1.95,28.72,28.72,0,0,0-56.5-.54c-.17,0-.34,0-.53,0A20.86,20.86,0,1,0,37.91,200a19.5,19.5,0,0,0,7.89,7.6A19.15,19.15,0,0,0,70,202.29a22.24,22.24,0,1,0,17-36.55Z"/>
  </g>
</svg>
