<svg id="Layer_1" data-name="Layer 1" xmlns="http://www.w3.org/2000/svg" viewBox="0 0 85.95 156.93">
  <defs>
    <style>
      .cls-1 {
        fill: #8c1d19;
      }

      .cls-2 {
        fill: #ab231f;
      }

      .cls-3 {
        fill: #d32b27;
      }

      .cls-4 {
        fill: #cf2a26;
      }

      .cls-5 {
        fill: #fff;
      }
    </style>
  </defs>
  <title>floater</title>
  <g id="floater">
    <rect class="cls-1" x="28.62" y="47" width="19.9" height="8" transform="translate(-2.98 2.4) rotate(-3.43)"/>
    <rect class="cls-2" x="22.63" y="51.51" width="34.6" height="44.5" transform="translate(-4.34 2.52) rotate(-3.43)"/>
    <path class="cls-3" d="M1.33,134.1l.5,8a15.78,15.78,0,0,0,16.7,14.8l52.6-3.2A15.78,15.78,0,0,0,85.93,137l-.5-8-3.7.2L5,133.9Z"/>
    <rect class="cls-2" x="4.53" y="118.3" width="76.9" height="13.3" transform="translate(-7.39 2.79) rotate(-3.42)"/>
    <path class="cls-3" d="M84.63,115.8l-.5-8.6a15.78,15.78,0,0,0-16.7-14.8l-52.6,3.2A15.63,15.63,0,0,0,0,112.2l.5,8.6,3.7-.2L81,116Z"/>
    <polygon class="cls-4" points="10.83 90.7 23.63 89.9 21.33 52.6 11.03 53.2 10.83 90.7"/>
    <polygon class="cls-4" points="70.83 87.1 58.13 87.8 55.93 50.5 66.13 49.9 70.83 87.1"/>
    <polygon class="cls-4" points="51.23 88.2 43.73 88.7 41.53 51.4 47.53 51 51.23 88.2"/>
    <path class="cls-4" d="M22.13,49.1c-4,.2-5.7-1.6-3.9-4.2l15.1-20.7a4.51,4.51,0,0,1,7.2-.4L58,42.6c2.1,2.3.6,4.4-3.4,4.6Z"/>
    <path class="cls-5" d="M53.13,48.5l-29.3,1.8a8.07,8.07,0,0,1-7.5-3.3,8,8,0,0,1-.1-8.2l13.1-26.2A8.21,8.21,0,0,1,36,7.8c2.7-.2,5.3,1.3,7.1,4l16.1,24.5a8,8,0,0,1,.9,8.1A7.87,7.87,0,0,1,53.13,48.5Zm-17-39c-2.1.1-4,1.5-5.2,3.9L17.83,39.6a6.3,6.3,0,0,0,0,6.5c1.2,1.8,3.4,2.7,6,2.6L53,46.9c2.6-.2,4.7-1.3,5.6-3.3s.7-4.3-.8-6.5L41.73,12.7C40.23,10.5,38.23,9.3,36.13,9.5Z"/>
    <path class="cls-5" d="M40.13,9.3a4.17,4.17,0,0,1-3.8,4.3h0A4.17,4.17,0,0,1,32,9.8l-.3-5.5A4,4,0,0,1,35.53,0h0a4.17,4.17,0,0,1,4.3,3.8Z"/>
    <polygon class="cls-5" points="41.63 49 35.13 7.9 36.83 7.7 43.33 49.1 41.63 49"/>
  </g>
</svg>
