<svg id="Layer_1" data-name="Layer 1" xmlns="http://www.w3.org/2000/svg" viewBox="0 0 1460.5 732.3">
  <defs>
    <style>
      .lighthouse-1 {
        fill: #018dff;
      }

      .lighthouse-2 {
        fill: #ffde75;
      }

      .lighthouse-3 {
        fill: #002d2e;
      }

      .lighthouse-4 {
        fill: #e2e3e4;
      }

      .lighthouse-5 {
        fill: #cacbcd;
      }

      .lighthouse-30, .lighthouse-6 {
        fill: #fff;
      }

      .lighthouse-7 {
        fill: #ebebec;
      }

      .lighthouse-8 {
        fill: #ba2521;
      }

      .lighthouse-9 {
        fill: #a01f1d;
      }

      .lighthouse-10 {
        fill: #d32b27;
      }

      .lighthouse-11 {
        fill: #b72420;
      }

      .lighthouse-12 {
        fill: #b3231f;
      }

      .lighthouse-13 {
        fill: #e6e7e8;
      }

      .lighthouse-14 {
        fill: #ba2625;
      }

      .lighthouse-15 {
        fill: #530000;
      }

      .lighthouse-16 {
        fill: #7b1315;
      }

      .lighthouse-17 {
        fill: #720e0f;
      }

      .lighthouse-18 {
        fill: #9a1c16;
      }

      .lighthouse-19 {
        fill: #82120a;
      }

      .lighthouse-20 {
        fill: #be2827;
      }

      .lighthouse-21 {
        fill: #7e7c7f;
      }

      .lighthouse-22 {
        fill: #414244;
      }

      .lighthouse-23 {
        fill: #414042;
      }

      .lighthouse-24 {
        fill: #821227;
      }

      .lighthouse-25 {
        fill: #be2622;
      }

      .lighthouse-26 {
        fill: #464736;
      }

      .lighthouse-27 {
        fill: #3c3d2e;
      }

      .lighthouse-28 {
        fill: #50513d;
      }

      .lighthouse-29 {
        fill: #ecffa0;
        opacity: 0.3;
      }

      .lighthouse-29, .lighthouse-30, .lighthouse-31 {
        isolation: isolate;
      }

      .lighthouse-30 {
        opacity: 0.99;
        font-size: 54.92px;
      }

      .lighthouse-30, .lighthouse-31 {
        font-family: CoveredByYourGrace, Covered By Your Grace;
      }

      .lighthouse-31 {
        font-size: 28.9px;
        fill: #f0f5f7;
      }
    </style>
  </defs>
  <title>lighthouse</title>
  <path class="lighthouse-1" d="M949.9,655.5H919.1a13,13,0,0,1-12.8-13.1,12.76,12.76,0,0,0-12.8-12.8H853.6a12.83,12.83,0,0,1,2.5-25.4H969.6a12.8,12.8,0,0,0,0-25.6H144.7a12.76,12.76,0,0,0-12.8,12.8,12.76,12.76,0,0,1-12.8,12.8H108.5a12.8,12.8,0,0,0,0,25.6h37.3a12.76,12.76,0,0,1,12.8,12.8v-.1a12.87,12.87,0,0,0,12.8,12.7h30.8A13,13,0,0,1,215,668.3a12.76,12.76,0,0,0,12.8,12.8h36.6a12.76,12.76,0,0,1,12.8,12.8A12.76,12.76,0,0,0,290,706.7H444.1a12.76,12.76,0,0,1,12.8,12.8,12.76,12.76,0,0,0,12.8,12.8H594.6a12.76,12.76,0,0,0,12.8-12.8,12.76,12.76,0,0,1,12.8-12.8H742.4a12.76,12.76,0,0,0,12.8-12.8A12.76,12.76,0,0,1,768,681.1H949.4a12.76,12.76,0,0,0,12.8-12.8A12.05,12.05,0,0,0,949.9,655.5Z"/>
  <path class="lighthouse-2" d="M792.2,591.2H741.6l21.5,8.8-8.8,13.5-23,7.8-126.8-4.2L562,630.2l-70.3-10.1-100,7.8L336,613.5l-35,11.7-63.7-8.1-29.2-4.7-9.2-9.2,3.4-11.9H177.5a13,13,0,0,0,0,26h32.7a13,13,0,0,1,13,13,13,13,0,0,0,13,13H414a13,13,0,0,1,13,13,13,13,0,0,0,13,13H647.8a13,13,0,0,0,13-13,13,13,0,0,1,13-13h59.8a13,13,0,0,0,13-13,13,13,0,0,1,13-13h32.7a13,13,0,0,0,13-13A13.14,13.14,0,0,0,792.2,591.2Z"/>
  <polygon class="lighthouse-3" points="709.2 569.4 652.1 542.3 628.8 509.4 584 449.4 558.6 406.9 492.1 438.6 488.9 376.7 444.6 419.5 389.7 412.4 332.2 461.9 315.7 492.9 258.9 499.6 245.9 532.6 226.5 570.4 212.1 584 217 606.2 238 598.9 270.2 598.9 295.8 598.9 372.4 598.9 391.6 598.9 461.3 598.9 484.7 598.9 557.9 598.9 617.1 598.9 638.2 598.9 684.6 598.9 724 598.9 709.2 569.4"/>
  <g>
    <polygon class="lighthouse-4" points="512.3 90.9 482.1 90.9 447.7 90.9 447.7 93.2 512.3 93.4 512.3 90.9"/>
    <polygon class="lighthouse-5" points="516.5 93.4 516.5 90.9 512.3 90.9 512.3 93.4 516.5 93.4"/>
    <polygon class="lighthouse-6" points="447.7 93.2 447.7 147.8 447.2 155.1 512.6 155.1 512.3 93.4 447.7 93.2"/>
    <polygon class="lighthouse-7" points="516.5 147.8 516.5 93.4 512.3 93.4 512.6 155.1 517 155.1 516.5 147.8"/>
    <g>
      <polygon class="lighthouse-8" points="539.5 457.3 536.3 413.8 532.8 367 528.7 312.4 525.2 265.6 516.2 265.6 522.9 457.6 539.5 457.3"/>
      <polygon class="lighthouse-9" points="522.9 457.6 523.1 461.5 539.8 461.5 539.5 457.3 522.9 457.6"/>
      <polygon class="lighthouse-10" points="516.2 265.6 439 265.6 437.6 283.5 434.8 322 430.8 374.6 426.7 430.2 424.6 459 522.9 457.6 516.2 265.6"/>
      <polygon class="lighthouse-11" points="424.6 459 424.4 461.5 450.9 461.5 482.1 461.5 494.9 461.5 523.1 461.5 522.9 457.6 424.6 459"/>
    </g>
    <polygon class="lighthouse-9" points="517.7 164.2 517 155.5 517 155.1 512.3 155.1 512.6 164.1 517.7 164.2"/>
    <polygon class="lighthouse-8" points="517.7 164.2 512.6 164.1 513.9 199.5 520.3 199.5 519.5 188.9 517.7 164.2"/>
    <polygon class="lighthouse-10" points="446.6 162.9 443.9 199.5 513.9 199.5 512.6 164.1 446.6 162.9"/>
    <polygon class="lighthouse-12" points="512.3 155.1 494.6 155.1 447.2 155.1 446.6 162.9 512.6 164.1 512.3 155.1"/>
    <polygon class="lighthouse-13" points="516.2 265.6 525.2 265.6 521.9 221.3 520.3 199.5 513.9 199.5 516.2 265.6"/>
    <polygon class="lighthouse-6" points="513.9 199.5 443.9 199.5 442.7 215 440.6 243.9 439 265.6 516.2 265.6 513.9 199.5"/>
    <path class="lighthouse-14" d="M484,388.7h-.9a24.46,24.46,0,0,1,23.5,24.4v48.4h1.9V413.1A24.52,24.52,0,0,0,484,388.7Z"/>
    <path class="lighthouse-6" d="M483,388.7h-.9a24.43,24.43,0,0,0-24.4,24.4v48.4h48.8V413.1A24.45,24.45,0,0,0,483,388.7Z"/>
    <path class="lighthouse-15" d="M499.9,461.5V413.1a17.8,17.8,0,1,0-35.6,0v48.4Z"/>
    <path class="lighthouse-16" d="M447.4,155.8H430.5s1.2,6.1,7,7.3c0,0,8,1.6,9.9,5.8l1-13.2h-1Z"/>
    <path class="lighthouse-17" d="M516.7,155.8h16.9s-1.2,6.1-7,7.3c0,0-8,1.6-9.9,5.8l-1-13.2h1Z"/>
    <rect class="lighthouse-18" x="479.1" y="53.9" width="5.9" height="10.9"/>
    <path class="lighthouse-6" d="M546.4,471.5a3.16,3.16,0,0,1-3.2,3.2H421a3.16,3.16,0,0,1-3.2-3.2v-6.8a3.16,3.16,0,0,1,3.2-3.2H543.3a3.16,3.16,0,0,1,3.2,3.2v6.8Z"/>
    <path class="lighthouse-19" d="M456.8,157.5v12.7a2.2,2.2,0,1,0,4.4,0V157.5Z"/>
    <path class="lighthouse-19" d="M479.9,157.5v12.7a2.2,2.2,0,1,0,4.4,0V157.5Z"/>
    <path class="lighthouse-19" d="M503,157.5v12.7a2.2,2.2,0,1,0,4.4,0V157.5Z"/>
    <path class="lighthouse-14" d="M484,281.2h-.9a14,14,0,0,1,0,28h.9a14,14,0,0,0,0-28Z"/>
    <path class="lighthouse-6" d="M483,281.2h-.9a14,14,0,0,0,0,28h.9a14,14,0,0,0,0-28Z"/>
    <path class="lighthouse-15" d="M490.1,295.2a8,8,0,1,1-8-8A8,8,0,0,1,490.1,295.2Z"/>
    <path class="lighthouse-6" d="M536.5,155.1a2.43,2.43,0,0,1-2.4,2.4h-104a2.43,2.43,0,0,1-2.4-2.4h0a2.43,2.43,0,0,1,2.4-2.4H534.2a2.42,2.42,0,0,1,2.3,2.4Z"/>
    <path class="lighthouse-10" d="M477.2,63.1a32.79,32.79,0,0,0-26.6,23.3h53C501.8,74.1,489.8,65.1,477.2,63.1Z"/>
    <path class="lighthouse-20" d="M482.1,62.8a26.29,26.29,0,0,0-4.9.4c12.6,2,24.6,10.9,26.4,23.3h10A32.88,32.88,0,0,0,482.1,62.8Z"/>
    <path class="lighthouse-6" d="M519.5,88.7a2.58,2.58,0,0,1-2.6,2.6H447.4a2.58,2.58,0,0,1-2.6-2.6h0a2.58,2.58,0,0,1,2.6-2.6h69.5a2.65,2.65,0,0,1,2.6,2.6Z"/>
    <path class="lighthouse-21" d="M507.3,100.1a3.4,3.4,0,0,0-1,.1,6.81,6.81,0,0,1,5.8,6.8v21.3a6.71,6.71,0,0,1-5.8,6.7c.3,0,.7.1,1,.1a6.81,6.81,0,0,0,6.8-6.8V107A6.71,6.71,0,0,0,507.3,100.1Z"/>
    <path class="lighthouse-22" d="M512.2,128.2V106.9a6.89,6.89,0,0,0-5.8-6.8,6.81,6.81,0,0,0-5.8,6.8v21.3a5.86,5.86,0,1,0,11.6,0Z"/>
    <path class="lighthouse-23" d="M530,127.7H434.2a4.27,4.27,0,0,0-4.3,4.3v20.8H534.3V132A4.27,4.27,0,0,0,530,127.7Zm3,4.3v1.4h-8.2V129H530A2.89,2.89,0,0,1,533,132Zm-45.5,7H476.7v-4.4h10.8Zm1.2-4.4h10.8V139H488.7ZM475.5,139H464.7v-4.4h10.8Zm-12.1,0H452.6v-4.4h10.8Zm0,1.3v4.4H452.6v-4.4Zm1.3,0h10.8v4.4H464.7Zm12,0h10.8v4.4H476.7Zm12,0h10.8v4.4H488.7Zm12.1,0h10.8v4.4H500.8Zm0-1.3v-4.4h10.8V139Zm12-4.4h10.8V139H512.8Zm0-1.2V129h10.8v4.4Zm-1.2,0H500.8V129h10.8Zm-12.1,0H488.7V129h10.8Zm-12,0H476.7V129h10.8Zm-12,0H464.7V129h10.8Zm-12.1,0H452.6V129h10.8Zm-12,0H440.6V129h10.8Zm0,1.2V139H440.6v-4.4Zm-12,4.4h-8.2v-4.4h8.2Zm0,1.3v4.4h-8.2v-4.4Zm1.2,0h10.8v4.4H440.6Zm10.8,5.6v5.6H440.6v-5.6Zm1.2,0h10.8v5.6H452.6Zm12.1,0h10.8v5.6H464.7Zm12,0h10.8v5.6H476.7Zm12,0h10.8v5.6H488.7Zm12.1,0h10.8v5.6H500.8Zm12,0h10.8v5.6H512.8Zm0-1.2v-4.4h10.8v4.4Zm12-4.4H533v4.4h-8.2Zm0-1.3v-4.4H533V139Zm-90.6-10.1h5.2v4.4h-8.2V132A3,3,0,0,1,434.2,128.9Zm-3.1,17h8.2v5.6h-8.2Zm93.7,5.6v-5.6H533v5.6Z"/>
    <path class="lighthouse-24" d="M482.1,35.5"/>
    <path class="lighthouse-10" d="M482.1,46.8V35.5l-1.2,10.7a5.57,5.57,0,0,0,1.3,11,5.9,5.9,0,0,0,1.4-.2C488.2,51.2,482.1,46.8,482.1,46.8Z"/>
    <path class="lighthouse-25" d="M487.7,51.6a5.5,5.5,0,0,0-4.3-5.4l-1.2-10.7V46.9s6.1,4.3,1.4,10.1A5.79,5.79,0,0,0,487.7,51.6Z"/>
  </g>
  <g>
    <polygon class="lighthouse-26" points="573.7 510.5 590.4 514.5 600.6 502.5 590.4 440.1 546.4 471.5 573.7 495.6 573.7 510.5"/>
    <polygon class="lighthouse-26" points="657.6 521 640.3 461.5 612.1 529.5 657.6 521"/>
    <polygon class="lighthouse-26" points="417.8 471.5 361.5 457.3 407.3 577.1 417.8 471.5"/>
    <polygon class="lighthouse-26" points="599.5 534.1 601.2 551.3 584 567.4 648.9 567.4 642.1 541.6 612.1 529.5 599.5 534.1"/>
    <polygon class="lighthouse-27" points="642.1 541.6 657.6 521 612.1 529.5 642.1 541.6"/>
    <polygon class="lighthouse-26" points="726.3 577.1 674.7 577.1 660.3 572.5 640.8 572.5 620.8 581.1 602.9 581.1 586.9 592 600.6 604.3 598.4 613.9 741.7 620.2 726.3 577.1"/>
    <polygon class="lighthouse-26" points="550.2 601.8 539.8 586.3 511.3 584 498.2 613.9 575.7 623.8 571.4 606.3 550.2 601.8"/>
    <path class="lighthouse-28" d="M586.9,592,603,581.1h17.8l20-8.6h19.5l14.3,4.6h51.6l-77.3-9.7H584l17.2-16.2L599.5,534l12.6-4.6,28.2-68L590.4,440l10.2,62.4-10.2,12-16.7-3.9V495.6l-27.3-24.1H417.8L407.4,577.1,361.6,457.4l-45.9,10.8,3.4,17.7h20.7l8.6,48.8-21.8,13.8-1.1,28.7,18.9,18.6-1,14.1,85.7,14,69.2-9.9,13.1-29.9,28.5,2.3,10.4,15.5,21.2,4.6,4.3,17.5,22.7-9.9,2.3-9.6Zm-212.3,3.7-18.4-18.6V558.7l11.5-10.3,5.7,10.3,5.7,13.8Zm89.7,2.6-12.2-9.2,3.7-25.2-11.2-18.4V508.2L467,485.8l16.1,6.9-18.7,41.9,9.4,29.8Zm71.5-45.9-29.3,6.3L483,527l12.7-21,27.2-13.8.1,28.1,16.4,12Z"/>
    <polygon class="lighthouse-26" points="483 492.8 467 485.9 444.6 508.2 444.6 545.5 455.8 563.9 452.1 589.1 464.3 598.3 473.7 564.5 464.3 534.6 483 492.8"/>
    <polygon class="lighthouse-26" points="522.9 492.2 495.7 505.9 483 527 506.5 558.7 535.8 552.4 539.5 532.3 523.1 520.3 522.9 492.2"/>
    <polygon class="lighthouse-26" points="367.7 548.4 356.3 558.7 356.3 577.1 374.6 595.7 379.2 572.5 373.5 558.7 367.7 548.4"/>
  </g>
  <g id="boat2">
    <path class="lighthouse-3" d="M4.1,554.2l2.6,3.4h6.5l7.7,20.8H153s16.1-4.2,17.2-19.5l14.2-3.4v-1.3H131.7l-8-6.7H44.3L38.9,554H25.8l-2.6-5.2H0Z"/>
    <path class="lighthouse-3" d="M88.5,435.5s22.6,51,0,107.2h56.8S163.7,467.2,88.5,435.5Z"/>
    <rect class="lighthouse-3" x="81.1" y="435.5" width="2.3" height="107.2"/>
    <path class="lighthouse-3" d="M76,449.4S73.7,496,21.5,542.7H76Z"/>
  </g>
  <path id="light" class="lighthouse-29" d="M1460.5,0,514.6,100.1s-8-.9-13,4a8.78,8.78,0,0,0-1.1,4.7v17.5a8.78,8.78,0,0,0,1.1,4.7c5,4.9,13,4,13,4l945.9,101.3Z"/>
  <path class="lighthouse-28" d="M310.2,559.7l2-32.2-5.3-57.3-23.8,15.7v45.4l-.4,30.4-37.4-19.6-8.1,35,11.7,16.1L212,603.1v10.8h29.2v-7.6l30.7-5.7,8.8,3.7,10.5-8.5,8.4,10.5L295,617.8l13.4,1.4,4.4-42Zm-55,25.3-9.8-12.9,4.4-14.4L266,563l1.4,12.2Zm49.8-9.8L294.7,585l-9.4-6.1,6.1-45.2L289,497.2l9.5-8.1,6.6,32.8-3.8,36.5Z"/>
  <polygon class="lighthouse-28" points="331.2 545.4 326.4 548.4 325.3 577.1 344.2 595.7 343.2 609.8 354.7 608.1 331.2 545.4"/>
  <polygon class="lighthouse-26" points="348.2 534.6 339.6 485.9 319 485.9 315.6 468.1 306.9 470.2 331.2 545.4 348.2 534.6"/>
  <polygon class="lighthouse-26" points="325.3 577.1 326.4 548.4 331.2 545.4 306.9 470.2 312.2 527.5 310.2 559.7 312.9 577.1 308.5 619.1 343.2 609.8 344.2 595.7 325.3 577.1"/>
  <polygon class="lighthouse-26" points="283.2 531.3 245.4 542.1 282.7 561.7 283.2 531.3"/>
  <polygon class="lighthouse-26" points="298.4 489.1 288.9 497.2 291.3 533.7 285.2 578.9 294.6 585 305 575.2 301.2 558.3 305 521.9 298.4 489.1"/>
  <polygon class="lighthouse-26" points="249.8 557.6 245.4 572.1 255.2 585 267.3 575.2 266 563 249.8 557.6"/>
  <polygon class="lighthouse-26" points="291.3 595.7 280.8 604.2 272 600.5 241.3 606.2 241.3 613.9 295.1 617.7 299.7 606.2 291.3 595.7"/>
  <text class="lighthouse-30" transform="translate(321.74 556.97)"><tspan xml:space="preserve">TECHSPARDHA  </tspan></text>
  <text class="lighthouse-31" transform="translate(536.22 588.25)">PRIME</text>
</svg>
