<svg id="Layer_1" data-name="Layer 1" xmlns="http://www.w3.org/2000/svg" viewBox="0 0 177.97 183.03">
  <defs>
    <style>
      .loader-1 {
        font-size: 21px;
      }

      .loader-1, .loader-2, .loader-3 {
        fill: #fff;
      }

      .loader-1, .loader-4 {
        font-family: Antonio-Regular, Antonio Regular;
      }

      .loader-2 {
        font-size: 23px;
        font-family: Gaspar, Gaspar;
      }

      .loader-4 {
        font-size: 14px;
        letter-spacing: 0.03em;
      }

      .loader-4, .loader-5 {
        fill: #052844;
      }

      .loader-6 {
        fill: none;
        stroke: #fff;
        stroke-linecap: round;
        stroke-miterlimit: 10;
      }
    </style>
  </defs>
  <title>loader</title>
  <g>
    <g id="text">
      <g>
        <text class="loader-1" transform="translate(42.53 164.8) rotate(28.08)">P</text>
        <text class="loader-1" transform="matrix(0.97, 0.24, -0.24, 0.97, 62.39, 173.89)">R</text>
        <text class="loader-1" transform="translate(83.64 177.65) rotate(1.82)">I</text>
        <text class="loader-1" transform="translate(99.27 177.6) rotate(-12.02)">M</text>
        <text class="loader-1" transform="matrix(0.88, -0.47, 0.47, 0.88, 125.99, 169.87)">E</text>
      </g>
      <g>
        <text class="loader-2" transform="matrix(0.36, -0.93, 0.93, 0.36, 21.49, 69.58)">T</text>
        <text class="loader-2" transform="matrix(0.55, -0.83, 0.83, 0.55, 27.33, 55.54)">E</text>
        <text class="loader-2" transform="matrix(0.73, -0.69, 0.69, 0.73, 35.9, 43.11)">C</text>
        <text class="loader-2" transform="translate(48.49 31.66) rotate(-29.03)">H</text>
        <text class="loader-2" transform="translate(65.13 23.18) rotate(-15.19)">S</text>
        <text class="loader-2" transform="translate(79.83 19.58) rotate(-2.47)">P</text>
        <text class="loader-2" transform="translate(93.98 19.07) rotate(9.7)">A</text>
        <text class="loader-2" transform="translate(111.4 22.61) rotate(23.61)">R</text>
        <text class="loader-2" transform="matrix(0.79, 0.61, -0.61, 0.79, 126.01, 29.3)">D</text>
        <text class="loader-2" transform="matrix(0.6, 0.8, -0.8, 0.6, 140.65, 41.35)">H</text>
        <text class="loader-2" transform="matrix(0.37, 0.93, -0.93, 0.37, 151.41, 56.58)">A</text>
      </g>
      <g>
        <circle class="loader-3" cx="10.16" cy="89.36" r="10.16"/>
        <text class="loader-4" transform="translate(2.81 95.34)">18</text>
      </g>
      <g>
        <circle class="loader-3" cx="167.81" cy="89.36" r="10.16"/>
        <text class="loader-4" transform="translate(160.45 95.34)">18</text>
      </g>
    </g>
    <g id="wheel">
      <g>
        <path class="loader-3" d="M89,49.41a39.95,39.95,0,1,0,39.94,40A40,40,0,0,0,89,49.41Zm0,78.21a38.27,38.27,0,1,1,38.26-38.26A38.26,38.26,0,0,1,89,127.62Z"/>
        <path class="loader-3" d="M90.53,48.54h-.11c1.39-2.95,2.37-9.34,2.37-10.93a3.77,3.77,0,0,0-3-3.7s0,0,0-.08a.74.74,0,0,0-.74-.74.75.75,0,0,0-.75.74s0,.05,0,.08a3.78,3.78,0,0,0-3,3.7c0,1.59,1,8,2.37,10.93H87.5a1,1,0,0,0-1,1V50.7h5V49.51A1,1,0,0,0,90.53,48.54Z"/>
        <path class="loader-3" d="M61.23,59.42l-.08.08c-1.1-3.07-4.93-8.28-6-9.4a3.77,3.77,0,0,0-4.77-.47l0-.06a.74.74,0,1,0-1.05,1l.06.05a3.77,3.77,0,0,0,.47,4.77c1.12,1.12,6.33,5,9.4,6.05l-.08.08a1,1,0,0,0,0,1.37l.85.84,3.51-3.51-.84-.85A1,1,0,0,0,61.23,59.42Z"/>
        <path class="loader-3" d="M48.2,87.84V88c-3-1.39-9.34-2.37-10.93-2.37a3.78,3.78,0,0,0-3.7,3h-.08a.75.75,0,0,0-.74.75.74.74,0,0,0,.74.74h.08a3.78,3.78,0,0,0,3.7,3c1.59,0,8-1,10.93-2.38v.12a1,1,0,0,0,1,1h1.19v-5H49.17A1,1,0,0,0,48.2,87.84Z"/>
        <path class="loader-3" d="M59.08,117.15l.08.08c-3.07,1.1-8.28,4.92-9.4,6a3.76,3.76,0,0,0-.47,4.77l-.06,0a.74.74,0,1,0,1.05,1l0,0a3.78,3.78,0,0,0,4.77-.47c1.12-1.13,4.95-6.34,6-9.41l.08.08a1,1,0,0,0,1.37,0l.84-.84-3.51-3.52-.85.85A1,1,0,0,0,59.08,117.15Z"/>
        <path class="loader-3" d="M87.5,130.17h.11c-1.39,3-2.37,9.34-2.37,10.93a3.78,3.78,0,0,0,3,3.71s0,.05,0,.07a.75.75,0,0,0,.75.74.74.74,0,0,0,.74-.74s0,0,0-.07a3.77,3.77,0,0,0,3-3.71c0-1.59-1-8-2.37-10.93h.11a1,1,0,0,0,1-1V128h-5v1.2A1,1,0,0,0,87.5,130.17Z"/>
        <path class="loader-3" d="M116.8,119.29l.09-.08c1.1,3.07,4.92,8.28,6,9.41a3.79,3.79,0,0,0,4.78.47.1.1,0,0,0,0,0,.74.74,0,1,0,1.05-1l-.05,0a3.79,3.79,0,0,0-.47-4.77c-1.13-1.13-6.34-5-9.41-6l.08-.08a1,1,0,0,0,0-1.37l-.84-.85-3.52,3.52.85.84A1,1,0,0,0,116.8,119.29Z"/>
        <path class="loader-3" d="M129.83,90.88v-.12c2.95,1.39,9.34,2.38,10.93,2.38a3.79,3.79,0,0,0,3.71-3h.07a.74.74,0,0,0,.74-.74.75.75,0,0,0-.74-.75h-.07a3.79,3.79,0,0,0-3.71-3c-1.59,0-8,1-10.93,2.37v-.11a1,1,0,0,0-1-1h-1.2v5h1.2A1,1,0,0,0,129.83,90.88Z"/>
        <path class="loader-3" d="M119,61.57l-.08-.08c3.07-1.1,8.28-4.93,9.41-6.05a3.79,3.79,0,0,0,.47-4.77l.05-.05a.74.74,0,0,0-1.05-1l0,.06a3.78,3.78,0,0,0-4.78.47c-1.12,1.12-4.94,6.33-6,9.4l-.09-.08a1,1,0,0,0-1.36,0l-.85.85,3.52,3.51.84-.84A1,1,0,0,0,119,61.57Z"/>
      </g>
      <g>
        <polygon class="loader-3" points="113.55 64.82 90.61 89.36 113.55 113.89 89.02 90.95 64.48 113.89 87.42 89.36 64.48 64.82 89.02 87.76 113.55 64.82"/>
        <g>
          <path class="loader-3" d="M71.41,91.16A.9.9,0,0,0,71,92.37h0a.08.08,0,0,1,0,.1,5.89,5.89,0,0,1-.86.65,2.1,2.1,0,0,1-2.26-.05l-.27-5.41h1.18a.64.64,0,0,0,.47.21.63.63,0,0,0,0-1.26.65.65,0,0,0-.47.22H67.59v-.27a1.77,1.77,0,1,0-.86,0v.27H65.49a.62.62,0,0,0-.47-.22.63.63,0,0,0,0,1.26.61.61,0,0,0,.47-.21h1.18l-.26,5.41a2.1,2.1,0,0,1-2.26.05,5.47,5.47,0,0,1-.87-.65s0-.06,0-.1h0a.9.9,0,0,0-.36-1.21l-1-.55A5.3,5.3,0,0,0,66,95a2.27,2.27,0,0,1,1.09.58l0,0,0,0A2.19,2.19,0,0,1,68.27,95a5.32,5.32,0,0,0,4.14-4.41Zm-5.26-6.32a1,1,0,1,1,1,1A1,1,0,0,1,66.15,84.84Z"/>
          <polygon class="loader-3" points="112.44 83.18 113.79 87.32 118.14 87.32 114.62 89.88 115.96 94.01 112.44 91.46 108.92 94.01 110.27 89.88 106.75 87.32 111.1 87.32 112.44 83.18"/>
        </g>
        <g>
          <g>
            <g>
              <path class="loader-3" d="M89,118a5.36,5.36,0,1,1,3.79-1.57A5.36,5.36,0,0,1,89,118Zm0-7.57a2.22,2.22,0,1,0,1.55.65A2.17,2.17,0,0,0,89,110.4Z"/>
              <path class="loader-3" d="M89,107.74a4.87,4.87,0,1,1-3.44,1.43A4.86,4.86,0,0,1,89,107.74m0,7.57a2.71,2.71,0,0,0,0-5.41,2.71,2.71,0,0,0,0,5.41m0-8.57a5.87,5.87,0,1,0,4.14,1.72A5.82,5.82,0,0,0,89,106.74Zm0,7.57a1.71,1.71,0,1,1,1.2-.5,1.7,1.7,0,0,1-1.2.5Z"/>
            </g>
            <g>
              <path class="loader-5" d="M84.58,110.61l2,.89a2.74,2.74,0,0,1,.56-.81,2.54,2.54,0,0,1,.8-.55l-.89-2a4.94,4.94,0,0,0-2.44,2.44Z"/>
              <path class="loader-5" d="M87.11,114.52a2.74,2.74,0,0,1-.56-.81l-2,.89A4.94,4.94,0,0,0,87,117l.89-2A2.72,2.72,0,0,1,87.11,114.52Z"/>
              <path class="loader-5" d="M93.45,114.6l-2-.89a2.7,2.7,0,0,1-.55.81,2.9,2.9,0,0,1-.81.55l.89,2a5,5,0,0,0,1.45-1A4.76,4.76,0,0,0,93.45,114.6Z"/>
              <path class="loader-5" d="M90.93,110.69a2.7,2.7,0,0,1,.55.81l2-.89a4.76,4.76,0,0,0-1-1.44,5,5,0,0,0-1.45-1l-.89,2A2.7,2.7,0,0,1,90.93,110.69Z"/>
            </g>
          </g>
          <g>
            <path class="loader-6" d="M95.28,67.67c-1.55,0-1.55,1-3.1,1s-1.56-1-3.11-1-1.55,1-3.1,1-1.56-1-3.11-1"/>
            <path class="loader-6" d="M95.28,65.46c-1.55,0-1.55,1-3.1,1s-1.56-1-3.11-1-1.55,1-3.1,1-1.56-1-3.11-1"/>
            <path class="loader-6" d="M95.28,63.25c-1.55,0-1.55,1-3.1,1s-1.56-1-3.11-1-1.55,1-3.1,1-1.56-1-3.11-1"/>
          </g>
        </g>
      </g>
    </g>
  </g>
</svg>
