<svg id="Layer_1" data-name="Layer 1" xmlns="http://www.w3.org/2000/svg" viewBox="0 0 1389.6 178.9">
  <defs>
    <style>
      .sea-1 {
        fill: #33c8ff;
      }
    </style>
  </defs>
  <title>seaDetails</title>
  <path class="sea-1" d="M531.9,43.2a12.72,12.72,0,0,1-12.7,12.7H432.6a12.72,12.72,0,0,1-12.7-12.7h0a12.72,12.72,0,0,1,12.7-12.7h86.6a12.72,12.72,0,0,1,12.7,12.7Z"/>
  <path class="sea-1" d="M562,133.5a12.72,12.72,0,0,1-12.7,12.7H462.7A12.72,12.72,0,0,1,450,133.5h0a12.72,12.72,0,0,1,12.7-12.7h86.6A12.72,12.72,0,0,1,562,133.5Z"/>
  <path class="sea-1" d="M854.3,133.5a12.72,12.72,0,0,1-12.7,12.7H755a12.72,12.72,0,0,1-12.7-12.7h0A12.72,12.72,0,0,1,755,120.8h86.6a12.65,12.65,0,0,1,12.7,12.7Z"/>
  <path class="sea-1" d="M1017.5,133.5a12.72,12.72,0,0,1-12.7,12.7H957.6a12.72,12.72,0,0,1-12.7-12.7h0a12.72,12.72,0,0,1,12.7-12.7h47.2a12.65,12.65,0,0,1,12.7,12.7Z"/>
  <path class="sea-1" d="M1389.6,68.5a12.72,12.72,0,0,1-12.7,12.7h-86.6a12.72,12.72,0,0,1-12.7-12.7h0a12.72,12.72,0,0,1,12.7-12.7h86.6a12.65,12.65,0,0,1,12.7,12.7Z"/>
  <path class="sea-1" d="M1359.5,146.2a12.72,12.72,0,0,1-12.7,12.7h-86.6a12.72,12.72,0,0,1-12.7-12.7h0a12.72,12.72,0,0,1,12.7-12.7h86.6a12.65,12.65,0,0,1,12.7,12.7Z"/>
  <path class="sea-1" d="M740.1,92.9a12.72,12.72,0,0,1-12.7,12.7H583.9a12.72,12.72,0,0,1-12.7-12.7h0a12.72,12.72,0,0,1,12.7-12.7H727.5a12.7,12.7,0,0,1,12.6,12.7Z"/>
  <path class="sea-1" d="M1222.5,105.5a12.72,12.72,0,0,1-12.7,12.7H1066.2a12.72,12.72,0,0,1-12.7-12.7h0a12.72,12.72,0,0,1,12.7-12.7h143.6a12.85,12.85,0,0,1,12.7,12.7Z"/>
  <path class="sea-1" d="M263.2,15.5c0,8.6-13.3,15.5-29.8,15.5H29.8C13.4,31,0,24,0,15.5H0C0,6.9,13.3,0,29.8,0H233.4c16.5-.1,29.8,6.9,29.8,15.5Z"/>
  <path class="sea-1" d="M243.9,166.2a12.72,12.72,0,0,1-12.7,12.7H144.6a12.72,12.72,0,0,1-12.7-12.7h0a12.72,12.72,0,0,1,12.7-12.7h86.6a12.72,12.72,0,0,1,12.7,12.7Z"/>
</svg>
