<svg id="Layer_1" data-name="Layer 1" xmlns="http://www.w3.org/2000/svg" viewBox="0 0 1921.8 596.5">
  <defs>
    <style>
      .cls-1 {
        fill: #fbf7c0;
      }
    </style>
  </defs>
  <title>stars</title>
  <g id="star">
    <path class="cls-1" d="M1122.8,98.1a2.5,2.5,0,1,1-2.5-2.5A2.48,2.48,0,0,1,1122.8,98.1Z" transform="translate(0.1)"/>
    <path class="cls-1" d="M1114.3,6.1a2.5,2.5,0,1,1-2.5-2.5A2.54,2.54,0,0,1,1114.3,6.1Z" transform="translate(0.1)"/>
    <path class="cls-1" d="M1199.1,79.7a1.3,1.3,0,1,1-1.3-1.3A1.26,1.26,0,0,1,1199.1,79.7Z" transform="translate(0.1)"/>
    <path class="cls-1" d="M1054.8,73.5a1.3,1.3,0,1,1-1.3-1.3A1.32,1.32,0,0,1,1054.8,73.5Z" transform="translate(0.1)"/>
    <path class="cls-1" d="M1317.8,362.7a1.3,1.3,0,1,1-1.3-1.3A1.32,1.32,0,0,1,1317.8,362.7Z" transform="translate(0.1)"/>
    <path class="cls-1" d="M1009.9,439.4a1.3,1.3,0,1,1-1.3-1.3A1.32,1.32,0,0,1,1009.9,439.4Z" transform="translate(0.1)"/>
    <path class="cls-1" d="M1088.8,527.9a1.3,1.3,0,1,1-1.3-1.3A1.26,1.26,0,0,1,1088.8,527.9Z" transform="translate(0.1)"/>
    <path class="cls-1" d="M1178.7,581.7a1.3,1.3,0,1,1-1.3-1.3A1.26,1.26,0,0,1,1178.7,581.7Z" transform="translate(0.1)"/>
    <path class="cls-1" d="M1652.2,395.8a1.3,1.3,0,1,1-1.3-1.3A1.26,1.26,0,0,1,1652.2,395.8Z" transform="translate(0.1)"/>
    <path class="cls-1" d="M1573.9,470.5a1.3,1.3,0,1,1-1.3-1.3A1.32,1.32,0,0,1,1573.9,470.5Z" transform="translate(0.1)"/>
    <path class="cls-1" d="M1399.6,8.5a1.3,1.3,0,1,1-1.3-1.3A1.4,1.4,0,0,1,1399.6,8.5Z" transform="translate(0.1)"/>
    <path class="cls-1" d="M1596.7,78.4a1.3,1.3,0,1,1-1.3-1.3A1.4,1.4,0,0,1,1596.7,78.4Z" transform="translate(0.1)"/>
    <path class="cls-1" d="M1746.6,491.8a1.3,1.3,0,1,1-1.3-1.3A1.32,1.32,0,0,1,1746.6,491.8Z" transform="translate(0.1)"/>
    <path class="cls-1" d="M1726.4,595.2a1.3,1.3,0,1,1-1.3-1.3A1.32,1.32,0,0,1,1726.4,595.2Z" transform="translate(0.1)"/>
    <path class="cls-1" d="M957.4,117.2a2.5,2.5,0,1,1-2.5-2.5A2.61,2.61,0,0,1,957.4,117.2Z" transform="translate(0.1)"/>
    <path class="cls-1" d="M1883,79.7a2.5,2.5,0,1,1-2.5-2.5A2.48,2.48,0,0,1,1883,79.7Z" transform="translate(0.1)"/>
    <path class="cls-1" d="M1536.3,327a2.5,2.5,0,1,1-2.5-2.5A2.48,2.48,0,0,1,1536.3,327Z" transform="translate(0.1)"/>
    <path class="cls-1" d="M1693,119.7a2.5,2.5,0,1,1-2.5-2.5A2.48,2.48,0,0,1,1693,119.7Z" transform="translate(0.1)"/>
    <path class="cls-1" d="M1518.6,130.2a2.5,2.5,0,1,1-2.5-2.5A2.48,2.48,0,0,1,1518.6,130.2Z" transform="translate(0.1)"/>
    <path class="cls-1" d="M1585.7,252.1a2.5,2.5,0,1,1-2.5-2.5A2.48,2.48,0,0,1,1585.7,252.1Z" transform="translate(0.1)"/>
    <path class="cls-1" d="M1750.2,207.8a2.5,2.5,0,1,1-2.5-2.5A2.61,2.61,0,0,1,1750.2,207.8Z" transform="translate(0.1)"/>
    <path class="cls-1" d="M1848.1,257.9a2.5,2.5,0,1,1-2.5-2.5A2.48,2.48,0,0,1,1848.1,257.9Z" transform="translate(0.1)"/>
    <path class="cls-1" d="M1792.7,70.8a2.5,2.5,0,1,1-2.5-2.5A2.48,2.48,0,0,1,1792.7,70.8Z" transform="translate(0.1)"/>
    <path class="cls-1" d="M1708.9,2.5a2.5,2.5,0,0,1-5,0,2.5,2.5,0,0,1,5,0Z" transform="translate(0.1)"/>
    <path class="cls-1" d="M1264.1,73.5a2.5,2.5,0,1,1-2.5-2.5A2.61,2.61,0,0,1,1264.1,73.5Z" transform="translate(0.1)"/>
    <path class="cls-1" d="M1261.7,25.8a2.5,2.5,0,1,1-2.5-2.5A2.69,2.69,0,0,1,1261.7,25.8Z" transform="translate(0.1)"/>
    <path class="cls-1" d="M1013.9,237.4a2.5,2.5,0,1,1-2.5-2.5A2.61,2.61,0,0,1,1013.9,237.4Z" transform="translate(0.1)"/>
    <path class="cls-1" d="M1764.2,382.2a2.5,2.5,0,1,1-2.5-2.5A2.48,2.48,0,0,1,1764.2,382.2Z" transform="translate(0.1)"/>
    <path class="cls-1" d="M1540.8,425.4a2.5,2.5,0,1,1-2.5-2.5A2.48,2.48,0,0,1,1540.8,425.4Z" transform="translate(0.1)"/>
    <path class="cls-1" d="M1649.7,523a2.5,2.5,0,1,1-2.5-2.5A2.48,2.48,0,0,1,1649.7,523Z" transform="translate(0.1)"/>
    <path class="cls-1" d="M1883,441.9a2.5,2.5,0,1,1-2.5-2.5A2.48,2.48,0,0,1,1883,441.9Z" transform="translate(0.1)"/>
    <path class="cls-1" d="M1837.8,495.5a2.5,2.5,0,1,1-2.5-2.5A2.48,2.48,0,0,1,1837.8,495.5Z" transform="translate(0.1)"/>
    <path class="cls-1" d="M1921.7,573.1a2.5,2.5,0,1,1-2.5-2.5A2.48,2.48,0,0,1,1921.7,573.1Z" transform="translate(0.1)"/>
    <path class="cls-1" d="M1268.5,468a2.5,2.5,0,1,1-2.5-2.5A2.48,2.48,0,0,1,1268.5,468Z" transform="translate(0.1)"/>
    <path class="cls-1" d="M1106.8,189.5a2.5,2.5,0,1,1-2.5-2.5A2.61,2.61,0,0,1,1106.8,189.5Z" transform="translate(0.1)"/>
    <path class="cls-1" d="M1141.3,294.3a2.5,2.5,0,1,1-2.5-2.5A2.48,2.48,0,0,1,1141.3,294.3Z" transform="translate(0.1)"/>
    <path class="cls-1" d="M1348.8,165.6a2.5,2.5,0,1,1-2.5-2.5A2.69,2.69,0,0,1,1348.8,165.6Z" transform="translate(0.1)"/>
    <path class="cls-1" d="M1271,260.3a2.5,2.5,0,1,1-2.5-2.5A2.61,2.61,0,0,1,1271,260.3Z" transform="translate(0.1)"/>
    <path class="cls-1" d="M1109.3,444.4a2.5,2.5,0,1,1-2.5-2.5A2.48,2.48,0,0,1,1109.3,444.4Z" transform="translate(0.1)"/>
    <path class="cls-1" d="M954.9,324.5a2.5,2.5,0,1,1-2.5-2.5A2.48,2.48,0,0,1,954.9,324.5Z" transform="translate(0.1)"/>
    <path class="cls-1" d="M957.4,506.8a2.5,2.5,0,1,1-2.5-2.5A2.61,2.61,0,0,1,957.4,506.8Z" transform="translate(0.1)"/>
    <path class="cls-1" d="M1526.9,30.8a2.5,2.5,0,1,1-2.5-2.5A2.48,2.48,0,0,1,1526.9,30.8Z" transform="translate(0.1)"/>
  </g>
  <g id="star-2" data-name="star">
    <path class="cls-1" d="M172.8,98.1a2.5,2.5,0,1,1-2.5-2.5A2.48,2.48,0,0,1,172.8,98.1Z" transform="translate(0.1)"/>
    <path class="cls-1" d="M164.3,6.1a2.5,2.5,0,1,1-2.5-2.5A2.54,2.54,0,0,1,164.3,6.1Z" transform="translate(0.1)"/>
    <path class="cls-1" d="M249.1,79.7a1.3,1.3,0,1,1-1.3-1.3A1.26,1.26,0,0,1,249.1,79.7Z" transform="translate(0.1)"/>
    <path class="cls-1" d="M104.8,73.5a1.3,1.3,0,1,1-1.3-1.3A1.32,1.32,0,0,1,104.8,73.5Z" transform="translate(0.1)"/>
    <path class="cls-1" d="M367.8,362.7a1.3,1.3,0,1,1-1.3-1.3A1.32,1.32,0,0,1,367.8,362.7Z" transform="translate(0.1)"/>
    <path class="cls-1" d="M59.9,439.4a1.3,1.3,0,1,1-1.3-1.3A1.32,1.32,0,0,1,59.9,439.4Z" transform="translate(0.1)"/>
    <path class="cls-1" d="M138.8,527.9a1.3,1.3,0,1,1-1.3-1.3A1.26,1.26,0,0,1,138.8,527.9Z" transform="translate(0.1)"/>
    <path class="cls-1" d="M228.7,581.7a1.3,1.3,0,1,1-1.3-1.3A1.26,1.26,0,0,1,228.7,581.7Z" transform="translate(0.1)"/>
    <path class="cls-1" d="M702.2,395.8a1.3,1.3,0,1,1-1.3-1.3A1.26,1.26,0,0,1,702.2,395.8Z" transform="translate(0.1)"/>
    <path class="cls-1" d="M623.9,470.5a1.3,1.3,0,1,1-1.3-1.3A1.32,1.32,0,0,1,623.9,470.5Z" transform="translate(0.1)"/>
    <path class="cls-1" d="M449.6,8.5a1.3,1.3,0,1,1-1.3-1.3A1.4,1.4,0,0,1,449.6,8.5Z" transform="translate(0.1)"/>
    <path class="cls-1" d="M646.7,78.4a1.3,1.3,0,1,1-1.3-1.3A1.4,1.4,0,0,1,646.7,78.4Z" transform="translate(0.1)"/>
    <path class="cls-1" d="M796.6,491.8a1.3,1.3,0,1,1-1.3-1.3A1.32,1.32,0,0,1,796.6,491.8Z" transform="translate(0.1)"/>
    <path class="cls-1" d="M776.4,595.2a1.3,1.3,0,1,1-1.3-1.3A1.32,1.32,0,0,1,776.4,595.2Z" transform="translate(0.1)"/>
    <path class="cls-1" d="M7.4,117.2a2.5,2.5,0,1,1-2.5-2.5A2.61,2.61,0,0,1,7.4,117.2Z" transform="translate(0.1)"/>
    <path class="cls-1" d="M933,79.7a2.5,2.5,0,1,1-2.5-2.5A2.48,2.48,0,0,1,933,79.7Z" transform="translate(0.1)"/>
    <path class="cls-1" d="M586.3,327a2.5,2.5,0,1,1-2.5-2.5A2.48,2.48,0,0,1,586.3,327Z" transform="translate(0.1)"/>
    <path class="cls-1" d="M743,119.7a2.5,2.5,0,1,1-2.5-2.5A2.48,2.48,0,0,1,743,119.7Z" transform="translate(0.1)"/>
    <path class="cls-1" d="M568.6,130.2a2.5,2.5,0,1,1-2.5-2.5A2.48,2.48,0,0,1,568.6,130.2Z" transform="translate(0.1)"/>
    <path class="cls-1" d="M635.7,252.1a2.5,2.5,0,1,1-2.5-2.5A2.48,2.48,0,0,1,635.7,252.1Z" transform="translate(0.1)"/>
    <path class="cls-1" d="M800.2,207.8a2.5,2.5,0,1,1-2.5-2.5A2.61,2.61,0,0,1,800.2,207.8Z" transform="translate(0.1)"/>
    <path class="cls-1" d="M898.1,257.9a2.5,2.5,0,1,1-2.5-2.5A2.48,2.48,0,0,1,898.1,257.9Z" transform="translate(0.1)"/>
    <path class="cls-1" d="M842.7,70.8a2.5,2.5,0,1,1-2.5-2.5A2.48,2.48,0,0,1,842.7,70.8Z" transform="translate(0.1)"/>
    <path class="cls-1" d="M758.9,2.5a2.5,2.5,0,0,1-5,0,2.5,2.5,0,0,1,5,0Z" transform="translate(0.1)"/>
    <path class="cls-1" d="M314.1,73.5a2.5,2.5,0,1,1-2.5-2.5A2.61,2.61,0,0,1,314.1,73.5Z" transform="translate(0.1)"/>
    <path class="cls-1" d="M311.7,25.8a2.5,2.5,0,1,1-2.5-2.5A2.69,2.69,0,0,1,311.7,25.8Z" transform="translate(0.1)"/>
    <path class="cls-1" d="M63.9,237.4a2.5,2.5,0,1,1-2.5-2.5A2.61,2.61,0,0,1,63.9,237.4Z" transform="translate(0.1)"/>
    <path class="cls-1" d="M814.2,382.2a2.5,2.5,0,1,1-2.5-2.5A2.48,2.48,0,0,1,814.2,382.2Z" transform="translate(0.1)"/>
    <path class="cls-1" d="M590.8,425.4a2.5,2.5,0,1,1-2.5-2.5A2.48,2.48,0,0,1,590.8,425.4Z" transform="translate(0.1)"/>
    <path class="cls-1" d="M699.7,523a2.5,2.5,0,1,1-2.5-2.5A2.48,2.48,0,0,1,699.7,523Z" transform="translate(0.1)"/>
    <path class="cls-1" d="M933,441.9a2.5,2.5,0,1,1-2.5-2.5A2.48,2.48,0,0,1,933,441.9Z" transform="translate(0.1)"/>
    <path class="cls-1" d="M887.8,495.5a2.5,2.5,0,1,1-2.5-2.5A2.48,2.48,0,0,1,887.8,495.5Z" transform="translate(0.1)"/>
    <path class="cls-1" d="M971.7,573.1a2.5,2.5,0,1,1-2.5-2.5A2.48,2.48,0,0,1,971.7,573.1Z" transform="translate(0.1)"/>
    <path class="cls-1" d="M318.5,468a2.5,2.5,0,1,1-2.5-2.5A2.48,2.48,0,0,1,318.5,468Z" transform="translate(0.1)"/>
    <path class="cls-1" d="M156.8,189.5a2.5,2.5,0,1,1-2.5-2.5A2.61,2.61,0,0,1,156.8,189.5Z" transform="translate(0.1)"/>
    <path class="cls-1" d="M191.3,294.3a2.5,2.5,0,1,1-2.5-2.5A2.48,2.48,0,0,1,191.3,294.3Z" transform="translate(0.1)"/>
    <path class="cls-1" d="M398.8,165.6a2.5,2.5,0,1,1-2.5-2.5A2.69,2.69,0,0,1,398.8,165.6Z" transform="translate(0.1)"/>
    <path class="cls-1" d="M321,260.3a2.5,2.5,0,1,1-2.5-2.5A2.61,2.61,0,0,1,321,260.3Z" transform="translate(0.1)"/>
    <path class="cls-1" d="M159.3,444.4a2.5,2.5,0,1,1-2.5-2.5A2.48,2.48,0,0,1,159.3,444.4Z" transform="translate(0.1)"/>
    <path class="cls-1" d="M4.9,324.5A2.48,2.48,0,0,1,2.4,327a2.5,2.5,0,1,1,0-5A2.48,2.48,0,0,1,4.9,324.5Z" transform="translate(0.1)"/>
    <path class="cls-1" d="M7.4,506.8a2.5,2.5,0,1,1-2.5-2.5A2.61,2.61,0,0,1,7.4,506.8Z" transform="translate(0.1)"/>
    <path class="cls-1" d="M576.9,30.8a2.5,2.5,0,1,1-2.5-2.5A2.48,2.48,0,0,1,576.9,30.8Z" transform="translate(0.1)"/>
  </g>
</svg>
